G04 #@! TF.GenerationSoftware,KiCad,Pcbnew,(5.1.5-0-10_14)*
G04 #@! TF.CreationDate,2020-11-03T15:19:22-05:00*
G04 #@! TF.ProjectId,FC_Rear_Port_2P,46435f52-6561-4725-9f50-6f72745f3250,rev?*
G04 #@! TF.SameCoordinates,Original*
G04 #@! TF.FileFunction,Legend,Bot*
G04 #@! TF.FilePolarity,Positive*
%FSLAX46Y46*%
G04 Gerber Fmt 4.6, Leading zero omitted, Abs format (unit mm)*
G04 Created by KiCad (PCBNEW (5.1.5-0-10_14)) date 2020-11-03 15:19:22*
%MOMM*%
%LPD*%
G04 APERTURE LIST*
%ADD10C,0.762000*%
%ADD11C,0.120000*%
%ADD12C,0.150000*%
G04 APERTURE END LIST*
D10*
X161113628Y-92390000D02*
G75*
G03X161113628Y-92390000I-13628J0D01*
G01*
D11*
X152950000Y-100600000D02*
X152950000Y-91600000D01*
X157950000Y-100600000D02*
X152950000Y-100600000D01*
X157950000Y-91600000D02*
X157950000Y-100600000D01*
X152950000Y-91600000D02*
X157950000Y-91600000D01*
X152950000Y-100600000D02*
X152950000Y-91600000D01*
X157950000Y-100600000D02*
X152950000Y-100600000D01*
X157950000Y-91600000D02*
X157950000Y-100600000D01*
X152950000Y-91600000D02*
X157950000Y-91600000D01*
D12*
X152048595Y-93734000D02*
X152143833Y-93686380D01*
X152286690Y-93686380D01*
X152429547Y-93734000D01*
X152524785Y-93829238D01*
X152572404Y-93924476D01*
X152620023Y-94114952D01*
X152620023Y-94257809D01*
X152572404Y-94448285D01*
X152524785Y-94543523D01*
X152429547Y-94638761D01*
X152286690Y-94686380D01*
X152191452Y-94686380D01*
X152048595Y-94638761D01*
X152000976Y-94591142D01*
X152000976Y-94257809D01*
X152191452Y-94257809D01*
X151572404Y-94686380D02*
X151572404Y-94019714D01*
X151572404Y-94210190D02*
X151524785Y-94114952D01*
X151477166Y-94067333D01*
X151381928Y-94019714D01*
X151286690Y-94019714D01*
X150810500Y-94686380D02*
X150905738Y-94638761D01*
X150953357Y-94591142D01*
X151000976Y-94495904D01*
X151000976Y-94210190D01*
X150953357Y-94114952D01*
X150905738Y-94067333D01*
X150810500Y-94019714D01*
X150667642Y-94019714D01*
X150572404Y-94067333D01*
X150524785Y-94114952D01*
X150477166Y-94210190D01*
X150477166Y-94495904D01*
X150524785Y-94591142D01*
X150572404Y-94638761D01*
X150667642Y-94686380D01*
X150810500Y-94686380D01*
X149620023Y-94019714D02*
X149620023Y-94686380D01*
X150048595Y-94019714D02*
X150048595Y-94543523D01*
X150000976Y-94638761D01*
X149905738Y-94686380D01*
X149762880Y-94686380D01*
X149667642Y-94638761D01*
X149620023Y-94591142D01*
X149143833Y-94019714D02*
X149143833Y-94686380D01*
X149143833Y-94114952D02*
X149096214Y-94067333D01*
X149000976Y-94019714D01*
X148858119Y-94019714D01*
X148762880Y-94067333D01*
X148715261Y-94162571D01*
X148715261Y-94686380D01*
X147810500Y-94686380D02*
X147810500Y-93686380D01*
X147810500Y-94638761D02*
X147905738Y-94686380D01*
X148096214Y-94686380D01*
X148191452Y-94638761D01*
X148239071Y-94591142D01*
X148286690Y-94495904D01*
X148286690Y-94210190D01*
X148239071Y-94114952D01*
X148191452Y-94067333D01*
X148096214Y-94019714D01*
X147905738Y-94019714D01*
X147810500Y-94067333D01*
X161380833Y-99052380D02*
X161857023Y-99052380D01*
X161857023Y-98052380D01*
X160618928Y-99052380D02*
X160618928Y-98528571D01*
X160666547Y-98433333D01*
X160761785Y-98385714D01*
X160952261Y-98385714D01*
X161047500Y-98433333D01*
X160618928Y-99004761D02*
X160714166Y-99052380D01*
X160952261Y-99052380D01*
X161047500Y-99004761D01*
X161095119Y-98909523D01*
X161095119Y-98814285D01*
X161047500Y-98719047D01*
X160952261Y-98671428D01*
X160714166Y-98671428D01*
X160618928Y-98623809D01*
X160285595Y-98385714D02*
X159904642Y-98385714D01*
X160142738Y-98052380D02*
X160142738Y-98909523D01*
X160095119Y-99004761D01*
X159999880Y-99052380D01*
X159904642Y-99052380D01*
X159142738Y-99004761D02*
X159237976Y-99052380D01*
X159428452Y-99052380D01*
X159523690Y-99004761D01*
X159571309Y-98957142D01*
X159618928Y-98861904D01*
X159618928Y-98576190D01*
X159571309Y-98480952D01*
X159523690Y-98433333D01*
X159428452Y-98385714D01*
X159237976Y-98385714D01*
X159142738Y-98433333D01*
X158714166Y-99052380D02*
X158714166Y-98052380D01*
X158285595Y-99052380D02*
X158285595Y-98528571D01*
X158333214Y-98433333D01*
X158428452Y-98385714D01*
X158571309Y-98385714D01*
X158666547Y-98433333D01*
X158714166Y-98480952D01*
X161333214Y-96457142D02*
X161380833Y-96504761D01*
X161523690Y-96552380D01*
X161618928Y-96552380D01*
X161761785Y-96504761D01*
X161857023Y-96409523D01*
X161904642Y-96314285D01*
X161952261Y-96123809D01*
X161952261Y-95980952D01*
X161904642Y-95790476D01*
X161857023Y-95695238D01*
X161761785Y-95600000D01*
X161618928Y-95552380D01*
X161523690Y-95552380D01*
X161380833Y-95600000D01*
X161333214Y-95647619D01*
X160761785Y-96552380D02*
X160857023Y-96504761D01*
X160904642Y-96409523D01*
X160904642Y-95552380D01*
X160237976Y-96552380D02*
X160333214Y-96504761D01*
X160380833Y-96457142D01*
X160428452Y-96361904D01*
X160428452Y-96076190D01*
X160380833Y-95980952D01*
X160333214Y-95933333D01*
X160237976Y-95885714D01*
X160095119Y-95885714D01*
X159999880Y-95933333D01*
X159952261Y-95980952D01*
X159904642Y-96076190D01*
X159904642Y-96361904D01*
X159952261Y-96457142D01*
X159999880Y-96504761D01*
X160095119Y-96552380D01*
X160237976Y-96552380D01*
X159047500Y-96504761D02*
X159142738Y-96552380D01*
X159333214Y-96552380D01*
X159428452Y-96504761D01*
X159476071Y-96457142D01*
X159523690Y-96361904D01*
X159523690Y-96076190D01*
X159476071Y-95980952D01*
X159428452Y-95933333D01*
X159333214Y-95885714D01*
X159142738Y-95885714D01*
X159047500Y-95933333D01*
X158618928Y-96552380D02*
X158618928Y-95552380D01*
X158523690Y-96171428D02*
X158237976Y-96552380D01*
X158237976Y-95885714D02*
X158618928Y-96266666D01*
X160523690Y-93052380D02*
X160190357Y-94052380D01*
X159857023Y-93052380D01*
X159095119Y-94004761D02*
X159190357Y-94052380D01*
X159380833Y-94052380D01*
X159476071Y-94004761D01*
X159523690Y-93957142D01*
X159571309Y-93861904D01*
X159571309Y-93576190D01*
X159523690Y-93480952D01*
X159476071Y-93433333D01*
X159380833Y-93385714D01*
X159190357Y-93385714D01*
X159095119Y-93433333D01*
X158237976Y-94004761D02*
X158333214Y-94052380D01*
X158523690Y-94052380D01*
X158618928Y-94004761D01*
X158666547Y-93957142D01*
X158714166Y-93861904D01*
X158714166Y-93576190D01*
X158666547Y-93480952D01*
X158618928Y-93433333D01*
X158523690Y-93385714D01*
X158333214Y-93385714D01*
X158237976Y-93433333D01*
X152614404Y-94052380D02*
X152614404Y-93052380D01*
X152042976Y-94052380D01*
X152042976Y-93052380D01*
X150995357Y-93957142D02*
X151042976Y-94004761D01*
X151185833Y-94052380D01*
X151281071Y-94052380D01*
X151423928Y-94004761D01*
X151519166Y-93909523D01*
X151566785Y-93814285D01*
X151614404Y-93623809D01*
X151614404Y-93480952D01*
X151566785Y-93290476D01*
X151519166Y-93195238D01*
X151423928Y-93100000D01*
X151281071Y-93052380D01*
X151185833Y-93052380D01*
X151042976Y-93100000D01*
X150995357Y-93147619D01*
X149852500Y-93004761D02*
X150709642Y-94290476D01*
X149519166Y-94052380D02*
X149519166Y-93052380D01*
X149185833Y-93766666D01*
X148852500Y-93052380D01*
X148852500Y-94052380D01*
X148376309Y-94052380D02*
X148376309Y-93385714D01*
X148376309Y-93052380D02*
X148423928Y-93100000D01*
X148376309Y-93147619D01*
X148328690Y-93100000D01*
X148376309Y-93052380D01*
X148376309Y-93147619D01*
X147471547Y-94004761D02*
X147566785Y-94052380D01*
X147757261Y-94052380D01*
X147852500Y-94004761D01*
X147900119Y-93957142D01*
X147947738Y-93861904D01*
X147947738Y-93576190D01*
X147900119Y-93480952D01*
X147852500Y-93433333D01*
X147757261Y-93385714D01*
X147566785Y-93385714D01*
X147471547Y-93433333D01*
X152090595Y-95600000D02*
X152185833Y-95552380D01*
X152328690Y-95552380D01*
X152471547Y-95600000D01*
X152566785Y-95695238D01*
X152614404Y-95790476D01*
X152662023Y-95980952D01*
X152662023Y-96123809D01*
X152614404Y-96314285D01*
X152566785Y-96409523D01*
X152471547Y-96504761D01*
X152328690Y-96552380D01*
X152233452Y-96552380D01*
X152090595Y-96504761D01*
X152042976Y-96457142D01*
X152042976Y-96123809D01*
X152233452Y-96123809D01*
X151614404Y-96552380D02*
X151614404Y-95885714D01*
X151614404Y-96076190D02*
X151566785Y-95980952D01*
X151519166Y-95933333D01*
X151423928Y-95885714D01*
X151328690Y-95885714D01*
X150852500Y-96552380D02*
X150947738Y-96504761D01*
X150995357Y-96457142D01*
X151042976Y-96361904D01*
X151042976Y-96076190D01*
X150995357Y-95980952D01*
X150947738Y-95933333D01*
X150852500Y-95885714D01*
X150709642Y-95885714D01*
X150614404Y-95933333D01*
X150566785Y-95980952D01*
X150519166Y-96076190D01*
X150519166Y-96361904D01*
X150566785Y-96457142D01*
X150614404Y-96504761D01*
X150709642Y-96552380D01*
X150852500Y-96552380D01*
X149662023Y-95885714D02*
X149662023Y-96552380D01*
X150090595Y-95885714D02*
X150090595Y-96409523D01*
X150042976Y-96504761D01*
X149947738Y-96552380D01*
X149804880Y-96552380D01*
X149709642Y-96504761D01*
X149662023Y-96457142D01*
X149185833Y-95885714D02*
X149185833Y-96552380D01*
X149185833Y-95980952D02*
X149138214Y-95933333D01*
X149042976Y-95885714D01*
X148900119Y-95885714D01*
X148804880Y-95933333D01*
X148757261Y-96028571D01*
X148757261Y-96552380D01*
X147852500Y-96552380D02*
X147852500Y-95552380D01*
X147852500Y-96504761D02*
X147947738Y-96552380D01*
X148138214Y-96552380D01*
X148233452Y-96504761D01*
X148281071Y-96457142D01*
X148328690Y-96361904D01*
X148328690Y-96076190D01*
X148281071Y-95980952D01*
X148233452Y-95933333D01*
X148138214Y-95885714D01*
X147947738Y-95885714D01*
X147852500Y-95933333D01*
X152614404Y-99052380D02*
X152614404Y-98052380D01*
X152376309Y-98052380D01*
X152233452Y-98100000D01*
X152138214Y-98195238D01*
X152090595Y-98290476D01*
X152042976Y-98480952D01*
X152042976Y-98623809D01*
X152090595Y-98814285D01*
X152138214Y-98909523D01*
X152233452Y-99004761D01*
X152376309Y-99052380D01*
X152614404Y-99052380D01*
X151185833Y-99052380D02*
X151185833Y-98528571D01*
X151233452Y-98433333D01*
X151328690Y-98385714D01*
X151519166Y-98385714D01*
X151614404Y-98433333D01*
X151185833Y-99004761D02*
X151281071Y-99052380D01*
X151519166Y-99052380D01*
X151614404Y-99004761D01*
X151662023Y-98909523D01*
X151662023Y-98814285D01*
X151614404Y-98719047D01*
X151519166Y-98671428D01*
X151281071Y-98671428D01*
X151185833Y-98623809D01*
X150852500Y-98385714D02*
X150471547Y-98385714D01*
X150709642Y-98052380D02*
X150709642Y-98909523D01*
X150662023Y-99004761D01*
X150566785Y-99052380D01*
X150471547Y-99052380D01*
X149709642Y-99052380D02*
X149709642Y-98528571D01*
X149757261Y-98433333D01*
X149852500Y-98385714D01*
X150042976Y-98385714D01*
X150138214Y-98433333D01*
X149709642Y-99004761D02*
X149804880Y-99052380D01*
X150042976Y-99052380D01*
X150138214Y-99004761D01*
X150185833Y-98909523D01*
X150185833Y-98814285D01*
X150138214Y-98719047D01*
X150042976Y-98671428D01*
X149804880Y-98671428D01*
X149709642Y-98623809D01*
X161380833Y-99052380D02*
X161857023Y-99052380D01*
X161857023Y-98052380D01*
X160618928Y-99052380D02*
X160618928Y-98528571D01*
X160666547Y-98433333D01*
X160761785Y-98385714D01*
X160952261Y-98385714D01*
X161047500Y-98433333D01*
X160618928Y-99004761D02*
X160714166Y-99052380D01*
X160952261Y-99052380D01*
X161047500Y-99004761D01*
X161095119Y-98909523D01*
X161095119Y-98814285D01*
X161047500Y-98719047D01*
X160952261Y-98671428D01*
X160714166Y-98671428D01*
X160618928Y-98623809D01*
X160285595Y-98385714D02*
X159904642Y-98385714D01*
X160142738Y-98052380D02*
X160142738Y-98909523D01*
X160095119Y-99004761D01*
X159999880Y-99052380D01*
X159904642Y-99052380D01*
X159142738Y-99004761D02*
X159237976Y-99052380D01*
X159428452Y-99052380D01*
X159523690Y-99004761D01*
X159571309Y-98957142D01*
X159618928Y-98861904D01*
X159618928Y-98576190D01*
X159571309Y-98480952D01*
X159523690Y-98433333D01*
X159428452Y-98385714D01*
X159237976Y-98385714D01*
X159142738Y-98433333D01*
X158714166Y-99052380D02*
X158714166Y-98052380D01*
X158285595Y-99052380D02*
X158285595Y-98528571D01*
X158333214Y-98433333D01*
X158428452Y-98385714D01*
X158571309Y-98385714D01*
X158666547Y-98433333D01*
X158714166Y-98480952D01*
X161333214Y-96457142D02*
X161380833Y-96504761D01*
X161523690Y-96552380D01*
X161618928Y-96552380D01*
X161761785Y-96504761D01*
X161857023Y-96409523D01*
X161904642Y-96314285D01*
X161952261Y-96123809D01*
X161952261Y-95980952D01*
X161904642Y-95790476D01*
X161857023Y-95695238D01*
X161761785Y-95600000D01*
X161618928Y-95552380D01*
X161523690Y-95552380D01*
X161380833Y-95600000D01*
X161333214Y-95647619D01*
X160761785Y-96552380D02*
X160857023Y-96504761D01*
X160904642Y-96409523D01*
X160904642Y-95552380D01*
X160237976Y-96552380D02*
X160333214Y-96504761D01*
X160380833Y-96457142D01*
X160428452Y-96361904D01*
X160428452Y-96076190D01*
X160380833Y-95980952D01*
X160333214Y-95933333D01*
X160237976Y-95885714D01*
X160095119Y-95885714D01*
X159999880Y-95933333D01*
X159952261Y-95980952D01*
X159904642Y-96076190D01*
X159904642Y-96361904D01*
X159952261Y-96457142D01*
X159999880Y-96504761D01*
X160095119Y-96552380D01*
X160237976Y-96552380D01*
X159047500Y-96504761D02*
X159142738Y-96552380D01*
X159333214Y-96552380D01*
X159428452Y-96504761D01*
X159476071Y-96457142D01*
X159523690Y-96361904D01*
X159523690Y-96076190D01*
X159476071Y-95980952D01*
X159428452Y-95933333D01*
X159333214Y-95885714D01*
X159142738Y-95885714D01*
X159047500Y-95933333D01*
X158618928Y-96552380D02*
X158618928Y-95552380D01*
X158523690Y-96171428D02*
X158237976Y-96552380D01*
X158237976Y-95885714D02*
X158618928Y-96266666D01*
X160523690Y-93052380D02*
X160190357Y-94052380D01*
X159857023Y-93052380D01*
X159095119Y-94004761D02*
X159190357Y-94052380D01*
X159380833Y-94052380D01*
X159476071Y-94004761D01*
X159523690Y-93957142D01*
X159571309Y-93861904D01*
X159571309Y-93576190D01*
X159523690Y-93480952D01*
X159476071Y-93433333D01*
X159380833Y-93385714D01*
X159190357Y-93385714D01*
X159095119Y-93433333D01*
X158237976Y-94004761D02*
X158333214Y-94052380D01*
X158523690Y-94052380D01*
X158618928Y-94004761D01*
X158666547Y-93957142D01*
X158714166Y-93861904D01*
X158714166Y-93576190D01*
X158666547Y-93480952D01*
X158618928Y-93433333D01*
X158523690Y-93385714D01*
X158333214Y-93385714D01*
X158237976Y-93433333D01*
M02*
