M48
; DRILL file {KiCad (5.1.5-0-10_14)} date 2020 November 03, Tuesday 15:19:50
; FORMAT={-:-/ absolute / inch / decimal}
; #@! TF.CreationDate,2020-11-03T15:19:50-05:00
; #@! TF.GenerationSoftware,Kicad,Pcbnew,(5.1.5-0-10_14)
FMAT,2
INCH
T1C0.0098
T2C0.0157
T3C0.0394
T4C0.0429
%
G90
G05
T1
X6.2299Y-3.9713
X6.2193Y-3.9713
T2
X5.4565Y-3.857
X5.4565Y-3.9867
X5.4599Y-3.7273
X5.5654Y-3.729
X5.5654Y-3.9832
X5.6744Y-3.729
X5.6744Y-3.9832
X5.8041Y-3.9002
X5.8525Y-3.6892
X5.8663Y-3.4212
X5.9442Y-3.627
X5.9494Y-4.3326
X5.9511Y-4.2184
X5.9632Y-3.3347
X5.9684Y-3.9625
X6.0341Y-3.8812
X6.0358Y-3.5768
X6.0427Y-4.1164
X6.1188Y-3.4869
X6.175Y-4.3326
X6.1759Y-4.2184
X6.178Y-3.7402
X6.2088Y-3.6287
X6.3696Y-4.5314
X6.4007Y-4.2184
X6.4007Y-4.3326
X6.4249Y-3.6633
X6.4716Y-4.4571
X6.5339Y-3.6633
X6.5841Y-4.3827
X6.7103Y-3.831
X6.712Y-3.9677
X6.712Y-4.1026
T3
X6.1299Y-3.8713
X6.1299Y-3.9713
X6.1299Y-4.0713
X6.2299Y-3.8713
X6.2299Y-4.0713
X6.1406Y-3.8925
X6.1406Y-3.9713
X6.1406Y-4.05
X6.2193Y-3.8925
X6.2193Y-4.05
T4
X5.7299Y-3.3354
X5.7299Y-3.4929
X5.7299Y-3.6504
X5.7299Y-3.8079
X5.7299Y-4.0638
X5.7299Y-4.2213
X5.7299Y-4.3787
X6.3181Y-3.6524
X6.3181Y-3.8098
X6.3181Y-3.9673
X6.3181Y-4.1248
X6.4756Y-3.8098
X6.4756Y-3.9673
X6.4756Y-4.1248
T0
M30
