M48
; DRILL file {KiCad (5.1.5-0-10_14)} date 2020 November 03, Tuesday 15:19:26
; FORMAT={-:-/ absolute / inch / decimal}
; #@! TF.CreationDate,2020-11-03T15:19:26-05:00
; #@! TF.GenerationSoftware,Kicad,Pcbnew,(5.1.5-0-10_14)
FMAT,2
INCH
T1C0.0157
T2C0.0394
T3C0.0429
%
G90
G05
T1
X5.6121Y-3.7422
X5.679Y-3.2823
X5.7668Y-3.9362
X5.7962Y-3.3774
X5.8513Y-4.2634
X5.9053Y-3.5419
X5.9062Y-4.1424
X5.9119Y-3.7049
X6.0892Y-3.3442
X6.1524Y-3.5729
X6.2437Y-3.9542
X6.2891Y-3.474
X6.3245Y-3.9158
X6.3305Y-4.2088
X6.3709Y-3.6914
X6.3886Y-3.5562
X6.3951Y-3.2317
X6.4903Y-3.3853
X6.5016Y-3.6982
X6.7819Y-3.2363
X6.7934Y-3.7051
T2
X6.0701Y-3.6835
X6.0701Y-3.7835
X6.0701Y-3.8835
X6.1701Y-3.6835
X6.1701Y-3.7835
X6.1701Y-3.8835
X6.0807Y-3.7047
X6.0807Y-3.7835
X6.0807Y-3.8622
X6.1594Y-3.7047
X6.1594Y-3.7835
X6.1594Y-3.8622
T3
X5.8307Y-3.4661
X5.8307Y-3.6236
X5.8307Y-3.7811
X5.9882Y-3.4661
X5.9882Y-3.6236
X5.9882Y-3.7811
X5.9882Y-3.9386
X6.5732Y-3.1504
X6.5732Y-3.3079
X6.5732Y-3.4654
X6.5732Y-3.6228
X6.5732Y-3.8787
X6.5732Y-4.0362
X6.5732Y-4.1937
T0
M30
