G04 #@! TF.GenerationSoftware,KiCad,Pcbnew,(5.1.5-0-10_14)*
G04 #@! TF.CreationDate,2020-11-03T15:19:22-05:00*
G04 #@! TF.ProjectId,FC_Rear_Port_2P,46435f52-6561-4725-9f50-6f72745f3250,rev?*
G04 #@! TF.SameCoordinates,Original*
G04 #@! TF.FileFunction,Soldermask,Top*
G04 #@! TF.FilePolarity,Negative*
%FSLAX46Y46*%
G04 Gerber Fmt 4.6, Leading zero omitted, Abs format (unit mm)*
G04 Created by KiCad (PCBNEW (5.1.5-0-10_14)) date 2020-11-03 15:19:22*
%MOMM*%
%LPD*%
G04 APERTURE LIST*
%ADD10C,0.150000*%
%ADD11C,0.200000*%
%ADD12C,0.100000*%
G04 APERTURE END LIST*
D10*
X147542095Y-74756571D02*
X147208761Y-74756571D01*
X147208761Y-75280380D02*
X147208761Y-74280380D01*
X147684952Y-74280380D01*
X148494476Y-75280380D02*
X148494476Y-74756571D01*
X148446857Y-74661333D01*
X148351619Y-74613714D01*
X148161142Y-74613714D01*
X148065904Y-74661333D01*
X148494476Y-75232761D02*
X148399238Y-75280380D01*
X148161142Y-75280380D01*
X148065904Y-75232761D01*
X148018285Y-75137523D01*
X148018285Y-75042285D01*
X148065904Y-74947047D01*
X148161142Y-74899428D01*
X148399238Y-74899428D01*
X148494476Y-74851809D01*
X148970666Y-75280380D02*
X148970666Y-74613714D01*
X148970666Y-74708952D02*
X149018285Y-74661333D01*
X149113523Y-74613714D01*
X149256380Y-74613714D01*
X149351619Y-74661333D01*
X149399238Y-74756571D01*
X149399238Y-75280380D01*
X149399238Y-74756571D02*
X149446857Y-74661333D01*
X149542095Y-74613714D01*
X149684952Y-74613714D01*
X149780190Y-74661333D01*
X149827809Y-74756571D01*
X149827809Y-75280380D01*
X150304000Y-75280380D02*
X150304000Y-74613714D01*
X150304000Y-74280380D02*
X150256380Y-74328000D01*
X150304000Y-74375619D01*
X150351619Y-74328000D01*
X150304000Y-74280380D01*
X150304000Y-74375619D01*
X151208761Y-75232761D02*
X151113523Y-75280380D01*
X150923047Y-75280380D01*
X150827809Y-75232761D01*
X150780190Y-75185142D01*
X150732571Y-75089904D01*
X150732571Y-74804190D01*
X150780190Y-74708952D01*
X150827809Y-74661333D01*
X150923047Y-74613714D01*
X151113523Y-74613714D01*
X151208761Y-74661333D01*
X151780190Y-75280380D02*
X151684952Y-75232761D01*
X151637333Y-75185142D01*
X151589714Y-75089904D01*
X151589714Y-74804190D01*
X151637333Y-74708952D01*
X151684952Y-74661333D01*
X151780190Y-74613714D01*
X151923047Y-74613714D01*
X152018285Y-74661333D01*
X152065904Y-74708952D01*
X152113523Y-74804190D01*
X152113523Y-75089904D01*
X152065904Y-75185142D01*
X152018285Y-75232761D01*
X151923047Y-75280380D01*
X151780190Y-75280380D01*
X152542095Y-75280380D02*
X152542095Y-74613714D01*
X152542095Y-74708952D02*
X152589714Y-74661333D01*
X152684952Y-74613714D01*
X152827809Y-74613714D01*
X152923047Y-74661333D01*
X152970666Y-74756571D01*
X152970666Y-75280380D01*
X152970666Y-74756571D02*
X153018285Y-74661333D01*
X153113523Y-74613714D01*
X153256380Y-74613714D01*
X153351619Y-74661333D01*
X153399238Y-74756571D01*
X153399238Y-75280380D01*
X147494476Y-76930380D02*
X147161142Y-76454190D01*
X146923047Y-76930380D02*
X146923047Y-75930380D01*
X147304000Y-75930380D01*
X147399238Y-75978000D01*
X147446857Y-76025619D01*
X147494476Y-76120857D01*
X147494476Y-76263714D01*
X147446857Y-76358952D01*
X147399238Y-76406571D01*
X147304000Y-76454190D01*
X146923047Y-76454190D01*
X148304000Y-76882761D02*
X148208761Y-76930380D01*
X148018285Y-76930380D01*
X147923047Y-76882761D01*
X147875428Y-76787523D01*
X147875428Y-76406571D01*
X147923047Y-76311333D01*
X148018285Y-76263714D01*
X148208761Y-76263714D01*
X148304000Y-76311333D01*
X148351619Y-76406571D01*
X148351619Y-76501809D01*
X147875428Y-76597047D01*
X149208761Y-76930380D02*
X149208761Y-76406571D01*
X149161142Y-76311333D01*
X149065904Y-76263714D01*
X148875428Y-76263714D01*
X148780190Y-76311333D01*
X149208761Y-76882761D02*
X149113523Y-76930380D01*
X148875428Y-76930380D01*
X148780190Y-76882761D01*
X148732571Y-76787523D01*
X148732571Y-76692285D01*
X148780190Y-76597047D01*
X148875428Y-76549428D01*
X149113523Y-76549428D01*
X149208761Y-76501809D01*
X149684952Y-76930380D02*
X149684952Y-76263714D01*
X149684952Y-76454190D02*
X149732571Y-76358952D01*
X149780190Y-76311333D01*
X149875428Y-76263714D01*
X149970666Y-76263714D01*
X151065904Y-76930380D02*
X151065904Y-75930380D01*
X151446857Y-75930380D01*
X151542095Y-75978000D01*
X151589714Y-76025619D01*
X151637333Y-76120857D01*
X151637333Y-76263714D01*
X151589714Y-76358952D01*
X151542095Y-76406571D01*
X151446857Y-76454190D01*
X151065904Y-76454190D01*
X152208761Y-76930380D02*
X152113523Y-76882761D01*
X152065904Y-76835142D01*
X152018285Y-76739904D01*
X152018285Y-76454190D01*
X152065904Y-76358952D01*
X152113523Y-76311333D01*
X152208761Y-76263714D01*
X152351619Y-76263714D01*
X152446857Y-76311333D01*
X152494476Y-76358952D01*
X152542095Y-76454190D01*
X152542095Y-76739904D01*
X152494476Y-76835142D01*
X152446857Y-76882761D01*
X152351619Y-76930380D01*
X152208761Y-76930380D01*
X152970666Y-76930380D02*
X152970666Y-76263714D01*
X152970666Y-76454190D02*
X153018285Y-76358952D01*
X153065904Y-76311333D01*
X153161142Y-76263714D01*
X153256380Y-76263714D01*
X153446857Y-76263714D02*
X153827809Y-76263714D01*
X153589714Y-75930380D02*
X153589714Y-76787523D01*
X153637333Y-76882761D01*
X153732571Y-76930380D01*
X153827809Y-76930380D01*
X149518285Y-77675619D02*
X149565904Y-77628000D01*
X149661142Y-77580380D01*
X149899238Y-77580380D01*
X149994476Y-77628000D01*
X150042095Y-77675619D01*
X150089714Y-77770857D01*
X150089714Y-77866095D01*
X150042095Y-78008952D01*
X149470666Y-78580380D01*
X150089714Y-78580380D01*
X150518285Y-78580380D02*
X150518285Y-77580380D01*
X150899238Y-77580380D01*
X150994476Y-77628000D01*
X151042095Y-77675619D01*
X151089714Y-77770857D01*
X151089714Y-77913714D01*
X151042095Y-78008952D01*
X150994476Y-78056571D01*
X150899238Y-78104190D01*
X150518285Y-78104190D01*
D11*
X163044571Y-109854380D02*
X163044571Y-110568666D01*
X162996952Y-110711523D01*
X162901714Y-110806761D01*
X162758857Y-110854380D01*
X162663619Y-110854380D01*
X163901714Y-110806761D02*
X163806476Y-110854380D01*
X163616000Y-110854380D01*
X163520761Y-110806761D01*
X163473142Y-110711523D01*
X163473142Y-110330571D01*
X163520761Y-110235333D01*
X163616000Y-110187714D01*
X163806476Y-110187714D01*
X163901714Y-110235333D01*
X163949333Y-110330571D01*
X163949333Y-110425809D01*
X163473142Y-110521047D01*
X164235047Y-110187714D02*
X164616000Y-110187714D01*
X164377904Y-110854380D02*
X164377904Y-109997238D01*
X164425523Y-109902000D01*
X164520761Y-109854380D01*
X164616000Y-109854380D01*
X164806476Y-110187714D02*
X165187428Y-110187714D01*
X164949333Y-110854380D02*
X164949333Y-109997238D01*
X164996952Y-109902000D01*
X165092190Y-109854380D01*
X165187428Y-109854380D01*
X166854095Y-110759142D02*
X166806476Y-110806761D01*
X166663619Y-110854380D01*
X166568380Y-110854380D01*
X166425523Y-110806761D01*
X166330285Y-110711523D01*
X166282666Y-110616285D01*
X166235047Y-110425809D01*
X166235047Y-110282952D01*
X166282666Y-110092476D01*
X166330285Y-109997238D01*
X166425523Y-109902000D01*
X166568380Y-109854380D01*
X166663619Y-109854380D01*
X166806476Y-109902000D01*
X166854095Y-109949619D01*
X167282666Y-110854380D02*
X167282666Y-109854380D01*
X167711238Y-110854380D02*
X167711238Y-110330571D01*
X167663619Y-110235333D01*
X167568380Y-110187714D01*
X167425523Y-110187714D01*
X167330285Y-110235333D01*
X167282666Y-110282952D01*
X168568380Y-110806761D02*
X168473142Y-110854380D01*
X168282666Y-110854380D01*
X168187428Y-110806761D01*
X168139809Y-110711523D01*
X168139809Y-110330571D01*
X168187428Y-110235333D01*
X168282666Y-110187714D01*
X168473142Y-110187714D01*
X168568380Y-110235333D01*
X168616000Y-110330571D01*
X168616000Y-110425809D01*
X168139809Y-110521047D01*
X169044571Y-110187714D02*
X169044571Y-110854380D01*
X169044571Y-110282952D02*
X169092190Y-110235333D01*
X169187428Y-110187714D01*
X169330285Y-110187714D01*
X169425523Y-110235333D01*
X169473142Y-110330571D01*
X169473142Y-110854380D01*
X164401714Y-111649619D02*
X164449333Y-111602000D01*
X164544571Y-111554380D01*
X164782666Y-111554380D01*
X164877904Y-111602000D01*
X164925523Y-111649619D01*
X164973142Y-111744857D01*
X164973142Y-111840095D01*
X164925523Y-111982952D01*
X164354095Y-112554380D01*
X164973142Y-112554380D01*
X165592190Y-111554380D02*
X165687428Y-111554380D01*
X165782666Y-111602000D01*
X165830285Y-111649619D01*
X165877904Y-111744857D01*
X165925523Y-111935333D01*
X165925523Y-112173428D01*
X165877904Y-112363904D01*
X165830285Y-112459142D01*
X165782666Y-112506761D01*
X165687428Y-112554380D01*
X165592190Y-112554380D01*
X165496952Y-112506761D01*
X165449333Y-112459142D01*
X165401714Y-112363904D01*
X165354095Y-112173428D01*
X165354095Y-111935333D01*
X165401714Y-111744857D01*
X165449333Y-111649619D01*
X165496952Y-111602000D01*
X165592190Y-111554380D01*
X166306476Y-111649619D02*
X166354095Y-111602000D01*
X166449333Y-111554380D01*
X166687428Y-111554380D01*
X166782666Y-111602000D01*
X166830285Y-111649619D01*
X166877904Y-111744857D01*
X166877904Y-111840095D01*
X166830285Y-111982952D01*
X166258857Y-112554380D01*
X166877904Y-112554380D01*
X167496952Y-111554380D02*
X167592190Y-111554380D01*
X167687428Y-111602000D01*
X167735047Y-111649619D01*
X167782666Y-111744857D01*
X167830285Y-111935333D01*
X167830285Y-112173428D01*
X167782666Y-112363904D01*
X167735047Y-112459142D01*
X167687428Y-112506761D01*
X167592190Y-112554380D01*
X167496952Y-112554380D01*
X167401714Y-112506761D01*
X167354095Y-112459142D01*
X167306476Y-112363904D01*
X167258857Y-112173428D01*
X167258857Y-111935333D01*
X167306476Y-111744857D01*
X167354095Y-111649619D01*
X167401714Y-111602000D01*
X167496952Y-111554380D01*
D12*
G36*
X167278318Y-105470648D02*
G01*
X167403555Y-105522523D01*
X167476920Y-105552912D01*
X167655657Y-105672340D01*
X167807660Y-105824343D01*
X167927088Y-106003080D01*
X168009352Y-106201683D01*
X168051290Y-106412517D01*
X168051290Y-106627483D01*
X168009352Y-106838317D01*
X167927088Y-107036920D01*
X167807660Y-107215657D01*
X167655657Y-107367660D01*
X167476920Y-107487088D01*
X167403555Y-107517477D01*
X167278318Y-107569352D01*
X167067485Y-107611290D01*
X166852515Y-107611290D01*
X166641682Y-107569352D01*
X166516445Y-107517477D01*
X166443080Y-107487088D01*
X166264343Y-107367660D01*
X166112340Y-107215657D01*
X165992912Y-107036920D01*
X165910648Y-106838317D01*
X165868710Y-106627483D01*
X165868710Y-106412517D01*
X165910648Y-106201683D01*
X165992912Y-106003080D01*
X166112340Y-105824343D01*
X166264343Y-105672340D01*
X166443080Y-105552912D01*
X166516445Y-105522523D01*
X166641682Y-105470648D01*
X166852515Y-105428710D01*
X167067485Y-105428710D01*
X167278318Y-105470648D01*
G37*
G36*
X167278318Y-101470648D02*
G01*
X167403555Y-101522523D01*
X167476920Y-101552912D01*
X167655657Y-101672340D01*
X167807660Y-101824343D01*
X167927088Y-102003080D01*
X168009352Y-102201683D01*
X168051290Y-102412517D01*
X168051290Y-102627483D01*
X168009352Y-102838317D01*
X167927088Y-103036920D01*
X167807660Y-103215657D01*
X167655657Y-103367660D01*
X167476920Y-103487088D01*
X167403555Y-103517477D01*
X167278318Y-103569352D01*
X167067485Y-103611290D01*
X166852515Y-103611290D01*
X166641682Y-103569352D01*
X166516445Y-103517477D01*
X166443080Y-103487088D01*
X166264343Y-103367660D01*
X166112340Y-103215657D01*
X165992912Y-103036920D01*
X165910648Y-102838317D01*
X165868710Y-102627483D01*
X165868710Y-102412517D01*
X165910648Y-102201683D01*
X165992912Y-102003080D01*
X166112340Y-101824343D01*
X166264343Y-101672340D01*
X166443080Y-101552912D01*
X166516445Y-101522523D01*
X166641682Y-101470648D01*
X166852515Y-101428710D01*
X167067485Y-101428710D01*
X167278318Y-101470648D01*
G37*
G36*
X152418318Y-98990648D02*
G01*
X152530020Y-99036917D01*
X152616920Y-99072912D01*
X152795657Y-99192340D01*
X152947660Y-99344343D01*
X153067088Y-99523080D01*
X153149352Y-99721683D01*
X153191290Y-99932517D01*
X153191290Y-100147483D01*
X153149352Y-100358317D01*
X153067088Y-100556920D01*
X152947660Y-100735657D01*
X152795657Y-100887660D01*
X152616920Y-101007088D01*
X152543555Y-101037477D01*
X152418318Y-101089352D01*
X152207485Y-101131290D01*
X151992515Y-101131290D01*
X151781682Y-101089352D01*
X151656445Y-101037477D01*
X151583080Y-101007088D01*
X151404343Y-100887660D01*
X151252340Y-100735657D01*
X151132912Y-100556920D01*
X151050648Y-100358317D01*
X151008710Y-100147483D01*
X151008710Y-99932517D01*
X151050648Y-99721683D01*
X151132912Y-99523080D01*
X151252340Y-99344343D01*
X151404343Y-99192340D01*
X151583080Y-99072912D01*
X151669980Y-99036917D01*
X151781682Y-98990648D01*
X151992515Y-98948710D01*
X152207485Y-98948710D01*
X152418318Y-98990648D01*
G37*
G36*
X156669144Y-97377582D02*
G01*
X156805867Y-97434215D01*
X156805869Y-97434216D01*
X156928919Y-97516435D01*
X157033565Y-97621081D01*
X157093413Y-97710651D01*
X157093572Y-97710845D01*
X157093766Y-97711004D01*
X157093989Y-97711122D01*
X157194289Y-97752668D01*
X157358285Y-97862247D01*
X157497753Y-98001715D01*
X157607332Y-98165711D01*
X157622232Y-98201683D01*
X157682811Y-98347934D01*
X157721290Y-98541379D01*
X157721290Y-98738621D01*
X157682811Y-98932066D01*
X157607332Y-99114289D01*
X157497753Y-99278285D01*
X157358285Y-99417753D01*
X157194289Y-99527332D01*
X157092843Y-99569352D01*
X157012066Y-99602811D01*
X156818621Y-99641290D01*
X156621379Y-99641290D01*
X156427934Y-99602811D01*
X156347157Y-99569352D01*
X156245711Y-99527332D01*
X156081715Y-99417753D01*
X155942247Y-99278285D01*
X155832668Y-99114289D01*
X155757189Y-98932066D01*
X155718710Y-98738621D01*
X155718710Y-98541379D01*
X155751376Y-98377153D01*
X155751401Y-98376903D01*
X155751376Y-98376653D01*
X155751303Y-98376413D01*
X155727582Y-98319144D01*
X155698710Y-98173998D01*
X155698710Y-98026002D01*
X155727582Y-97880856D01*
X155784215Y-97744133D01*
X155866435Y-97621081D01*
X155971081Y-97516435D01*
X156094131Y-97434216D01*
X156094133Y-97434215D01*
X156230856Y-97377582D01*
X156376002Y-97348710D01*
X156523998Y-97348710D01*
X156669144Y-97377582D01*
G37*
G36*
X154669144Y-97377582D02*
G01*
X154805867Y-97434215D01*
X154805869Y-97434216D01*
X154928919Y-97516435D01*
X155033565Y-97621081D01*
X155115785Y-97744133D01*
X155172418Y-97880856D01*
X155201290Y-98026002D01*
X155201290Y-98173998D01*
X155172418Y-98319144D01*
X155148697Y-98376413D01*
X155148624Y-98376653D01*
X155148599Y-98376903D01*
X155148624Y-98377153D01*
X155181290Y-98541379D01*
X155181290Y-98738621D01*
X155142811Y-98932066D01*
X155067332Y-99114289D01*
X154957753Y-99278285D01*
X154818285Y-99417753D01*
X154654289Y-99527332D01*
X154552843Y-99569352D01*
X154472066Y-99602811D01*
X154278621Y-99641290D01*
X154081379Y-99641290D01*
X153887934Y-99602811D01*
X153807157Y-99569352D01*
X153705711Y-99527332D01*
X153541715Y-99417753D01*
X153402247Y-99278285D01*
X153292668Y-99114289D01*
X153217189Y-98932066D01*
X153178710Y-98738621D01*
X153178710Y-98541379D01*
X153217189Y-98347934D01*
X153277768Y-98201683D01*
X153292668Y-98165711D01*
X153402247Y-98001715D01*
X153541715Y-97862247D01*
X153705711Y-97752668D01*
X153806011Y-97711122D01*
X153806234Y-97711004D01*
X153806428Y-97710845D01*
X153806587Y-97710651D01*
X153866435Y-97621081D01*
X153971081Y-97516435D01*
X154094131Y-97434216D01*
X154094133Y-97434215D01*
X154230856Y-97377582D01*
X154376002Y-97348710D01*
X154523998Y-97348710D01*
X154669144Y-97377582D01*
G37*
G36*
X167278318Y-97470648D02*
G01*
X167388857Y-97516435D01*
X167476920Y-97552912D01*
X167655657Y-97672340D01*
X167807660Y-97824343D01*
X167927088Y-98003080D01*
X167936583Y-98026004D01*
X168009352Y-98201682D01*
X168051290Y-98412515D01*
X168051290Y-98627485D01*
X168009352Y-98838318D01*
X167970520Y-98932066D01*
X167927088Y-99036920D01*
X167807660Y-99215657D01*
X167655657Y-99367660D01*
X167476920Y-99487088D01*
X167403555Y-99517477D01*
X167278318Y-99569352D01*
X167067485Y-99611290D01*
X166852515Y-99611290D01*
X166641682Y-99569352D01*
X166516445Y-99517477D01*
X166443080Y-99487088D01*
X166264343Y-99367660D01*
X166112340Y-99215657D01*
X165992912Y-99036920D01*
X165949480Y-98932066D01*
X165910648Y-98838318D01*
X165868710Y-98627485D01*
X165868710Y-98412515D01*
X165910648Y-98201682D01*
X165983417Y-98026004D01*
X165992912Y-98003080D01*
X166112340Y-97824343D01*
X166264343Y-97672340D01*
X166443080Y-97552912D01*
X166531143Y-97516435D01*
X166641682Y-97470648D01*
X166852515Y-97428710D01*
X167067485Y-97428710D01*
X167278318Y-97470648D01*
G37*
G36*
X148418318Y-94990648D02*
G01*
X148543555Y-95042523D01*
X148616920Y-95072912D01*
X148795657Y-95192340D01*
X148947660Y-95344343D01*
X149067088Y-95523080D01*
X149067089Y-95523083D01*
X149149352Y-95721682D01*
X149191290Y-95932515D01*
X149191290Y-96147485D01*
X149149352Y-96358318D01*
X149108945Y-96455869D01*
X149067088Y-96556920D01*
X148947660Y-96735657D01*
X148795657Y-96887660D01*
X148616920Y-97007088D01*
X148543555Y-97037477D01*
X148418318Y-97089352D01*
X148207485Y-97131290D01*
X147992515Y-97131290D01*
X147781682Y-97089352D01*
X147656445Y-97037477D01*
X147583080Y-97007088D01*
X147404343Y-96887660D01*
X147252340Y-96735657D01*
X147132912Y-96556920D01*
X147091055Y-96455869D01*
X147050648Y-96358318D01*
X147008710Y-96147485D01*
X147008710Y-95932515D01*
X147050648Y-95721682D01*
X147132911Y-95523083D01*
X147132912Y-95523080D01*
X147252340Y-95344343D01*
X147404343Y-95192340D01*
X147583080Y-95072912D01*
X147656445Y-95042523D01*
X147781682Y-94990648D01*
X147992515Y-94948710D01*
X148207485Y-94948710D01*
X148418318Y-94990648D01*
G37*
G36*
X157012066Y-95137189D02*
G01*
X157194289Y-95212668D01*
X157358285Y-95322247D01*
X157497753Y-95461715D01*
X157607332Y-95625711D01*
X157682811Y-95807934D01*
X157721290Y-96001379D01*
X157721290Y-96198621D01*
X157706019Y-96275391D01*
X157682811Y-96392066D01*
X157607332Y-96574289D01*
X157497753Y-96738285D01*
X157358285Y-96877753D01*
X157194289Y-96987332D01*
X157146591Y-97007089D01*
X157012066Y-97062811D01*
X156818621Y-97101290D01*
X156621379Y-97101290D01*
X156427934Y-97062811D01*
X156293409Y-97007089D01*
X156245711Y-96987332D01*
X156081715Y-96877753D01*
X155942247Y-96738285D01*
X155832668Y-96574289D01*
X155757189Y-96392066D01*
X155756660Y-96389408D01*
X155756587Y-96389168D01*
X155727582Y-96319144D01*
X155698710Y-96173998D01*
X155698710Y-96026002D01*
X155727582Y-95880856D01*
X155756587Y-95810832D01*
X155756660Y-95810592D01*
X155757189Y-95807934D01*
X155832668Y-95625711D01*
X155942247Y-95461715D01*
X156081715Y-95322247D01*
X156245711Y-95212668D01*
X156427934Y-95137189D01*
X156621379Y-95098710D01*
X156818621Y-95098710D01*
X157012066Y-95137189D01*
G37*
G36*
X152243968Y-95098710D02*
G01*
X152377481Y-95125267D01*
X152550605Y-95196978D01*
X152706412Y-95301085D01*
X152838915Y-95433588D01*
X152943022Y-95589395D01*
X153014733Y-95762519D01*
X153038271Y-95880856D01*
X153051290Y-95946304D01*
X153051290Y-96133696D01*
X153048547Y-96147485D01*
X153014733Y-96317481D01*
X152943022Y-96490605D01*
X152838915Y-96646412D01*
X152706412Y-96778915D01*
X152550605Y-96883022D01*
X152377481Y-96954733D01*
X152254679Y-96979159D01*
X152193696Y-96991290D01*
X152006304Y-96991290D01*
X151945321Y-96979159D01*
X151822519Y-96954733D01*
X151649395Y-96883022D01*
X151493588Y-96778915D01*
X151361085Y-96646412D01*
X151256978Y-96490605D01*
X151185267Y-96317481D01*
X151151453Y-96147485D01*
X151148710Y-96133696D01*
X151148710Y-95946304D01*
X151161729Y-95880856D01*
X151185267Y-95762519D01*
X151256978Y-95589395D01*
X151361085Y-95433588D01*
X151493588Y-95301085D01*
X151649395Y-95196978D01*
X151822519Y-95125267D01*
X151956032Y-95098710D01*
X152006304Y-95088710D01*
X152193696Y-95088710D01*
X152243968Y-95098710D01*
G37*
G36*
X154669144Y-95377582D02*
G01*
X154804353Y-95433588D01*
X154805869Y-95434216D01*
X154928919Y-95516435D01*
X155033565Y-95621081D01*
X155115785Y-95744133D01*
X155172418Y-95880856D01*
X155201290Y-96026002D01*
X155201290Y-96173998D01*
X155172418Y-96319144D01*
X155145215Y-96384817D01*
X155115784Y-96455869D01*
X155033565Y-96578919D01*
X154928919Y-96683565D01*
X154805869Y-96765784D01*
X154805868Y-96765785D01*
X154805867Y-96765785D01*
X154669144Y-96822418D01*
X154523998Y-96851290D01*
X154376002Y-96851290D01*
X154230856Y-96822418D01*
X154094133Y-96765785D01*
X154094132Y-96765785D01*
X154094131Y-96765784D01*
X153971081Y-96683565D01*
X153938365Y-96650849D01*
X153938171Y-96650690D01*
X153937949Y-96650572D01*
X153895184Y-96632858D01*
X153796700Y-96567053D01*
X153712947Y-96483300D01*
X153647142Y-96384816D01*
X153601817Y-96275391D01*
X153578710Y-96159224D01*
X153578710Y-96040776D01*
X153601817Y-95924609D01*
X153647142Y-95815184D01*
X153712947Y-95716700D01*
X153796700Y-95632947D01*
X153895184Y-95567142D01*
X153937949Y-95549428D01*
X153938171Y-95549310D01*
X153938365Y-95549151D01*
X153971081Y-95516435D01*
X154094131Y-95434216D01*
X154095647Y-95433588D01*
X154230856Y-95377582D01*
X154376002Y-95348710D01*
X154523998Y-95348710D01*
X154669144Y-95377582D01*
G37*
G36*
X154472066Y-92597189D02*
G01*
X154654289Y-92672668D01*
X154818285Y-92782247D01*
X154957753Y-92921715D01*
X155067332Y-93085711D01*
X155067333Y-93085714D01*
X155142811Y-93267934D01*
X155181290Y-93461379D01*
X155181290Y-93658621D01*
X155148624Y-93822847D01*
X155148599Y-93823097D01*
X155148624Y-93823347D01*
X155148697Y-93823587D01*
X155172418Y-93880856D01*
X155201290Y-94026002D01*
X155201290Y-94173998D01*
X155172418Y-94319144D01*
X155119320Y-94447332D01*
X155115784Y-94455869D01*
X155033565Y-94578919D01*
X154928919Y-94683565D01*
X154805869Y-94765784D01*
X154805868Y-94765785D01*
X154805867Y-94765785D01*
X154669144Y-94822418D01*
X154523998Y-94851290D01*
X154376002Y-94851290D01*
X154230856Y-94822418D01*
X154094133Y-94765785D01*
X154094132Y-94765785D01*
X154094131Y-94765784D01*
X153971081Y-94683565D01*
X153866435Y-94578919D01*
X153806584Y-94489346D01*
X153806428Y-94489155D01*
X153806234Y-94488996D01*
X153806012Y-94488878D01*
X153777479Y-94477059D01*
X153705711Y-94447332D01*
X153541715Y-94337753D01*
X153402247Y-94198285D01*
X153292668Y-94034289D01*
X153217189Y-93852066D01*
X153211377Y-93822847D01*
X153178710Y-93658621D01*
X153178710Y-93461379D01*
X153217189Y-93267934D01*
X153292667Y-93085714D01*
X153292668Y-93085711D01*
X153402247Y-92921715D01*
X153541715Y-92782247D01*
X153705711Y-92672668D01*
X153887934Y-92597189D01*
X154081379Y-92558710D01*
X154278621Y-92558710D01*
X154472066Y-92597189D01*
G37*
G36*
X157012066Y-92597189D02*
G01*
X157194289Y-92672668D01*
X157358285Y-92782247D01*
X157497753Y-92921715D01*
X157607332Y-93085711D01*
X157607333Y-93085714D01*
X157682811Y-93267934D01*
X157721290Y-93461379D01*
X157721290Y-93658621D01*
X157688623Y-93822847D01*
X157682811Y-93852066D01*
X157607332Y-94034289D01*
X157497753Y-94198285D01*
X157358285Y-94337753D01*
X157194289Y-94447332D01*
X157122521Y-94477059D01*
X157093988Y-94488878D01*
X157093766Y-94488996D01*
X157093572Y-94489155D01*
X157093416Y-94489346D01*
X157033565Y-94578919D01*
X156928919Y-94683565D01*
X156805869Y-94765784D01*
X156805868Y-94765785D01*
X156805867Y-94765785D01*
X156669144Y-94822418D01*
X156523998Y-94851290D01*
X156376002Y-94851290D01*
X156230856Y-94822418D01*
X156094133Y-94765785D01*
X156094132Y-94765785D01*
X156094131Y-94765784D01*
X155971081Y-94683565D01*
X155866435Y-94578919D01*
X155784216Y-94455869D01*
X155780680Y-94447332D01*
X155727582Y-94319144D01*
X155698710Y-94173998D01*
X155698710Y-94026002D01*
X155727582Y-93880856D01*
X155751303Y-93823587D01*
X155751376Y-93823347D01*
X155751401Y-93823097D01*
X155751376Y-93822847D01*
X155718710Y-93658621D01*
X155718710Y-93461379D01*
X155757189Y-93267934D01*
X155832667Y-93085714D01*
X155832668Y-93085711D01*
X155942247Y-92921715D01*
X156081715Y-92782247D01*
X156245711Y-92672668D01*
X156427934Y-92597189D01*
X156621379Y-92558710D01*
X156818621Y-92558710D01*
X157012066Y-92597189D01*
G37*
G36*
X148418318Y-90990648D02*
G01*
X148543555Y-91042523D01*
X148616920Y-91072912D01*
X148795657Y-91192340D01*
X148947660Y-91344343D01*
X149067088Y-91523080D01*
X149067089Y-91523083D01*
X149149352Y-91721682D01*
X149191290Y-91932515D01*
X149191290Y-92147485D01*
X149153330Y-92338318D01*
X149149352Y-92358317D01*
X149067088Y-92556920D01*
X148947660Y-92735657D01*
X148795657Y-92887660D01*
X148616920Y-93007088D01*
X148543555Y-93037477D01*
X148418318Y-93089352D01*
X148207485Y-93131290D01*
X147992515Y-93131290D01*
X147781682Y-93089352D01*
X147656445Y-93037477D01*
X147583080Y-93007088D01*
X147404343Y-92887660D01*
X147252340Y-92735657D01*
X147132912Y-92556920D01*
X147050648Y-92358317D01*
X147046670Y-92338318D01*
X147008710Y-92147485D01*
X147008710Y-91932515D01*
X147050648Y-91721682D01*
X147132911Y-91523083D01*
X147132912Y-91523080D01*
X147252340Y-91344343D01*
X147404343Y-91192340D01*
X147583080Y-91072912D01*
X147656445Y-91042523D01*
X147781682Y-90990648D01*
X147992515Y-90948710D01*
X148207485Y-90948710D01*
X148418318Y-90990648D01*
G37*
G36*
X152418318Y-90990648D02*
G01*
X152543555Y-91042523D01*
X152616920Y-91072912D01*
X152795657Y-91192340D01*
X152947660Y-91344343D01*
X153067088Y-91523080D01*
X153067089Y-91523083D01*
X153149352Y-91721682D01*
X153191290Y-91932515D01*
X153191290Y-92147485D01*
X153153330Y-92338318D01*
X153149352Y-92358317D01*
X153067088Y-92556920D01*
X152947660Y-92735657D01*
X152795657Y-92887660D01*
X152616920Y-93007088D01*
X152543555Y-93037477D01*
X152418318Y-93089352D01*
X152207485Y-93131290D01*
X151992515Y-93131290D01*
X151781682Y-93089352D01*
X151656445Y-93037477D01*
X151583080Y-93007088D01*
X151404343Y-92887660D01*
X151252340Y-92735657D01*
X151132912Y-92556920D01*
X151050648Y-92358317D01*
X151046670Y-92338318D01*
X151008710Y-92147485D01*
X151008710Y-91932515D01*
X151050648Y-91721682D01*
X151132911Y-91523083D01*
X151132912Y-91523080D01*
X151252340Y-91344343D01*
X151404343Y-91192340D01*
X151583080Y-91072912D01*
X151656445Y-91042523D01*
X151781682Y-90990648D01*
X151992515Y-90948710D01*
X152207485Y-90948710D01*
X152418318Y-90990648D01*
G37*
G36*
X167278318Y-90970648D02*
G01*
X167403555Y-91022523D01*
X167476920Y-91052912D01*
X167655657Y-91172340D01*
X167807660Y-91324343D01*
X167927088Y-91503080D01*
X167957477Y-91576445D01*
X168009352Y-91701682D01*
X168051290Y-91912515D01*
X168051290Y-92127485D01*
X168009352Y-92338318D01*
X167957477Y-92463555D01*
X167927088Y-92536920D01*
X167807660Y-92715657D01*
X167655657Y-92867660D01*
X167476920Y-92987088D01*
X167428633Y-93007089D01*
X167278318Y-93069352D01*
X167067485Y-93111290D01*
X166852515Y-93111290D01*
X166641682Y-93069352D01*
X166491367Y-93007089D01*
X166443080Y-92987088D01*
X166264343Y-92867660D01*
X166112340Y-92715657D01*
X165992912Y-92536920D01*
X165962523Y-92463555D01*
X165910648Y-92338318D01*
X165868710Y-92127485D01*
X165868710Y-91912515D01*
X165910648Y-91701682D01*
X165962523Y-91576445D01*
X165992912Y-91503080D01*
X166112340Y-91324343D01*
X166264343Y-91172340D01*
X166443080Y-91052912D01*
X166516445Y-91022523D01*
X166641682Y-90970648D01*
X166852515Y-90928710D01*
X167067485Y-90928710D01*
X167278318Y-90970648D01*
G37*
G36*
X148418318Y-86990648D02*
G01*
X148543555Y-87042523D01*
X148616920Y-87072912D01*
X148795657Y-87192340D01*
X148947660Y-87344343D01*
X149067088Y-87523080D01*
X149067089Y-87523083D01*
X149149352Y-87721682D01*
X149191290Y-87932515D01*
X149191290Y-88147485D01*
X149153330Y-88338318D01*
X149149352Y-88358317D01*
X149067088Y-88556920D01*
X148947660Y-88735657D01*
X148795657Y-88887660D01*
X148616920Y-89007088D01*
X148543555Y-89037477D01*
X148418318Y-89089352D01*
X148207485Y-89131290D01*
X147992515Y-89131290D01*
X147781682Y-89089352D01*
X147656445Y-89037477D01*
X147583080Y-89007088D01*
X147404343Y-88887660D01*
X147252340Y-88735657D01*
X147132912Y-88556920D01*
X147050648Y-88358317D01*
X147046670Y-88338318D01*
X147008710Y-88147485D01*
X147008710Y-87932515D01*
X147050648Y-87721682D01*
X147132911Y-87523083D01*
X147132912Y-87523080D01*
X147252340Y-87344343D01*
X147404343Y-87192340D01*
X147583080Y-87072912D01*
X147656445Y-87042523D01*
X147781682Y-86990648D01*
X147992515Y-86948710D01*
X148207485Y-86948710D01*
X148418318Y-86990648D01*
G37*
G36*
X152418318Y-86990648D02*
G01*
X152543555Y-87042523D01*
X152616920Y-87072912D01*
X152795657Y-87192340D01*
X152947660Y-87344343D01*
X153067088Y-87523080D01*
X153067089Y-87523083D01*
X153149352Y-87721682D01*
X153191290Y-87932515D01*
X153191290Y-88147485D01*
X153153330Y-88338318D01*
X153149352Y-88358317D01*
X153067088Y-88556920D01*
X152947660Y-88735657D01*
X152795657Y-88887660D01*
X152616920Y-89007088D01*
X152543555Y-89037477D01*
X152418318Y-89089352D01*
X152207485Y-89131290D01*
X151992515Y-89131290D01*
X151781682Y-89089352D01*
X151656445Y-89037477D01*
X151583080Y-89007088D01*
X151404343Y-88887660D01*
X151252340Y-88735657D01*
X151132912Y-88556920D01*
X151050648Y-88358317D01*
X151046670Y-88338318D01*
X151008710Y-88147485D01*
X151008710Y-87932515D01*
X151050648Y-87721682D01*
X151132911Y-87523083D01*
X151132912Y-87523080D01*
X151252340Y-87344343D01*
X151404343Y-87192340D01*
X151583080Y-87072912D01*
X151656445Y-87042523D01*
X151781682Y-86990648D01*
X151992515Y-86948710D01*
X152207485Y-86948710D01*
X152418318Y-86990648D01*
G37*
G36*
X167278318Y-86970648D02*
G01*
X167403555Y-87022523D01*
X167476920Y-87052912D01*
X167655657Y-87172340D01*
X167807660Y-87324343D01*
X167927088Y-87503080D01*
X167957477Y-87576445D01*
X168009352Y-87701682D01*
X168051290Y-87912515D01*
X168051290Y-88127485D01*
X168009352Y-88338318D01*
X167957477Y-88463555D01*
X167927088Y-88536920D01*
X167807660Y-88715657D01*
X167655657Y-88867660D01*
X167476920Y-88987088D01*
X167428633Y-89007089D01*
X167278318Y-89069352D01*
X167067485Y-89111290D01*
X166852515Y-89111290D01*
X166641682Y-89069352D01*
X166491367Y-89007089D01*
X166443080Y-88987088D01*
X166264343Y-88867660D01*
X166112340Y-88715657D01*
X165992912Y-88536920D01*
X165962523Y-88463555D01*
X165910648Y-88338318D01*
X165868710Y-88127485D01*
X165868710Y-87912515D01*
X165910648Y-87701682D01*
X165962523Y-87576445D01*
X165992912Y-87503080D01*
X166112340Y-87324343D01*
X166264343Y-87172340D01*
X166443080Y-87052912D01*
X166516445Y-87022523D01*
X166641682Y-86970648D01*
X166852515Y-86928710D01*
X167067485Y-86928710D01*
X167278318Y-86970648D01*
G37*
G36*
X167278318Y-82970648D02*
G01*
X167403555Y-83022523D01*
X167476920Y-83052912D01*
X167655657Y-83172340D01*
X167807660Y-83324343D01*
X167927088Y-83503080D01*
X168009352Y-83701683D01*
X168051290Y-83912517D01*
X168051290Y-84127483D01*
X168009352Y-84338317D01*
X167927088Y-84536920D01*
X167807660Y-84715657D01*
X167655657Y-84867660D01*
X167476920Y-84987088D01*
X167403555Y-85017477D01*
X167278318Y-85069352D01*
X167067485Y-85111290D01*
X166852515Y-85111290D01*
X166641682Y-85069352D01*
X166516445Y-85017477D01*
X166443080Y-84987088D01*
X166264343Y-84867660D01*
X166112340Y-84715657D01*
X165992912Y-84536920D01*
X165910648Y-84338317D01*
X165868710Y-84127483D01*
X165868710Y-83912517D01*
X165910648Y-83701683D01*
X165992912Y-83503080D01*
X166112340Y-83324343D01*
X166264343Y-83172340D01*
X166443080Y-83052912D01*
X166516445Y-83022523D01*
X166641682Y-82970648D01*
X166852515Y-82928710D01*
X167067485Y-82928710D01*
X167278318Y-82970648D01*
G37*
G36*
X167278318Y-78970648D02*
G01*
X167403555Y-79022523D01*
X167476920Y-79052912D01*
X167655657Y-79172340D01*
X167807660Y-79324343D01*
X167927088Y-79503080D01*
X168009352Y-79701683D01*
X168051290Y-79912517D01*
X168051290Y-80127483D01*
X168009352Y-80338317D01*
X167927088Y-80536920D01*
X167807660Y-80715657D01*
X167655657Y-80867660D01*
X167476920Y-80987088D01*
X167403555Y-81017477D01*
X167278318Y-81069352D01*
X167067485Y-81111290D01*
X166852515Y-81111290D01*
X166641682Y-81069352D01*
X166516445Y-81017477D01*
X166443080Y-80987088D01*
X166264343Y-80867660D01*
X166112340Y-80715657D01*
X165992912Y-80536920D01*
X165910648Y-80338317D01*
X165868710Y-80127483D01*
X165868710Y-79912517D01*
X165910648Y-79701683D01*
X165992912Y-79503080D01*
X166112340Y-79324343D01*
X166264343Y-79172340D01*
X166443080Y-79052912D01*
X166516445Y-79022523D01*
X166641682Y-78970648D01*
X166852515Y-78928710D01*
X167067485Y-78928710D01*
X167278318Y-78970648D01*
G37*
M02*
