G04 #@! TF.GenerationSoftware,KiCad,Pcbnew,(5.1.5-0-10_14)*
G04 #@! TF.CreationDate,2020-11-03T15:19:47-05:00*
G04 #@! TF.ProjectId,FC_Rear_Port_1P,46435f52-6561-4725-9f50-6f72745f3150,rev?*
G04 #@! TF.SameCoordinates,Original*
G04 #@! TF.FileFunction,Legend,Top*
G04 #@! TF.FilePolarity,Positive*
%FSLAX46Y46*%
G04 Gerber Fmt 4.6, Leading zero omitted, Abs format (unit mm)*
G04 Created by KiCad (PCBNEW (5.1.5-0-10_14)) date 2020-11-03 15:19:47*
%MOMM*%
%LPD*%
G04 APERTURE LIST*
%ADD10C,0.120000*%
%ADD11C,0.150000*%
G04 APERTURE END LIST*
D10*
X156811212Y-98331211D02*
G75*
G03X156811212Y-98331211I-1111212J0D01*
G01*
X146742165Y-84722164D02*
G75*
G03X146742165Y-84722164I-1202165J0D01*
G01*
X161678541Y-92770000D02*
G75*
G03X161678541Y-92770000I-1198541J0D01*
G01*
X160480000Y-94020000D02*
X160480000Y-91590000D01*
X159100000Y-92770000D02*
X161840000Y-92770000D01*
X145550000Y-83480000D02*
X145550000Y-86100000D01*
X147570000Y-84730000D02*
X143640000Y-84730000D01*
X159470000Y-105370000D02*
X159470000Y-96370000D01*
X154470000Y-105370000D02*
X159470000Y-105370000D01*
X154470000Y-96370000D02*
X154470000Y-105370000D01*
X159470000Y-96370000D02*
X154470000Y-96370000D01*
X155280000Y-106700000D02*
X170680000Y-106700000D01*
X170680000Y-106700000D02*
X170680000Y-89860000D01*
X170680000Y-89860000D02*
X155280000Y-89860000D01*
X155280000Y-89860000D02*
X155280000Y-106700000D01*
X138540000Y-81970000D02*
X152540000Y-81970000D01*
X152540000Y-81970000D02*
X152540000Y-112590000D01*
X152540000Y-112590000D02*
X138540000Y-112590000D01*
X138540000Y-112590000D02*
X138540000Y-81970000D01*
X159470000Y-105370000D02*
X159470000Y-96370000D01*
X154470000Y-105370000D02*
X159470000Y-105370000D01*
X154470000Y-96370000D02*
X154470000Y-105370000D01*
X159470000Y-96370000D02*
X154470000Y-96370000D01*
D11*
X156922084Y-96289240D02*
X156826846Y-96241620D01*
X156683989Y-96241620D01*
X156541132Y-96289240D01*
X156445894Y-96384478D01*
X156398275Y-96479716D01*
X156350656Y-96670192D01*
X156350656Y-96813049D01*
X156398275Y-97003525D01*
X156445894Y-97098763D01*
X156541132Y-97194001D01*
X156683989Y-97241620D01*
X156779227Y-97241620D01*
X156922084Y-97194001D01*
X156969703Y-97146382D01*
X156969703Y-96813049D01*
X156779227Y-96813049D01*
X157398275Y-97241620D02*
X157398275Y-96241620D01*
X157969703Y-97241620D01*
X157969703Y-96241620D01*
X158445894Y-97241620D02*
X158445894Y-96241620D01*
X158683989Y-96241620D01*
X158826846Y-96289240D01*
X158922084Y-96384478D01*
X158969703Y-96479716D01*
X159017322Y-96670192D01*
X159017322Y-96813049D01*
X158969703Y-97003525D01*
X158922084Y-97098763D01*
X158826846Y-97194001D01*
X158683989Y-97241620D01*
X158445894Y-97241620D01*
X151039166Y-103822380D02*
X150562976Y-103822380D01*
X150562976Y-102822380D01*
X151801071Y-103822380D02*
X151801071Y-103298571D01*
X151753452Y-103203333D01*
X151658214Y-103155714D01*
X151467738Y-103155714D01*
X151372500Y-103203333D01*
X151801071Y-103774761D02*
X151705833Y-103822380D01*
X151467738Y-103822380D01*
X151372500Y-103774761D01*
X151324880Y-103679523D01*
X151324880Y-103584285D01*
X151372500Y-103489047D01*
X151467738Y-103441428D01*
X151705833Y-103441428D01*
X151801071Y-103393809D01*
X152134404Y-103155714D02*
X152515357Y-103155714D01*
X152277261Y-102822380D02*
X152277261Y-103679523D01*
X152324880Y-103774761D01*
X152420119Y-103822380D01*
X152515357Y-103822380D01*
X153277261Y-103774761D02*
X153182023Y-103822380D01*
X152991547Y-103822380D01*
X152896309Y-103774761D01*
X152848690Y-103727142D01*
X152801071Y-103631904D01*
X152801071Y-103346190D01*
X152848690Y-103250952D01*
X152896309Y-103203333D01*
X152991547Y-103155714D01*
X153182023Y-103155714D01*
X153277261Y-103203333D01*
X153705833Y-103822380D02*
X153705833Y-102822380D01*
X154134404Y-103822380D02*
X154134404Y-103298571D01*
X154086785Y-103203333D01*
X153991547Y-103155714D01*
X153848690Y-103155714D01*
X153753452Y-103203333D01*
X153705833Y-103250952D01*
X151086785Y-101227142D02*
X151039166Y-101274761D01*
X150896309Y-101322380D01*
X150801071Y-101322380D01*
X150658214Y-101274761D01*
X150562976Y-101179523D01*
X150515357Y-101084285D01*
X150467738Y-100893809D01*
X150467738Y-100750952D01*
X150515357Y-100560476D01*
X150562976Y-100465238D01*
X150658214Y-100370000D01*
X150801071Y-100322380D01*
X150896309Y-100322380D01*
X151039166Y-100370000D01*
X151086785Y-100417619D01*
X151658214Y-101322380D02*
X151562976Y-101274761D01*
X151515357Y-101179523D01*
X151515357Y-100322380D01*
X152182023Y-101322380D02*
X152086785Y-101274761D01*
X152039166Y-101227142D01*
X151991547Y-101131904D01*
X151991547Y-100846190D01*
X152039166Y-100750952D01*
X152086785Y-100703333D01*
X152182023Y-100655714D01*
X152324880Y-100655714D01*
X152420119Y-100703333D01*
X152467738Y-100750952D01*
X152515357Y-100846190D01*
X152515357Y-101131904D01*
X152467738Y-101227142D01*
X152420119Y-101274761D01*
X152324880Y-101322380D01*
X152182023Y-101322380D01*
X153372500Y-101274761D02*
X153277261Y-101322380D01*
X153086785Y-101322380D01*
X152991547Y-101274761D01*
X152943928Y-101227142D01*
X152896309Y-101131904D01*
X152896309Y-100846190D01*
X152943928Y-100750952D01*
X152991547Y-100703333D01*
X153086785Y-100655714D01*
X153277261Y-100655714D01*
X153372500Y-100703333D01*
X153801071Y-101322380D02*
X153801071Y-100322380D01*
X153896309Y-100941428D02*
X154182023Y-101322380D01*
X154182023Y-100655714D02*
X153801071Y-101036666D01*
X151896309Y-97822380D02*
X152229642Y-98822380D01*
X152562976Y-97822380D01*
X153324880Y-98774761D02*
X153229642Y-98822380D01*
X153039166Y-98822380D01*
X152943928Y-98774761D01*
X152896309Y-98727142D01*
X152848690Y-98631904D01*
X152848690Y-98346190D01*
X152896309Y-98250952D01*
X152943928Y-98203333D01*
X153039166Y-98155714D01*
X153229642Y-98155714D01*
X153324880Y-98203333D01*
X154182023Y-98774761D02*
X154086785Y-98822380D01*
X153896309Y-98822380D01*
X153801071Y-98774761D01*
X153753452Y-98727142D01*
X153705833Y-98631904D01*
X153705833Y-98346190D01*
X153753452Y-98250952D01*
X153801071Y-98203333D01*
X153896309Y-98155714D01*
X154086785Y-98155714D01*
X154182023Y-98203333D01*
X157126785Y-91560000D02*
X157031547Y-91512380D01*
X156888690Y-91512380D01*
X156745833Y-91560000D01*
X156650595Y-91655238D01*
X156602976Y-91750476D01*
X156555357Y-91940952D01*
X156555357Y-92083809D01*
X156602976Y-92274285D01*
X156650595Y-92369523D01*
X156745833Y-92464761D01*
X156888690Y-92512380D01*
X156983928Y-92512380D01*
X157126785Y-92464761D01*
X157174404Y-92417142D01*
X157174404Y-92083809D01*
X156983928Y-92083809D01*
X157602976Y-92512380D02*
X157602976Y-91512380D01*
X158174404Y-92512380D01*
X158174404Y-91512380D01*
X158650595Y-92512380D02*
X158650595Y-91512380D01*
X158888690Y-91512380D01*
X159031547Y-91560000D01*
X159126785Y-91655238D01*
X159174404Y-91750476D01*
X159222023Y-91940952D01*
X159222023Y-92083809D01*
X159174404Y-92274285D01*
X159126785Y-92369523D01*
X159031547Y-92464761D01*
X158888690Y-92512380D01*
X158650595Y-92512380D01*
X159056785Y-95107142D02*
X159009166Y-95154761D01*
X158866309Y-95202380D01*
X158771071Y-95202380D01*
X158628214Y-95154761D01*
X158532976Y-95059523D01*
X158485357Y-94964285D01*
X158437738Y-94773809D01*
X158437738Y-94630952D01*
X158485357Y-94440476D01*
X158532976Y-94345238D01*
X158628214Y-94250000D01*
X158771071Y-94202380D01*
X158866309Y-94202380D01*
X159009166Y-94250000D01*
X159056785Y-94297619D01*
X159628214Y-95202380D02*
X159532976Y-95154761D01*
X159485357Y-95059523D01*
X159485357Y-94202380D01*
X160152023Y-95202380D02*
X160056785Y-95154761D01*
X160009166Y-95107142D01*
X159961547Y-95011904D01*
X159961547Y-94726190D01*
X160009166Y-94630952D01*
X160056785Y-94583333D01*
X160152023Y-94535714D01*
X160294880Y-94535714D01*
X160390119Y-94583333D01*
X160437738Y-94630952D01*
X160485357Y-94726190D01*
X160485357Y-95011904D01*
X160437738Y-95107142D01*
X160390119Y-95154761D01*
X160294880Y-95202380D01*
X160152023Y-95202380D01*
X161342500Y-95154761D02*
X161247261Y-95202380D01*
X161056785Y-95202380D01*
X160961547Y-95154761D01*
X160913928Y-95107142D01*
X160866309Y-95011904D01*
X160866309Y-94726190D01*
X160913928Y-94630952D01*
X160961547Y-94583333D01*
X161056785Y-94535714D01*
X161247261Y-94535714D01*
X161342500Y-94583333D01*
X161771071Y-95202380D02*
X161771071Y-94202380D01*
X161866309Y-94821428D02*
X162152023Y-95202380D01*
X162152023Y-94535714D02*
X161771071Y-94916666D01*
X160302646Y-99271080D02*
X159826456Y-99271080D01*
X159826456Y-98271080D01*
X161064551Y-99271080D02*
X161064551Y-98747271D01*
X161016932Y-98652033D01*
X160921694Y-98604414D01*
X160731218Y-98604414D01*
X160635980Y-98652033D01*
X161064551Y-99223461D02*
X160969313Y-99271080D01*
X160731218Y-99271080D01*
X160635980Y-99223461D01*
X160588360Y-99128223D01*
X160588360Y-99032985D01*
X160635980Y-98937747D01*
X160731218Y-98890128D01*
X160969313Y-98890128D01*
X161064551Y-98842509D01*
X161397884Y-98604414D02*
X161778837Y-98604414D01*
X161540741Y-98271080D02*
X161540741Y-99128223D01*
X161588360Y-99223461D01*
X161683599Y-99271080D01*
X161778837Y-99271080D01*
X162540741Y-99223461D02*
X162445503Y-99271080D01*
X162255027Y-99271080D01*
X162159789Y-99223461D01*
X162112170Y-99175842D01*
X162064551Y-99080604D01*
X162064551Y-98794890D01*
X162112170Y-98699652D01*
X162159789Y-98652033D01*
X162255027Y-98604414D01*
X162445503Y-98604414D01*
X162540741Y-98652033D01*
X162969313Y-99271080D02*
X162969313Y-98271080D01*
X163397884Y-99271080D02*
X163397884Y-98747271D01*
X163350265Y-98652033D01*
X163255027Y-98604414D01*
X163112170Y-98604414D01*
X163016932Y-98652033D01*
X162969313Y-98699652D01*
X159429642Y-106952380D02*
X159429642Y-105952380D01*
X159667738Y-105952380D01*
X159810595Y-106000000D01*
X159905833Y-106095238D01*
X159953452Y-106190476D01*
X160001071Y-106380952D01*
X160001071Y-106523809D01*
X159953452Y-106714285D01*
X159905833Y-106809523D01*
X159810595Y-106904761D01*
X159667738Y-106952380D01*
X159429642Y-106952380D01*
X160858214Y-106952380D02*
X160858214Y-106428571D01*
X160810595Y-106333333D01*
X160715357Y-106285714D01*
X160524880Y-106285714D01*
X160429642Y-106333333D01*
X160858214Y-106904761D02*
X160762976Y-106952380D01*
X160524880Y-106952380D01*
X160429642Y-106904761D01*
X160382023Y-106809523D01*
X160382023Y-106714285D01*
X160429642Y-106619047D01*
X160524880Y-106571428D01*
X160762976Y-106571428D01*
X160858214Y-106523809D01*
X161191547Y-106285714D02*
X161572500Y-106285714D01*
X161334404Y-105952380D02*
X161334404Y-106809523D01*
X161382023Y-106904761D01*
X161477261Y-106952380D01*
X161572500Y-106952380D01*
X162334404Y-106952380D02*
X162334404Y-106428571D01*
X162286785Y-106333333D01*
X162191547Y-106285714D01*
X162001071Y-106285714D01*
X161905833Y-106333333D01*
X162334404Y-106904761D02*
X162239166Y-106952380D01*
X162001071Y-106952380D01*
X161905833Y-106904761D01*
X161858214Y-106809523D01*
X161858214Y-106714285D01*
X161905833Y-106619047D01*
X162001071Y-106571428D01*
X162239166Y-106571428D01*
X162334404Y-106523809D01*
X156927142Y-90372380D02*
X157593809Y-90372380D01*
X157165238Y-91372380D01*
X157974761Y-91372380D02*
X157974761Y-90372380D01*
X158355714Y-90372380D01*
X158450952Y-90420000D01*
X158498571Y-90467619D01*
X158546190Y-90562857D01*
X158546190Y-90705714D01*
X158498571Y-90800952D01*
X158450952Y-90848571D01*
X158355714Y-90896190D01*
X157974761Y-90896190D01*
X158974761Y-91372380D02*
X158974761Y-90705714D01*
X158974761Y-90372380D02*
X158927142Y-90420000D01*
X158974761Y-90467619D01*
X159022380Y-90420000D01*
X158974761Y-90372380D01*
X158974761Y-90467619D01*
X159450952Y-90705714D02*
X159450952Y-91372380D01*
X159450952Y-90800952D02*
X159498571Y-90753333D01*
X159593809Y-90705714D01*
X159736666Y-90705714D01*
X159831904Y-90753333D01*
X159879523Y-90848571D01*
X159879523Y-91372380D01*
X161117619Y-91372380D02*
X161117619Y-90372380D01*
X161689047Y-91372380D01*
X161689047Y-90372380D01*
X162165238Y-90848571D02*
X162498571Y-90848571D01*
X162641428Y-91372380D02*
X162165238Y-91372380D01*
X162165238Y-90372380D01*
X162641428Y-90372380D01*
X163022380Y-91324761D02*
X163165238Y-91372380D01*
X163403333Y-91372380D01*
X163498571Y-91324761D01*
X163546190Y-91277142D01*
X163593809Y-91181904D01*
X163593809Y-91086666D01*
X163546190Y-90991428D01*
X163498571Y-90943809D01*
X163403333Y-90896190D01*
X163212857Y-90848571D01*
X163117619Y-90800952D01*
X163070000Y-90753333D01*
X163022380Y-90658095D01*
X163022380Y-90562857D01*
X163070000Y-90467619D01*
X163117619Y-90420000D01*
X163212857Y-90372380D01*
X163450952Y-90372380D01*
X163593809Y-90420000D01*
X164784285Y-91372380D02*
X164784285Y-90372380D01*
X165165238Y-90372380D01*
X165260476Y-90420000D01*
X165308095Y-90467619D01*
X165355714Y-90562857D01*
X165355714Y-90705714D01*
X165308095Y-90800952D01*
X165260476Y-90848571D01*
X165165238Y-90896190D01*
X164784285Y-90896190D01*
X165974761Y-90372380D02*
X166165238Y-90372380D01*
X166260476Y-90420000D01*
X166355714Y-90515238D01*
X166403333Y-90705714D01*
X166403333Y-91039047D01*
X166355714Y-91229523D01*
X166260476Y-91324761D01*
X166165238Y-91372380D01*
X165974761Y-91372380D01*
X165879523Y-91324761D01*
X165784285Y-91229523D01*
X165736666Y-91039047D01*
X165736666Y-90705714D01*
X165784285Y-90515238D01*
X165879523Y-90420000D01*
X165974761Y-90372380D01*
X167403333Y-91372380D02*
X167070000Y-90896190D01*
X166831904Y-91372380D02*
X166831904Y-90372380D01*
X167212857Y-90372380D01*
X167308095Y-90420000D01*
X167355714Y-90467619D01*
X167403333Y-90562857D01*
X167403333Y-90705714D01*
X167355714Y-90800952D01*
X167308095Y-90848571D01*
X167212857Y-90896190D01*
X166831904Y-90896190D01*
X167689047Y-90372380D02*
X168260476Y-90372380D01*
X167974761Y-91372380D02*
X167974761Y-90372380D01*
X165672738Y-96222380D02*
X166006071Y-97222380D01*
X166339404Y-96222380D01*
X167101309Y-97174761D02*
X167006071Y-97222380D01*
X166815595Y-97222380D01*
X166720357Y-97174761D01*
X166672738Y-97127142D01*
X166625119Y-97031904D01*
X166625119Y-96746190D01*
X166672738Y-96650952D01*
X166720357Y-96603333D01*
X166815595Y-96555714D01*
X167006071Y-96555714D01*
X167101309Y-96603333D01*
X167958452Y-97174761D02*
X167863214Y-97222380D01*
X167672738Y-97222380D01*
X167577500Y-97174761D01*
X167529880Y-97127142D01*
X167482261Y-97031904D01*
X167482261Y-96746190D01*
X167529880Y-96650952D01*
X167577500Y-96603333D01*
X167672738Y-96555714D01*
X167863214Y-96555714D01*
X167958452Y-96603333D01*
X147232738Y-84172380D02*
X147566071Y-85172380D01*
X147899404Y-84172380D01*
X148661309Y-85124761D02*
X148566071Y-85172380D01*
X148375595Y-85172380D01*
X148280357Y-85124761D01*
X148232738Y-85077142D01*
X148185119Y-84981904D01*
X148185119Y-84696190D01*
X148232738Y-84600952D01*
X148280357Y-84553333D01*
X148375595Y-84505714D01*
X148566071Y-84505714D01*
X148661309Y-84553333D01*
X149518452Y-85124761D02*
X149423214Y-85172380D01*
X149232738Y-85172380D01*
X149137500Y-85124761D01*
X149089880Y-85077142D01*
X149042261Y-84981904D01*
X149042261Y-84696190D01*
X149089880Y-84600952D01*
X149137500Y-84553333D01*
X149232738Y-84505714D01*
X149423214Y-84505714D01*
X149518452Y-84553333D01*
X147947023Y-89077142D02*
X147899404Y-89124761D01*
X147756547Y-89172380D01*
X147661309Y-89172380D01*
X147518452Y-89124761D01*
X147423214Y-89029523D01*
X147375595Y-88934285D01*
X147327976Y-88743809D01*
X147327976Y-88600952D01*
X147375595Y-88410476D01*
X147423214Y-88315238D01*
X147518452Y-88220000D01*
X147661309Y-88172380D01*
X147756547Y-88172380D01*
X147899404Y-88220000D01*
X147947023Y-88267619D01*
X148518452Y-89172380D02*
X148423214Y-89124761D01*
X148375595Y-89029523D01*
X148375595Y-88172380D01*
X149042261Y-89172380D02*
X148947023Y-89124761D01*
X148899404Y-89077142D01*
X148851785Y-88981904D01*
X148851785Y-88696190D01*
X148899404Y-88600952D01*
X148947023Y-88553333D01*
X149042261Y-88505714D01*
X149185119Y-88505714D01*
X149280357Y-88553333D01*
X149327976Y-88600952D01*
X149375595Y-88696190D01*
X149375595Y-88981904D01*
X149327976Y-89077142D01*
X149280357Y-89124761D01*
X149185119Y-89172380D01*
X149042261Y-89172380D01*
X150232738Y-89124761D02*
X150137500Y-89172380D01*
X149947023Y-89172380D01*
X149851785Y-89124761D01*
X149804166Y-89077142D01*
X149756547Y-88981904D01*
X149756547Y-88696190D01*
X149804166Y-88600952D01*
X149851785Y-88553333D01*
X149947023Y-88505714D01*
X150137500Y-88505714D01*
X150232738Y-88553333D01*
X150661309Y-89172380D02*
X150661309Y-88172380D01*
X150756547Y-88791428D02*
X151042261Y-89172380D01*
X151042261Y-88505714D02*
X150661309Y-88886666D01*
X147851785Y-93172380D02*
X147375595Y-93172380D01*
X147375595Y-92172380D01*
X148613690Y-93172380D02*
X148613690Y-92648571D01*
X148566071Y-92553333D01*
X148470833Y-92505714D01*
X148280357Y-92505714D01*
X148185119Y-92553333D01*
X148613690Y-93124761D02*
X148518452Y-93172380D01*
X148280357Y-93172380D01*
X148185119Y-93124761D01*
X148137500Y-93029523D01*
X148137500Y-92934285D01*
X148185119Y-92839047D01*
X148280357Y-92791428D01*
X148518452Y-92791428D01*
X148613690Y-92743809D01*
X148947023Y-92505714D02*
X149327976Y-92505714D01*
X149089880Y-92172380D02*
X149089880Y-93029523D01*
X149137500Y-93124761D01*
X149232738Y-93172380D01*
X149327976Y-93172380D01*
X150089880Y-93124761D02*
X149994642Y-93172380D01*
X149804166Y-93172380D01*
X149708928Y-93124761D01*
X149661309Y-93077142D01*
X149613690Y-92981904D01*
X149613690Y-92696190D01*
X149661309Y-92600952D01*
X149708928Y-92553333D01*
X149804166Y-92505714D01*
X149994642Y-92505714D01*
X150089880Y-92553333D01*
X150518452Y-93172380D02*
X150518452Y-92172380D01*
X150947023Y-93172380D02*
X150947023Y-92648571D01*
X150899404Y-92553333D01*
X150804166Y-92505714D01*
X150661309Y-92505714D01*
X150566071Y-92553333D01*
X150518452Y-92600952D01*
X147375595Y-97172380D02*
X147375595Y-96172380D01*
X147613690Y-96172380D01*
X147756547Y-96220000D01*
X147851785Y-96315238D01*
X147899404Y-96410476D01*
X147947023Y-96600952D01*
X147947023Y-96743809D01*
X147899404Y-96934285D01*
X147851785Y-97029523D01*
X147756547Y-97124761D01*
X147613690Y-97172380D01*
X147375595Y-97172380D01*
X148804166Y-97172380D02*
X148804166Y-96648571D01*
X148756547Y-96553333D01*
X148661309Y-96505714D01*
X148470833Y-96505714D01*
X148375595Y-96553333D01*
X148804166Y-97124761D02*
X148708928Y-97172380D01*
X148470833Y-97172380D01*
X148375595Y-97124761D01*
X148327976Y-97029523D01*
X148327976Y-96934285D01*
X148375595Y-96839047D01*
X148470833Y-96791428D01*
X148708928Y-96791428D01*
X148804166Y-96743809D01*
X149137500Y-96505714D02*
X149518452Y-96505714D01*
X149280357Y-96172380D02*
X149280357Y-97029523D01*
X149327976Y-97124761D01*
X149423214Y-97172380D01*
X149518452Y-97172380D01*
X150280357Y-97172380D02*
X150280357Y-96648571D01*
X150232738Y-96553333D01*
X150137500Y-96505714D01*
X149947023Y-96505714D01*
X149851785Y-96553333D01*
X150280357Y-97124761D02*
X150185119Y-97172380D01*
X149947023Y-97172380D01*
X149851785Y-97124761D01*
X149804166Y-97029523D01*
X149804166Y-96934285D01*
X149851785Y-96839047D01*
X149947023Y-96791428D01*
X150185119Y-96791428D01*
X150280357Y-96743809D01*
X147375595Y-103672380D02*
X147375595Y-102672380D01*
X147947023Y-103672380D01*
X147947023Y-102672380D01*
X148994642Y-103577142D02*
X148947023Y-103624761D01*
X148804166Y-103672380D01*
X148708928Y-103672380D01*
X148566071Y-103624761D01*
X148470833Y-103529523D01*
X148423214Y-103434285D01*
X148375595Y-103243809D01*
X148375595Y-103100952D01*
X148423214Y-102910476D01*
X148470833Y-102815238D01*
X148566071Y-102720000D01*
X148708928Y-102672380D01*
X148804166Y-102672380D01*
X148947023Y-102720000D01*
X148994642Y-102767619D01*
X147375595Y-107672380D02*
X147375595Y-106672380D01*
X147947023Y-107672380D01*
X147947023Y-106672380D01*
X148994642Y-107577142D02*
X148947023Y-107624761D01*
X148804166Y-107672380D01*
X148708928Y-107672380D01*
X148566071Y-107624761D01*
X148470833Y-107529523D01*
X148423214Y-107434285D01*
X148375595Y-107243809D01*
X148375595Y-107100952D01*
X148423214Y-106910476D01*
X148470833Y-106815238D01*
X148566071Y-106720000D01*
X148708928Y-106672380D01*
X148804166Y-106672380D01*
X148947023Y-106720000D01*
X148994642Y-106767619D01*
X147899404Y-110720000D02*
X147804166Y-110672380D01*
X147661309Y-110672380D01*
X147518452Y-110720000D01*
X147423214Y-110815238D01*
X147375595Y-110910476D01*
X147327976Y-111100952D01*
X147327976Y-111243809D01*
X147375595Y-111434285D01*
X147423214Y-111529523D01*
X147518452Y-111624761D01*
X147661309Y-111672380D01*
X147756547Y-111672380D01*
X147899404Y-111624761D01*
X147947023Y-111577142D01*
X147947023Y-111243809D01*
X147756547Y-111243809D01*
X148375595Y-111672380D02*
X148375595Y-111005714D01*
X148375595Y-111196190D02*
X148423214Y-111100952D01*
X148470833Y-111053333D01*
X148566071Y-111005714D01*
X148661309Y-111005714D01*
X149137500Y-111672380D02*
X149042261Y-111624761D01*
X148994642Y-111577142D01*
X148947023Y-111481904D01*
X148947023Y-111196190D01*
X148994642Y-111100952D01*
X149042261Y-111053333D01*
X149137500Y-111005714D01*
X149280357Y-111005714D01*
X149375595Y-111053333D01*
X149423214Y-111100952D01*
X149470833Y-111196190D01*
X149470833Y-111481904D01*
X149423214Y-111577142D01*
X149375595Y-111624761D01*
X149280357Y-111672380D01*
X149137500Y-111672380D01*
X150327976Y-111005714D02*
X150327976Y-111672380D01*
X149899404Y-111005714D02*
X149899404Y-111529523D01*
X149947023Y-111624761D01*
X150042261Y-111672380D01*
X150185119Y-111672380D01*
X150280357Y-111624761D01*
X150327976Y-111577142D01*
X150804166Y-111005714D02*
X150804166Y-111672380D01*
X150804166Y-111100952D02*
X150851785Y-111053333D01*
X150947023Y-111005714D01*
X151089880Y-111005714D01*
X151185119Y-111053333D01*
X151232738Y-111148571D01*
X151232738Y-111672380D01*
X152137500Y-111672380D02*
X152137500Y-110672380D01*
X152137500Y-111624761D02*
X152042261Y-111672380D01*
X151851785Y-111672380D01*
X151756547Y-111624761D01*
X151708928Y-111577142D01*
X151661309Y-111481904D01*
X151661309Y-111196190D01*
X151708928Y-111100952D01*
X151756547Y-111053333D01*
X151851785Y-111005714D01*
X152042261Y-111005714D01*
X152137500Y-111053333D01*
X139070000Y-82382380D02*
X139736666Y-82382380D01*
X139308095Y-83382380D01*
X140879523Y-83382380D02*
X140879523Y-82382380D01*
X141260476Y-82382380D01*
X141355714Y-82430000D01*
X141403333Y-82477619D01*
X141450952Y-82572857D01*
X141450952Y-82715714D01*
X141403333Y-82810952D01*
X141355714Y-82858571D01*
X141260476Y-82906190D01*
X140879523Y-82906190D01*
X141879523Y-83382380D02*
X141879523Y-82715714D01*
X141879523Y-82382380D02*
X141831904Y-82430000D01*
X141879523Y-82477619D01*
X141927142Y-82430000D01*
X141879523Y-82382380D01*
X141879523Y-82477619D01*
X142355714Y-82715714D02*
X142355714Y-83382380D01*
X142355714Y-82810952D02*
X142403333Y-82763333D01*
X142498571Y-82715714D01*
X142641428Y-82715714D01*
X142736666Y-82763333D01*
X142784285Y-82858571D01*
X142784285Y-83382380D01*
X143974761Y-83334761D02*
X144117619Y-83382380D01*
X144355714Y-83382380D01*
X144450952Y-83334761D01*
X144498571Y-83287142D01*
X144546190Y-83191904D01*
X144546190Y-83096666D01*
X144498571Y-83001428D01*
X144450952Y-82953809D01*
X144355714Y-82906190D01*
X144165238Y-82858571D01*
X144070000Y-82810952D01*
X144022380Y-82763333D01*
X143974761Y-82668095D01*
X143974761Y-82572857D01*
X144022380Y-82477619D01*
X144070000Y-82430000D01*
X144165238Y-82382380D01*
X144403333Y-82382380D01*
X144546190Y-82430000D01*
X144974761Y-83382380D02*
X144974761Y-82382380D01*
X145546190Y-83382380D01*
X145546190Y-82382380D01*
X146022380Y-82858571D02*
X146355714Y-82858571D01*
X146498571Y-83382380D02*
X146022380Y-83382380D01*
X146022380Y-82382380D01*
X146498571Y-82382380D01*
X146879523Y-83334761D02*
X147022380Y-83382380D01*
X147260476Y-83382380D01*
X147355714Y-83334761D01*
X147403333Y-83287142D01*
X147450952Y-83191904D01*
X147450952Y-83096666D01*
X147403333Y-83001428D01*
X147355714Y-82953809D01*
X147260476Y-82906190D01*
X147070000Y-82858571D01*
X146974761Y-82810952D01*
X146927142Y-82763333D01*
X146879523Y-82668095D01*
X146879523Y-82572857D01*
X146927142Y-82477619D01*
X146974761Y-82430000D01*
X147070000Y-82382380D01*
X147308095Y-82382380D01*
X147450952Y-82430000D01*
X148641428Y-83382380D02*
X148641428Y-82382380D01*
X149022380Y-82382380D01*
X149117619Y-82430000D01*
X149165238Y-82477619D01*
X149212857Y-82572857D01*
X149212857Y-82715714D01*
X149165238Y-82810952D01*
X149117619Y-82858571D01*
X149022380Y-82906190D01*
X148641428Y-82906190D01*
X149831904Y-82382380D02*
X150022380Y-82382380D01*
X150117619Y-82430000D01*
X150212857Y-82525238D01*
X150260476Y-82715714D01*
X150260476Y-83049047D01*
X150212857Y-83239523D01*
X150117619Y-83334761D01*
X150022380Y-83382380D01*
X149831904Y-83382380D01*
X149736666Y-83334761D01*
X149641428Y-83239523D01*
X149593809Y-83049047D01*
X149593809Y-82715714D01*
X149641428Y-82525238D01*
X149736666Y-82430000D01*
X149831904Y-82382380D01*
X151260476Y-83382380D02*
X150927142Y-82906190D01*
X150689047Y-83382380D02*
X150689047Y-82382380D01*
X151070000Y-82382380D01*
X151165238Y-82430000D01*
X151212857Y-82477619D01*
X151260476Y-82572857D01*
X151260476Y-82715714D01*
X151212857Y-82810952D01*
X151165238Y-82858571D01*
X151070000Y-82906190D01*
X150689047Y-82906190D01*
X151546190Y-82382380D02*
X152117619Y-82382380D01*
X151831904Y-83382380D02*
X151831904Y-82382380D01*
X159565655Y-103263960D02*
X159565655Y-102263960D01*
X159803750Y-102263960D01*
X159946607Y-102311580D01*
X160041845Y-102406818D01*
X160089464Y-102502056D01*
X160137083Y-102692532D01*
X160137083Y-102835389D01*
X160089464Y-103025865D01*
X160041845Y-103121103D01*
X159946607Y-103216341D01*
X159803750Y-103263960D01*
X159565655Y-103263960D01*
X160994226Y-103263960D02*
X160994226Y-102740151D01*
X160946607Y-102644913D01*
X160851369Y-102597294D01*
X160660893Y-102597294D01*
X160565655Y-102644913D01*
X160994226Y-103216341D02*
X160898988Y-103263960D01*
X160660893Y-103263960D01*
X160565655Y-103216341D01*
X160518036Y-103121103D01*
X160518036Y-103025865D01*
X160565655Y-102930627D01*
X160660893Y-102883008D01*
X160898988Y-102883008D01*
X160994226Y-102835389D01*
X161327560Y-102597294D02*
X161708512Y-102597294D01*
X161470417Y-102263960D02*
X161470417Y-103121103D01*
X161518036Y-103216341D01*
X161613274Y-103263960D01*
X161708512Y-103263960D01*
X162470417Y-103263960D02*
X162470417Y-102740151D01*
X162422798Y-102644913D01*
X162327560Y-102597294D01*
X162137083Y-102597294D01*
X162041845Y-102644913D01*
X162470417Y-103216341D02*
X162375179Y-103263960D01*
X162137083Y-103263960D01*
X162041845Y-103216341D01*
X161994226Y-103121103D01*
X161994226Y-103025865D01*
X162041845Y-102930627D01*
X162137083Y-102883008D01*
X162375179Y-102883008D01*
X162470417Y-102835389D01*
X151039166Y-103822380D02*
X150562976Y-103822380D01*
X150562976Y-102822380D01*
X151801071Y-103822380D02*
X151801071Y-103298571D01*
X151753452Y-103203333D01*
X151658214Y-103155714D01*
X151467738Y-103155714D01*
X151372500Y-103203333D01*
X151801071Y-103774761D02*
X151705833Y-103822380D01*
X151467738Y-103822380D01*
X151372500Y-103774761D01*
X151324880Y-103679523D01*
X151324880Y-103584285D01*
X151372500Y-103489047D01*
X151467738Y-103441428D01*
X151705833Y-103441428D01*
X151801071Y-103393809D01*
X152134404Y-103155714D02*
X152515357Y-103155714D01*
X152277261Y-102822380D02*
X152277261Y-103679523D01*
X152324880Y-103774761D01*
X152420119Y-103822380D01*
X152515357Y-103822380D01*
X153277261Y-103774761D02*
X153182023Y-103822380D01*
X152991547Y-103822380D01*
X152896309Y-103774761D01*
X152848690Y-103727142D01*
X152801071Y-103631904D01*
X152801071Y-103346190D01*
X152848690Y-103250952D01*
X152896309Y-103203333D01*
X152991547Y-103155714D01*
X153182023Y-103155714D01*
X153277261Y-103203333D01*
X153705833Y-103822380D02*
X153705833Y-102822380D01*
X154134404Y-103822380D02*
X154134404Y-103298571D01*
X154086785Y-103203333D01*
X153991547Y-103155714D01*
X153848690Y-103155714D01*
X153753452Y-103203333D01*
X153705833Y-103250952D01*
X151086785Y-101227142D02*
X151039166Y-101274761D01*
X150896309Y-101322380D01*
X150801071Y-101322380D01*
X150658214Y-101274761D01*
X150562976Y-101179523D01*
X150515357Y-101084285D01*
X150467738Y-100893809D01*
X150467738Y-100750952D01*
X150515357Y-100560476D01*
X150562976Y-100465238D01*
X150658214Y-100370000D01*
X150801071Y-100322380D01*
X150896309Y-100322380D01*
X151039166Y-100370000D01*
X151086785Y-100417619D01*
X151658214Y-101322380D02*
X151562976Y-101274761D01*
X151515357Y-101179523D01*
X151515357Y-100322380D01*
X152182023Y-101322380D02*
X152086785Y-101274761D01*
X152039166Y-101227142D01*
X151991547Y-101131904D01*
X151991547Y-100846190D01*
X152039166Y-100750952D01*
X152086785Y-100703333D01*
X152182023Y-100655714D01*
X152324880Y-100655714D01*
X152420119Y-100703333D01*
X152467738Y-100750952D01*
X152515357Y-100846190D01*
X152515357Y-101131904D01*
X152467738Y-101227142D01*
X152420119Y-101274761D01*
X152324880Y-101322380D01*
X152182023Y-101322380D01*
X153372500Y-101274761D02*
X153277261Y-101322380D01*
X153086785Y-101322380D01*
X152991547Y-101274761D01*
X152943928Y-101227142D01*
X152896309Y-101131904D01*
X152896309Y-100846190D01*
X152943928Y-100750952D01*
X152991547Y-100703333D01*
X153086785Y-100655714D01*
X153277261Y-100655714D01*
X153372500Y-100703333D01*
X153801071Y-101322380D02*
X153801071Y-100322380D01*
X153896309Y-100941428D02*
X154182023Y-101322380D01*
X154182023Y-100655714D02*
X153801071Y-101036666D01*
X151896309Y-97822380D02*
X152229642Y-98822380D01*
X152562976Y-97822380D01*
X153324880Y-98774761D02*
X153229642Y-98822380D01*
X153039166Y-98822380D01*
X152943928Y-98774761D01*
X152896309Y-98727142D01*
X152848690Y-98631904D01*
X152848690Y-98346190D01*
X152896309Y-98250952D01*
X152943928Y-98203333D01*
X153039166Y-98155714D01*
X153229642Y-98155714D01*
X153324880Y-98203333D01*
X154182023Y-98774761D02*
X154086785Y-98822380D01*
X153896309Y-98822380D01*
X153801071Y-98774761D01*
X153753452Y-98727142D01*
X153705833Y-98631904D01*
X153705833Y-98346190D01*
X153753452Y-98250952D01*
X153801071Y-98203333D01*
X153896309Y-98155714D01*
X154086785Y-98155714D01*
X154182023Y-98203333D01*
M02*
