G04 #@! TF.GenerationSoftware,KiCad,Pcbnew,(5.1.5-0-10_14)*
G04 #@! TF.CreationDate,2020-11-03T15:19:47-05:00*
G04 #@! TF.ProjectId,FC_Rear_Port_1P,46435f52-6561-4725-9f50-6f72745f3150,rev?*
G04 #@! TF.SameCoordinates,Original*
G04 #@! TF.FileFunction,Copper,L2,Bot*
G04 #@! TF.FilePolarity,Positive*
%FSLAX46Y46*%
G04 Gerber Fmt 4.6, Leading zero omitted, Abs format (unit mm)*
G04 Created by KiCad (PCBNEW (5.1.5-0-10_14)) date 2020-11-03 15:19:47*
%MOMM*%
%LPD*%
G04 APERTURE LIST*
%ADD10C,1.300000*%
%ADD11C,0.250000*%
%ADD12C,1.500000*%
%ADD13C,2.180000*%
%ADD14C,2.000000*%
%ADD15C,0.800000*%
%ADD16C,0.400000*%
%ADD17C,0.250000*%
G04 APERTURE END LIST*
D10*
X157970000Y-98870000D03*
D11*
X157970000Y-100870000D03*
D12*
X157970000Y-102870000D03*
X155970000Y-102870000D03*
X155970000Y-100870000D03*
X155970000Y-98870000D03*
D13*
X160480000Y-92770000D03*
X160480000Y-96770000D03*
X160480000Y-100770000D03*
X160480000Y-104770000D03*
X164480000Y-104770000D03*
X164480000Y-100770000D03*
X164480000Y-96770000D03*
X145540000Y-84720000D03*
X145540000Y-88720000D03*
X145540000Y-92720000D03*
X145540000Y-96720000D03*
X145540000Y-103220000D03*
X145540000Y-107220000D03*
X145540000Y-111220000D03*
D14*
X158240000Y-98330000D03*
D11*
X158240000Y-100870000D03*
D14*
X158240000Y-103410000D03*
X155700000Y-103410000D03*
X155700000Y-100870000D03*
X155700000Y-98330000D03*
D15*
X157703520Y-92168980D03*
X156921200Y-95001080D03*
X163192460Y-93047820D03*
X165961060Y-93047820D03*
X151157940Y-107147360D03*
X156867860Y-107147360D03*
X162577780Y-107147360D03*
X162577780Y-110048040D03*
X156846270Y-110048040D03*
X151114760Y-110048040D03*
X144129760Y-101173280D03*
X144129760Y-94716600D03*
X141361160Y-94716600D03*
X141361160Y-101173280D03*
X153309320Y-90850720D03*
X149004020Y-86898480D03*
X151465280Y-84701380D03*
X155417520Y-88567260D03*
X153484580Y-104556560D03*
X151597360Y-100647500D03*
X147424140Y-99065080D03*
X148653500Y-93705680D03*
X150982680Y-92125800D03*
X153266140Y-98582480D03*
X170441620Y-97307400D03*
X170484800Y-100779580D03*
X170484800Y-104206040D03*
X167236140Y-111320580D03*
X164378640Y-113210340D03*
X161787840Y-115097560D03*
X138681460Y-94673420D03*
X138595100Y-97967800D03*
X138595100Y-101262180D03*
D16*
X158889238Y-98870000D02*
X157970000Y-98870000D01*
X158240000Y-98330000D02*
X158240000Y-98653060D01*
X158240000Y-98653060D02*
X157896560Y-98996500D01*
X157970000Y-99138960D02*
X157970000Y-98870000D01*
X158023560Y-99766120D02*
X157716220Y-99766120D01*
X157660340Y-99448620D02*
X157970000Y-99138960D01*
X157660340Y-99672140D02*
X157660340Y-99448620D01*
X157596840Y-99885500D02*
X157660340Y-99672140D01*
X157716220Y-99766120D02*
X157596840Y-99885500D01*
X157716220Y-99766120D02*
X157568900Y-99766120D01*
D17*
X153850000Y-93430000D02*
X149140000Y-88720000D01*
X149140000Y-88720000D02*
X145540000Y-88720000D01*
X157140000Y-93430000D02*
X153850000Y-93430000D01*
X160480000Y-96770000D02*
X157140000Y-93430000D01*
X160480000Y-100770000D02*
X161895001Y-102185001D01*
X143940000Y-92720000D02*
X145540000Y-92720000D01*
X142720000Y-93940000D02*
X143940000Y-92720000D01*
X144406960Y-105216960D02*
X142720000Y-103530000D01*
X146466960Y-105216960D02*
X144406960Y-105216960D01*
X149740000Y-108490000D02*
X146466960Y-105216960D01*
X162460000Y-102750000D02*
X165950000Y-102750000D01*
X160480000Y-100770000D02*
X162460000Y-102750000D01*
X167160000Y-105730000D02*
X164400000Y-108490000D01*
X165950000Y-102750000D02*
X167160000Y-103960000D01*
X167160000Y-103960000D02*
X167160000Y-105730000D01*
X142720000Y-103530000D02*
X142720000Y-93940000D01*
X164400000Y-108490000D02*
X149740000Y-108490000D01*
X158240000Y-104071492D02*
X158240000Y-103945001D01*
X158938508Y-104770000D02*
X158240000Y-104071492D01*
X160480000Y-104770000D02*
X158938508Y-104770000D01*
G36*
X153051849Y-80832395D02*
G01*
X153053570Y-80847819D01*
X153054057Y-80852447D01*
X153090143Y-81174165D01*
X153097670Y-81209579D01*
X153104722Y-81245192D01*
X153106374Y-81250528D01*
X153204263Y-81559111D01*
X153218547Y-81592438D01*
X153232360Y-81625950D01*
X153235016Y-81630863D01*
X153390977Y-81914556D01*
X153411475Y-81944492D01*
X153431522Y-81974666D01*
X153435082Y-81978970D01*
X153643176Y-82226967D01*
X153669080Y-82252333D01*
X153694625Y-82278057D01*
X153698953Y-82281587D01*
X153951253Y-82484441D01*
X153981588Y-82504292D01*
X154011644Y-82524565D01*
X154016568Y-82527183D01*
X154016576Y-82527188D01*
X154016584Y-82527191D01*
X154303473Y-82677173D01*
X154337095Y-82690757D01*
X154370508Y-82704803D01*
X154375855Y-82706418D01*
X154686419Y-82797822D01*
X154722035Y-82804616D01*
X154757543Y-82811905D01*
X154763102Y-82812450D01*
X155085505Y-82841792D01*
X155121759Y-82841539D01*
X155158013Y-82841792D01*
X155163572Y-82841247D01*
X155485535Y-82807407D01*
X155521054Y-82800116D01*
X155556661Y-82793323D01*
X155562008Y-82791709D01*
X155871266Y-82695977D01*
X155904659Y-82681940D01*
X155938300Y-82668348D01*
X155943231Y-82665726D01*
X156228006Y-82511749D01*
X156258057Y-82491479D01*
X156288398Y-82471624D01*
X156292726Y-82468094D01*
X156542169Y-82261737D01*
X156567714Y-82236013D01*
X156593618Y-82210647D01*
X156597178Y-82206344D01*
X156801789Y-81955465D01*
X156821847Y-81925276D01*
X156842333Y-81895356D01*
X156844990Y-81890443D01*
X156996976Y-81604601D01*
X157010792Y-81571079D01*
X157025073Y-81537759D01*
X157026725Y-81532424D01*
X157120295Y-81222505D01*
X157127342Y-81186913D01*
X157134874Y-81151479D01*
X157135458Y-81145925D01*
X157166466Y-80829676D01*
X157168203Y-80816151D01*
X157253682Y-77923113D01*
X166852383Y-77917511D01*
X170153733Y-88678064D01*
X170830002Y-91185560D01*
X170990115Y-92201094D01*
X171012174Y-92601513D01*
X171349439Y-106145352D01*
X171169919Y-109321666D01*
X170337557Y-109988844D01*
X158085796Y-118118940D01*
X157227547Y-118118940D01*
X157175990Y-115316938D01*
X157174270Y-115302247D01*
X157148297Y-115022162D01*
X157141874Y-114988799D01*
X157136295Y-114955265D01*
X157134808Y-114949882D01*
X157046423Y-114638470D01*
X157033161Y-114604707D01*
X157020385Y-114570799D01*
X157017881Y-114565807D01*
X156870692Y-114277494D01*
X156851140Y-114246974D01*
X156832007Y-114216170D01*
X156828584Y-114211765D01*
X156828580Y-114211759D01*
X156828576Y-114211754D01*
X156628194Y-113957526D01*
X156603092Y-113931391D01*
X156578335Y-113904884D01*
X156574117Y-113901223D01*
X156328166Y-113690753D01*
X156298467Y-113669992D01*
X156269032Y-113648798D01*
X156264183Y-113646026D01*
X155982036Y-113487336D01*
X155948862Y-113472736D01*
X155915878Y-113457666D01*
X155910583Y-113455889D01*
X155602988Y-113355024D01*
X155567602Y-113347143D01*
X155532327Y-113338769D01*
X155526788Y-113338054D01*
X155205458Y-113298856D01*
X155169196Y-113297998D01*
X155132987Y-113296636D01*
X155127414Y-113297010D01*
X155127412Y-113297010D01*
X154804590Y-113320971D01*
X154768831Y-113327176D01*
X154733066Y-113332870D01*
X154727681Y-113334318D01*
X154727673Y-113334319D01*
X154727666Y-113334322D01*
X154415651Y-113420528D01*
X154381777Y-113433561D01*
X154347800Y-113446093D01*
X154342800Y-113448558D01*
X154342791Y-113448562D01*
X154342783Y-113448567D01*
X154053457Y-113593736D01*
X154022794Y-113613079D01*
X153991866Y-113631991D01*
X153987431Y-113635386D01*
X153731804Y-113833992D01*
X153705452Y-113858951D01*
X153678816Y-113883483D01*
X153675125Y-113887675D01*
X153462943Y-114132151D01*
X153441950Y-114161740D01*
X153420577Y-114190991D01*
X153417771Y-114195820D01*
X153257115Y-114476853D01*
X153242261Y-114509973D01*
X153226984Y-114542802D01*
X153225173Y-114548074D01*
X153225169Y-114548084D01*
X153225167Y-114548093D01*
X153122160Y-114854969D01*
X153114029Y-114890315D01*
X153105412Y-114925515D01*
X153104658Y-114931049D01*
X153067936Y-115215543D01*
X153067158Y-115217955D01*
X153060336Y-115276611D01*
X153010299Y-118115773D01*
X142271367Y-118098650D01*
X141493182Y-118027145D01*
X140759104Y-117820113D01*
X140075044Y-117482773D01*
X139463913Y-117026421D01*
X138946183Y-116466342D01*
X138539186Y-115821291D01*
X138256555Y-115112871D01*
X138106214Y-114357059D01*
X138083208Y-113918076D01*
X138078536Y-112326394D01*
X144539672Y-112326394D01*
X144647829Y-112575565D01*
X144929430Y-112723571D01*
X145234494Y-112813797D01*
X145551298Y-112842773D01*
X145867669Y-112809388D01*
X146171447Y-112714923D01*
X146432171Y-112575565D01*
X146540328Y-112326394D01*
X145540000Y-111326066D01*
X144539672Y-112326394D01*
X138078536Y-112326394D01*
X138075320Y-111231298D01*
X143917227Y-111231298D01*
X143950612Y-111547669D01*
X144045077Y-111851447D01*
X144184435Y-112112171D01*
X144433606Y-112220328D01*
X145433934Y-111220000D01*
X145646066Y-111220000D01*
X146646394Y-112220328D01*
X146895565Y-112112171D01*
X147043571Y-111830570D01*
X147133797Y-111525506D01*
X147162773Y-111208702D01*
X147129388Y-110892331D01*
X147034923Y-110588553D01*
X146895565Y-110327829D01*
X146646394Y-110219672D01*
X145646066Y-111220000D01*
X145433934Y-111220000D01*
X144433606Y-110219672D01*
X144184435Y-110327829D01*
X144036429Y-110609430D01*
X143946203Y-110914494D01*
X143917227Y-111231298D01*
X138075320Y-111231298D01*
X138072039Y-110113606D01*
X144539672Y-110113606D01*
X145540000Y-111113934D01*
X146540328Y-110113606D01*
X146432171Y-109864435D01*
X146150570Y-109716429D01*
X145845506Y-109626203D01*
X145528702Y-109597227D01*
X145212331Y-109630612D01*
X144908553Y-109725077D01*
X144647829Y-109864435D01*
X144539672Y-110113606D01*
X138072039Y-110113606D01*
X138024553Y-93940000D01*
X142167340Y-93940000D01*
X142170001Y-93967018D01*
X142170000Y-103502992D01*
X142167340Y-103530000D01*
X142170000Y-103557008D01*
X142170000Y-103557017D01*
X142177958Y-103637818D01*
X142209408Y-103741493D01*
X142260479Y-103837042D01*
X142329210Y-103920790D01*
X142350196Y-103938013D01*
X143998947Y-105586764D01*
X144016170Y-105607750D01*
X144037156Y-105624973D01*
X144099918Y-105676481D01*
X144195465Y-105727552D01*
X144292601Y-105757018D01*
X144299141Y-105759002D01*
X144379942Y-105766960D01*
X144379949Y-105766960D01*
X144406960Y-105769620D01*
X144433971Y-105766960D01*
X145089064Y-105766960D01*
X144822379Y-105877425D01*
X144574244Y-106043223D01*
X144363223Y-106254244D01*
X144197425Y-106502379D01*
X144083221Y-106778091D01*
X144025000Y-107070786D01*
X144025000Y-107369214D01*
X144083221Y-107661909D01*
X144197425Y-107937621D01*
X144363223Y-108185756D01*
X144574244Y-108396777D01*
X144822379Y-108562575D01*
X145098091Y-108676779D01*
X145390786Y-108735000D01*
X145689214Y-108735000D01*
X145981909Y-108676779D01*
X146257621Y-108562575D01*
X146505756Y-108396777D01*
X146716777Y-108185756D01*
X146882575Y-107937621D01*
X146996779Y-107661909D01*
X147055000Y-107369214D01*
X147055000Y-107070786D01*
X146996779Y-106778091D01*
X146882575Y-106502379D01*
X146716777Y-106254244D01*
X146505756Y-106043223D01*
X146257621Y-105877425D01*
X145990936Y-105766960D01*
X146239143Y-105766960D01*
X149331987Y-108859804D01*
X149349210Y-108880790D01*
X149432958Y-108949521D01*
X149528506Y-109000592D01*
X149632181Y-109032042D01*
X149712982Y-109040000D01*
X149712989Y-109040000D01*
X149740000Y-109042660D01*
X149767011Y-109040000D01*
X164372992Y-109040000D01*
X164400000Y-109042660D01*
X164427008Y-109040000D01*
X164427018Y-109040000D01*
X164507819Y-109032042D01*
X164611494Y-109000592D01*
X164707042Y-108949521D01*
X164790790Y-108880790D01*
X164808013Y-108859804D01*
X167529810Y-106138008D01*
X167550790Y-106120790D01*
X167568008Y-106099810D01*
X167568013Y-106099805D01*
X167619520Y-106037043D01*
X167651529Y-105977158D01*
X167670592Y-105941494D01*
X167702042Y-105837819D01*
X167710000Y-105757018D01*
X167710000Y-105757009D01*
X167712660Y-105730001D01*
X167710000Y-105702993D01*
X167710000Y-103987007D01*
X167712660Y-103959999D01*
X167710000Y-103932991D01*
X167710000Y-103932982D01*
X167702042Y-103852181D01*
X167670592Y-103748506D01*
X167619521Y-103652958D01*
X167610607Y-103642097D01*
X167568013Y-103590195D01*
X167568008Y-103590190D01*
X167550790Y-103569210D01*
X167529810Y-103551992D01*
X166358012Y-102380195D01*
X166340790Y-102359210D01*
X166257042Y-102290479D01*
X166161494Y-102239408D01*
X166057819Y-102207958D01*
X165977018Y-102200000D01*
X165977008Y-102200000D01*
X165950000Y-102197340D01*
X165922992Y-102200000D01*
X164986559Y-102200000D01*
X165197621Y-102112575D01*
X165445756Y-101946777D01*
X165656777Y-101735756D01*
X165822575Y-101487621D01*
X165936779Y-101211909D01*
X165995000Y-100919214D01*
X165995000Y-100620786D01*
X165936779Y-100328091D01*
X165822575Y-100052379D01*
X165656777Y-99804244D01*
X165445756Y-99593223D01*
X165197621Y-99427425D01*
X164921909Y-99313221D01*
X164629214Y-99255000D01*
X164330786Y-99255000D01*
X164038091Y-99313221D01*
X163762379Y-99427425D01*
X163514244Y-99593223D01*
X163303223Y-99804244D01*
X163137425Y-100052379D01*
X163023221Y-100328091D01*
X162965000Y-100620786D01*
X162965000Y-100919214D01*
X163023221Y-101211909D01*
X163137425Y-101487621D01*
X163303223Y-101735756D01*
X163514244Y-101946777D01*
X163762379Y-102112575D01*
X163973441Y-102200000D01*
X162687818Y-102200000D01*
X161867348Y-101379530D01*
X161936779Y-101211909D01*
X161995000Y-100919214D01*
X161995000Y-100620786D01*
X161936779Y-100328091D01*
X161822575Y-100052379D01*
X161656777Y-99804244D01*
X161445756Y-99593223D01*
X161197621Y-99427425D01*
X160921909Y-99313221D01*
X160629214Y-99255000D01*
X160330786Y-99255000D01*
X160038091Y-99313221D01*
X159762379Y-99427425D01*
X159514244Y-99593223D01*
X159303223Y-99804244D01*
X159137425Y-100052379D01*
X159023221Y-100328091D01*
X158965000Y-100620786D01*
X158965000Y-100919214D01*
X159023221Y-101211909D01*
X159137425Y-101487621D01*
X159303223Y-101735756D01*
X159514244Y-101946777D01*
X159762379Y-102112575D01*
X160038091Y-102226779D01*
X160330786Y-102285000D01*
X160629214Y-102285000D01*
X160921909Y-102226779D01*
X161089530Y-102157348D01*
X162051992Y-103119810D01*
X162069210Y-103140790D01*
X162090190Y-103158008D01*
X162090195Y-103158013D01*
X162152958Y-103209521D01*
X162248505Y-103260592D01*
X162272635Y-103267912D01*
X162352181Y-103292042D01*
X162432982Y-103300000D01*
X162432992Y-103300000D01*
X162460000Y-103302660D01*
X162487008Y-103300000D01*
X164104557Y-103300000D01*
X164038091Y-103313221D01*
X163762379Y-103427425D01*
X163514244Y-103593223D01*
X163303223Y-103804244D01*
X163137425Y-104052379D01*
X163023221Y-104328091D01*
X162965000Y-104620786D01*
X162965000Y-104919214D01*
X163023221Y-105211909D01*
X163137425Y-105487621D01*
X163303223Y-105735756D01*
X163514244Y-105946777D01*
X163762379Y-106112575D01*
X164038091Y-106226779D01*
X164330786Y-106285000D01*
X164629214Y-106285000D01*
X164921909Y-106226779D01*
X165197621Y-106112575D01*
X165445756Y-105946777D01*
X165656777Y-105735756D01*
X165822575Y-105487621D01*
X165936779Y-105211909D01*
X165995000Y-104919214D01*
X165995000Y-104620786D01*
X165936779Y-104328091D01*
X165822575Y-104052379D01*
X165656777Y-103804244D01*
X165445756Y-103593223D01*
X165197621Y-103427425D01*
X164921909Y-103313221D01*
X164855443Y-103300000D01*
X165722183Y-103300000D01*
X166610000Y-104187818D01*
X166610001Y-105502181D01*
X164172183Y-107940000D01*
X149967817Y-107940000D01*
X146874973Y-104847156D01*
X146857750Y-104826170D01*
X146774002Y-104757439D01*
X146678454Y-104706368D01*
X146574779Y-104674918D01*
X146493978Y-104666960D01*
X146493968Y-104666960D01*
X146466960Y-104664300D01*
X146439952Y-104666960D01*
X146005614Y-104666960D01*
X146257621Y-104562575D01*
X146505756Y-104396777D01*
X146716777Y-104185756D01*
X146882575Y-103937621D01*
X146996779Y-103661909D01*
X147055000Y-103369214D01*
X147055000Y-103070786D01*
X146996779Y-102778091D01*
X146882575Y-102502379D01*
X146716777Y-102254244D01*
X146505756Y-102043223D01*
X146257621Y-101877425D01*
X145981909Y-101763221D01*
X145689214Y-101705000D01*
X145390786Y-101705000D01*
X145098091Y-101763221D01*
X144822379Y-101877425D01*
X144574244Y-102043223D01*
X144363223Y-102254244D01*
X144197425Y-102502379D01*
X144083221Y-102778091D01*
X144025000Y-103070786D01*
X144025000Y-103369214D01*
X144083221Y-103661909D01*
X144197425Y-103937621D01*
X144363223Y-104185756D01*
X144574244Y-104396777D01*
X144822379Y-104562575D01*
X145074386Y-104666960D01*
X144634777Y-104666960D01*
X143270000Y-103302183D01*
X143270000Y-96570786D01*
X144025000Y-96570786D01*
X144025000Y-96869214D01*
X144083221Y-97161909D01*
X144197425Y-97437621D01*
X144363223Y-97685756D01*
X144574244Y-97896777D01*
X144822379Y-98062575D01*
X145098091Y-98176779D01*
X145390786Y-98235000D01*
X145689214Y-98235000D01*
X145981909Y-98176779D01*
X146257621Y-98062575D01*
X146505756Y-97896777D01*
X146716777Y-97685756D01*
X146882575Y-97437621D01*
X146996779Y-97161909D01*
X147055000Y-96869214D01*
X147055000Y-96570786D01*
X146996779Y-96278091D01*
X146882575Y-96002379D01*
X146716777Y-95754244D01*
X146505756Y-95543223D01*
X146257621Y-95377425D01*
X145981909Y-95263221D01*
X145689214Y-95205000D01*
X145390786Y-95205000D01*
X145098091Y-95263221D01*
X144822379Y-95377425D01*
X144574244Y-95543223D01*
X144363223Y-95754244D01*
X144197425Y-96002379D01*
X144083221Y-96278091D01*
X144025000Y-96570786D01*
X143270000Y-96570786D01*
X143270000Y-94167817D01*
X144139658Y-93298159D01*
X144197425Y-93437621D01*
X144363223Y-93685756D01*
X144574244Y-93896777D01*
X144822379Y-94062575D01*
X145098091Y-94176779D01*
X145390786Y-94235000D01*
X145689214Y-94235000D01*
X145981909Y-94176779D01*
X146257621Y-94062575D01*
X146505756Y-93896777D01*
X146716777Y-93685756D01*
X146882575Y-93437621D01*
X146996779Y-93161909D01*
X147055000Y-92869214D01*
X147055000Y-92570786D01*
X146996779Y-92278091D01*
X146882575Y-92002379D01*
X146716777Y-91754244D01*
X146505756Y-91543223D01*
X146257621Y-91377425D01*
X145981909Y-91263221D01*
X145689214Y-91205000D01*
X145390786Y-91205000D01*
X145098091Y-91263221D01*
X144822379Y-91377425D01*
X144574244Y-91543223D01*
X144363223Y-91754244D01*
X144197425Y-92002379D01*
X144127994Y-92170000D01*
X143967011Y-92170000D01*
X143940000Y-92167340D01*
X143912989Y-92170000D01*
X143912982Y-92170000D01*
X143832181Y-92177958D01*
X143728506Y-92209408D01*
X143632958Y-92260479D01*
X143549210Y-92329210D01*
X143531987Y-92350196D01*
X142350191Y-93531992D01*
X142329211Y-93549210D01*
X142311993Y-93570190D01*
X142311987Y-93570196D01*
X142260479Y-93632958D01*
X142255917Y-93641494D01*
X142209409Y-93728506D01*
X142181415Y-93820790D01*
X142177959Y-93832182D01*
X142167340Y-93940000D01*
X138024553Y-93940000D01*
X138008790Y-88570786D01*
X144025000Y-88570786D01*
X144025000Y-88869214D01*
X144083221Y-89161909D01*
X144197425Y-89437621D01*
X144363223Y-89685756D01*
X144574244Y-89896777D01*
X144822379Y-90062575D01*
X145098091Y-90176779D01*
X145390786Y-90235000D01*
X145689214Y-90235000D01*
X145981909Y-90176779D01*
X146257621Y-90062575D01*
X146505756Y-89896777D01*
X146716777Y-89685756D01*
X146882575Y-89437621D01*
X146952006Y-89270000D01*
X148912183Y-89270000D01*
X153441992Y-93799810D01*
X153459210Y-93820790D01*
X153480190Y-93838008D01*
X153480195Y-93838013D01*
X153526963Y-93876394D01*
X153542958Y-93889521D01*
X153638506Y-93940592D01*
X153742181Y-93972042D01*
X153822982Y-93980000D01*
X153822992Y-93980000D01*
X153850000Y-93982660D01*
X153877008Y-93980000D01*
X156912183Y-93980000D01*
X159092652Y-96160470D01*
X159023221Y-96328091D01*
X158965000Y-96620786D01*
X158965000Y-96919214D01*
X158980309Y-96996176D01*
X158812667Y-96908648D01*
X158524371Y-96824237D01*
X158225147Y-96797692D01*
X157926494Y-96830033D01*
X157639889Y-96920016D01*
X157401045Y-97047681D01*
X157303706Y-97287640D01*
X157731549Y-97715483D01*
X157711596Y-97717939D01*
X157568956Y-97765022D01*
X157197640Y-97393706D01*
X156957681Y-97491045D01*
X156911878Y-97578771D01*
X156806870Y-97421615D01*
X156608385Y-97223130D01*
X156374991Y-97067181D01*
X156115657Y-96959762D01*
X155840350Y-96905000D01*
X155559650Y-96905000D01*
X155284343Y-96959762D01*
X155025009Y-97067181D01*
X154791615Y-97223130D01*
X154593130Y-97421615D01*
X154437181Y-97655009D01*
X154329762Y-97914343D01*
X154275000Y-98189650D01*
X154275000Y-98470350D01*
X154329762Y-98745657D01*
X154437181Y-99004991D01*
X154593130Y-99238385D01*
X154791615Y-99436870D01*
X155025009Y-99592819D01*
X155042346Y-99600000D01*
X155025009Y-99607181D01*
X154791615Y-99763130D01*
X154593130Y-99961615D01*
X154437181Y-100195009D01*
X154329762Y-100454343D01*
X154275000Y-100729650D01*
X154275000Y-101010350D01*
X154329762Y-101285657D01*
X154437181Y-101544991D01*
X154593130Y-101778385D01*
X154791615Y-101976870D01*
X155025009Y-102132819D01*
X155042346Y-102140000D01*
X155025009Y-102147181D01*
X154791615Y-102303130D01*
X154593130Y-102501615D01*
X154437181Y-102735009D01*
X154329762Y-102994343D01*
X154275000Y-103269650D01*
X154275000Y-103550350D01*
X154329762Y-103825657D01*
X154437181Y-104084991D01*
X154593130Y-104318385D01*
X154791615Y-104516870D01*
X155025009Y-104672819D01*
X155284343Y-104780238D01*
X155559650Y-104835000D01*
X155840350Y-104835000D01*
X156115657Y-104780238D01*
X156374991Y-104672819D01*
X156608385Y-104516870D01*
X156806870Y-104318385D01*
X156962819Y-104084991D01*
X156970000Y-104067654D01*
X156977181Y-104084991D01*
X157133130Y-104318385D01*
X157331615Y-104516870D01*
X157565009Y-104672819D01*
X157824343Y-104780238D01*
X158099650Y-104835000D01*
X158225691Y-104835000D01*
X158530495Y-105139804D01*
X158547718Y-105160790D01*
X158631466Y-105229521D01*
X158727014Y-105280592D01*
X158830689Y-105312042D01*
X158911490Y-105320000D01*
X158911499Y-105320000D01*
X158938507Y-105322660D01*
X158965515Y-105320000D01*
X159067994Y-105320000D01*
X159137425Y-105487621D01*
X159303223Y-105735756D01*
X159514244Y-105946777D01*
X159762379Y-106112575D01*
X160038091Y-106226779D01*
X160330786Y-106285000D01*
X160629214Y-106285000D01*
X160921909Y-106226779D01*
X161197621Y-106112575D01*
X161445756Y-105946777D01*
X161656777Y-105735756D01*
X161822575Y-105487621D01*
X161936779Y-105211909D01*
X161995000Y-104919214D01*
X161995000Y-104620786D01*
X161936779Y-104328091D01*
X161822575Y-104052379D01*
X161656777Y-103804244D01*
X161445756Y-103593223D01*
X161197621Y-103427425D01*
X160921909Y-103313221D01*
X160629214Y-103255000D01*
X160330786Y-103255000D01*
X160038091Y-103313221D01*
X159762379Y-103427425D01*
X159665000Y-103492491D01*
X159665000Y-103269650D01*
X159610238Y-102994343D01*
X159502819Y-102735009D01*
X159346870Y-102501615D01*
X159148385Y-102303130D01*
X158914991Y-102147181D01*
X158894523Y-102138703D01*
X158882682Y-102120981D01*
X158719019Y-101957318D01*
X158526571Y-101828729D01*
X158312735Y-101740155D01*
X158085727Y-101695000D01*
X157854273Y-101695000D01*
X157627265Y-101740155D01*
X157413429Y-101828729D01*
X157220981Y-101957318D01*
X157057318Y-102120981D01*
X156970000Y-102251662D01*
X156882682Y-102120981D01*
X156719019Y-101957318D01*
X156664419Y-101920836D01*
X156806870Y-101778385D01*
X156962819Y-101544991D01*
X157070238Y-101285657D01*
X157070791Y-101282878D01*
X157099845Y-101212735D01*
X157145000Y-100985727D01*
X157145000Y-100815830D01*
X157420000Y-100815830D01*
X157420000Y-100924170D01*
X157441136Y-101030429D01*
X157482597Y-101130523D01*
X157542787Y-101220604D01*
X157619396Y-101297213D01*
X157709477Y-101357403D01*
X157809571Y-101398864D01*
X157915830Y-101420000D01*
X158024170Y-101420000D01*
X158105000Y-101403922D01*
X158185830Y-101420000D01*
X158294170Y-101420000D01*
X158400429Y-101398864D01*
X158500523Y-101357403D01*
X158590604Y-101297213D01*
X158667213Y-101220604D01*
X158727403Y-101130523D01*
X158768864Y-101030429D01*
X158790000Y-100924170D01*
X158790000Y-100815830D01*
X158768864Y-100709571D01*
X158727403Y-100609477D01*
X158667213Y-100519396D01*
X158590604Y-100442787D01*
X158500523Y-100382597D01*
X158400429Y-100341136D01*
X158294170Y-100320000D01*
X158185830Y-100320000D01*
X158105000Y-100336078D01*
X158024170Y-100320000D01*
X157915830Y-100320000D01*
X157809571Y-100341136D01*
X157709477Y-100382597D01*
X157619396Y-100442787D01*
X157542787Y-100519396D01*
X157482597Y-100609477D01*
X157441136Y-100709571D01*
X157420000Y-100815830D01*
X157145000Y-100815830D01*
X157145000Y-100754273D01*
X157099845Y-100527265D01*
X157070791Y-100457122D01*
X157070238Y-100454343D01*
X156962819Y-100195009D01*
X156806870Y-99961615D01*
X156664419Y-99819164D01*
X156719019Y-99782682D01*
X156882682Y-99619019D01*
X156967441Y-99492167D01*
X156972650Y-99501912D01*
X157176802Y-99557132D01*
X157320406Y-99413528D01*
X157381624Y-99564442D01*
X157282868Y-99663198D01*
X157338088Y-99867350D01*
X157544804Y-99971466D01*
X157767859Y-100033253D01*
X157998683Y-100050337D01*
X158228404Y-100022061D01*
X158448194Y-99949512D01*
X158601912Y-99867350D01*
X158617454Y-99809890D01*
X158840111Y-99739984D01*
X159078955Y-99612319D01*
X159176294Y-99372360D01*
X159077467Y-99273533D01*
X159123482Y-99107416D01*
X159282360Y-99266294D01*
X159522319Y-99168955D01*
X159661352Y-98902667D01*
X159745763Y-98614371D01*
X159772308Y-98315147D01*
X159749435Y-98103926D01*
X159762379Y-98112575D01*
X160038091Y-98226779D01*
X160330786Y-98285000D01*
X160629214Y-98285000D01*
X160921909Y-98226779D01*
X161197621Y-98112575D01*
X161445756Y-97946777D01*
X161656777Y-97735756D01*
X161822575Y-97487621D01*
X161936779Y-97211909D01*
X161995000Y-96919214D01*
X161995000Y-96620786D01*
X162965000Y-96620786D01*
X162965000Y-96919214D01*
X163023221Y-97211909D01*
X163137425Y-97487621D01*
X163303223Y-97735756D01*
X163514244Y-97946777D01*
X163762379Y-98112575D01*
X164038091Y-98226779D01*
X164330786Y-98285000D01*
X164629214Y-98285000D01*
X164921909Y-98226779D01*
X165197621Y-98112575D01*
X165445756Y-97946777D01*
X165656777Y-97735756D01*
X165822575Y-97487621D01*
X165936779Y-97211909D01*
X165995000Y-96919214D01*
X165995000Y-96620786D01*
X165936779Y-96328091D01*
X165822575Y-96052379D01*
X165656777Y-95804244D01*
X165445756Y-95593223D01*
X165197621Y-95427425D01*
X164921909Y-95313221D01*
X164629214Y-95255000D01*
X164330786Y-95255000D01*
X164038091Y-95313221D01*
X163762379Y-95427425D01*
X163514244Y-95593223D01*
X163303223Y-95804244D01*
X163137425Y-96052379D01*
X163023221Y-96328091D01*
X162965000Y-96620786D01*
X161995000Y-96620786D01*
X161936779Y-96328091D01*
X161822575Y-96052379D01*
X161656777Y-95804244D01*
X161445756Y-95593223D01*
X161197621Y-95427425D01*
X160921909Y-95313221D01*
X160629214Y-95255000D01*
X160330786Y-95255000D01*
X160038091Y-95313221D01*
X159870470Y-95382652D01*
X158364212Y-93876394D01*
X159479672Y-93876394D01*
X159587829Y-94125565D01*
X159869430Y-94273571D01*
X160174494Y-94363797D01*
X160491298Y-94392773D01*
X160807669Y-94359388D01*
X161111447Y-94264923D01*
X161372171Y-94125565D01*
X161480328Y-93876394D01*
X160480000Y-92876066D01*
X159479672Y-93876394D01*
X158364212Y-93876394D01*
X157548012Y-93060195D01*
X157530790Y-93039210D01*
X157447042Y-92970479D01*
X157351494Y-92919408D01*
X157247819Y-92887958D01*
X157167018Y-92880000D01*
X157167008Y-92880000D01*
X157140000Y-92877340D01*
X157112992Y-92880000D01*
X154077818Y-92880000D01*
X153979116Y-92781298D01*
X158857227Y-92781298D01*
X158890612Y-93097669D01*
X158985077Y-93401447D01*
X159124435Y-93662171D01*
X159373606Y-93770328D01*
X160373934Y-92770000D01*
X160586066Y-92770000D01*
X161586394Y-93770328D01*
X161835565Y-93662171D01*
X161983571Y-93380570D01*
X162073797Y-93075506D01*
X162102773Y-92758702D01*
X162069388Y-92442331D01*
X161974923Y-92138553D01*
X161835565Y-91877829D01*
X161586394Y-91769672D01*
X160586066Y-92770000D01*
X160373934Y-92770000D01*
X159373606Y-91769672D01*
X159124435Y-91877829D01*
X158976429Y-92159430D01*
X158886203Y-92464494D01*
X158857227Y-92781298D01*
X153979116Y-92781298D01*
X152861424Y-91663606D01*
X159479672Y-91663606D01*
X160480000Y-92663934D01*
X161480328Y-91663606D01*
X161372171Y-91414435D01*
X161090570Y-91266429D01*
X160785506Y-91176203D01*
X160468702Y-91147227D01*
X160152331Y-91180612D01*
X159848553Y-91275077D01*
X159587829Y-91414435D01*
X159479672Y-91663606D01*
X152861424Y-91663606D01*
X149548013Y-88350196D01*
X149530790Y-88329210D01*
X149447042Y-88260479D01*
X149351494Y-88209408D01*
X149247819Y-88177958D01*
X149167018Y-88170000D01*
X149167008Y-88170000D01*
X149140000Y-88167340D01*
X149112992Y-88170000D01*
X146952006Y-88170000D01*
X146882575Y-88002379D01*
X146716777Y-87754244D01*
X146505756Y-87543223D01*
X146257621Y-87377425D01*
X145981909Y-87263221D01*
X145689214Y-87205000D01*
X145390786Y-87205000D01*
X145098091Y-87263221D01*
X144822379Y-87377425D01*
X144574244Y-87543223D01*
X144363223Y-87754244D01*
X144197425Y-88002379D01*
X144083221Y-88278091D01*
X144025000Y-88570786D01*
X138008790Y-88570786D01*
X137997046Y-84570786D01*
X144025000Y-84570786D01*
X144025000Y-84869214D01*
X144083221Y-85161909D01*
X144197425Y-85437621D01*
X144363223Y-85685756D01*
X144574244Y-85896777D01*
X144822379Y-86062575D01*
X145098091Y-86176779D01*
X145390786Y-86235000D01*
X145689214Y-86235000D01*
X145981909Y-86176779D01*
X146257621Y-86062575D01*
X146505756Y-85896777D01*
X146716777Y-85685756D01*
X146882575Y-85437621D01*
X146996779Y-85161909D01*
X147055000Y-84869214D01*
X147055000Y-84570786D01*
X146996779Y-84278091D01*
X146882575Y-84002379D01*
X146716777Y-83754244D01*
X146505756Y-83543223D01*
X146257621Y-83377425D01*
X145981909Y-83263221D01*
X145689214Y-83205000D01*
X145390786Y-83205000D01*
X145098091Y-83263221D01*
X144822379Y-83377425D01*
X144574244Y-83543223D01*
X144363223Y-83754244D01*
X144197425Y-84002379D01*
X144083221Y-84278091D01*
X144025000Y-84570786D01*
X137997046Y-84570786D01*
X137994543Y-83718574D01*
X139529911Y-79422041D01*
X140140010Y-77941304D01*
X142911938Y-77890316D01*
X153013542Y-77880541D01*
X153051849Y-80832395D01*
G37*
X153051849Y-80832395D02*
X153053570Y-80847819D01*
X153054057Y-80852447D01*
X153090143Y-81174165D01*
X153097670Y-81209579D01*
X153104722Y-81245192D01*
X153106374Y-81250528D01*
X153204263Y-81559111D01*
X153218547Y-81592438D01*
X153232360Y-81625950D01*
X153235016Y-81630863D01*
X153390977Y-81914556D01*
X153411475Y-81944492D01*
X153431522Y-81974666D01*
X153435082Y-81978970D01*
X153643176Y-82226967D01*
X153669080Y-82252333D01*
X153694625Y-82278057D01*
X153698953Y-82281587D01*
X153951253Y-82484441D01*
X153981588Y-82504292D01*
X154011644Y-82524565D01*
X154016568Y-82527183D01*
X154016576Y-82527188D01*
X154016584Y-82527191D01*
X154303473Y-82677173D01*
X154337095Y-82690757D01*
X154370508Y-82704803D01*
X154375855Y-82706418D01*
X154686419Y-82797822D01*
X154722035Y-82804616D01*
X154757543Y-82811905D01*
X154763102Y-82812450D01*
X155085505Y-82841792D01*
X155121759Y-82841539D01*
X155158013Y-82841792D01*
X155163572Y-82841247D01*
X155485535Y-82807407D01*
X155521054Y-82800116D01*
X155556661Y-82793323D01*
X155562008Y-82791709D01*
X155871266Y-82695977D01*
X155904659Y-82681940D01*
X155938300Y-82668348D01*
X155943231Y-82665726D01*
X156228006Y-82511749D01*
X156258057Y-82491479D01*
X156288398Y-82471624D01*
X156292726Y-82468094D01*
X156542169Y-82261737D01*
X156567714Y-82236013D01*
X156593618Y-82210647D01*
X156597178Y-82206344D01*
X156801789Y-81955465D01*
X156821847Y-81925276D01*
X156842333Y-81895356D01*
X156844990Y-81890443D01*
X156996976Y-81604601D01*
X157010792Y-81571079D01*
X157025073Y-81537759D01*
X157026725Y-81532424D01*
X157120295Y-81222505D01*
X157127342Y-81186913D01*
X157134874Y-81151479D01*
X157135458Y-81145925D01*
X157166466Y-80829676D01*
X157168203Y-80816151D01*
X157253682Y-77923113D01*
X166852383Y-77917511D01*
X170153733Y-88678064D01*
X170830002Y-91185560D01*
X170990115Y-92201094D01*
X171012174Y-92601513D01*
X171349439Y-106145352D01*
X171169919Y-109321666D01*
X170337557Y-109988844D01*
X158085796Y-118118940D01*
X157227547Y-118118940D01*
X157175990Y-115316938D01*
X157174270Y-115302247D01*
X157148297Y-115022162D01*
X157141874Y-114988799D01*
X157136295Y-114955265D01*
X157134808Y-114949882D01*
X157046423Y-114638470D01*
X157033161Y-114604707D01*
X157020385Y-114570799D01*
X157017881Y-114565807D01*
X156870692Y-114277494D01*
X156851140Y-114246974D01*
X156832007Y-114216170D01*
X156828584Y-114211765D01*
X156828580Y-114211759D01*
X156828576Y-114211754D01*
X156628194Y-113957526D01*
X156603092Y-113931391D01*
X156578335Y-113904884D01*
X156574117Y-113901223D01*
X156328166Y-113690753D01*
X156298467Y-113669992D01*
X156269032Y-113648798D01*
X156264183Y-113646026D01*
X155982036Y-113487336D01*
X155948862Y-113472736D01*
X155915878Y-113457666D01*
X155910583Y-113455889D01*
X155602988Y-113355024D01*
X155567602Y-113347143D01*
X155532327Y-113338769D01*
X155526788Y-113338054D01*
X155205458Y-113298856D01*
X155169196Y-113297998D01*
X155132987Y-113296636D01*
X155127414Y-113297010D01*
X155127412Y-113297010D01*
X154804590Y-113320971D01*
X154768831Y-113327176D01*
X154733066Y-113332870D01*
X154727681Y-113334318D01*
X154727673Y-113334319D01*
X154727666Y-113334322D01*
X154415651Y-113420528D01*
X154381777Y-113433561D01*
X154347800Y-113446093D01*
X154342800Y-113448558D01*
X154342791Y-113448562D01*
X154342783Y-113448567D01*
X154053457Y-113593736D01*
X154022794Y-113613079D01*
X153991866Y-113631991D01*
X153987431Y-113635386D01*
X153731804Y-113833992D01*
X153705452Y-113858951D01*
X153678816Y-113883483D01*
X153675125Y-113887675D01*
X153462943Y-114132151D01*
X153441950Y-114161740D01*
X153420577Y-114190991D01*
X153417771Y-114195820D01*
X153257115Y-114476853D01*
X153242261Y-114509973D01*
X153226984Y-114542802D01*
X153225173Y-114548074D01*
X153225169Y-114548084D01*
X153225167Y-114548093D01*
X153122160Y-114854969D01*
X153114029Y-114890315D01*
X153105412Y-114925515D01*
X153104658Y-114931049D01*
X153067936Y-115215543D01*
X153067158Y-115217955D01*
X153060336Y-115276611D01*
X153010299Y-118115773D01*
X142271367Y-118098650D01*
X141493182Y-118027145D01*
X140759104Y-117820113D01*
X140075044Y-117482773D01*
X139463913Y-117026421D01*
X138946183Y-116466342D01*
X138539186Y-115821291D01*
X138256555Y-115112871D01*
X138106214Y-114357059D01*
X138083208Y-113918076D01*
X138078536Y-112326394D01*
X144539672Y-112326394D01*
X144647829Y-112575565D01*
X144929430Y-112723571D01*
X145234494Y-112813797D01*
X145551298Y-112842773D01*
X145867669Y-112809388D01*
X146171447Y-112714923D01*
X146432171Y-112575565D01*
X146540328Y-112326394D01*
X145540000Y-111326066D01*
X144539672Y-112326394D01*
X138078536Y-112326394D01*
X138075320Y-111231298D01*
X143917227Y-111231298D01*
X143950612Y-111547669D01*
X144045077Y-111851447D01*
X144184435Y-112112171D01*
X144433606Y-112220328D01*
X145433934Y-111220000D01*
X145646066Y-111220000D01*
X146646394Y-112220328D01*
X146895565Y-112112171D01*
X147043571Y-111830570D01*
X147133797Y-111525506D01*
X147162773Y-111208702D01*
X147129388Y-110892331D01*
X147034923Y-110588553D01*
X146895565Y-110327829D01*
X146646394Y-110219672D01*
X145646066Y-111220000D01*
X145433934Y-111220000D01*
X144433606Y-110219672D01*
X144184435Y-110327829D01*
X144036429Y-110609430D01*
X143946203Y-110914494D01*
X143917227Y-111231298D01*
X138075320Y-111231298D01*
X138072039Y-110113606D01*
X144539672Y-110113606D01*
X145540000Y-111113934D01*
X146540328Y-110113606D01*
X146432171Y-109864435D01*
X146150570Y-109716429D01*
X145845506Y-109626203D01*
X145528702Y-109597227D01*
X145212331Y-109630612D01*
X144908553Y-109725077D01*
X144647829Y-109864435D01*
X144539672Y-110113606D01*
X138072039Y-110113606D01*
X138024553Y-93940000D01*
X142167340Y-93940000D01*
X142170001Y-93967018D01*
X142170000Y-103502992D01*
X142167340Y-103530000D01*
X142170000Y-103557008D01*
X142170000Y-103557017D01*
X142177958Y-103637818D01*
X142209408Y-103741493D01*
X142260479Y-103837042D01*
X142329210Y-103920790D01*
X142350196Y-103938013D01*
X143998947Y-105586764D01*
X144016170Y-105607750D01*
X144037156Y-105624973D01*
X144099918Y-105676481D01*
X144195465Y-105727552D01*
X144292601Y-105757018D01*
X144299141Y-105759002D01*
X144379942Y-105766960D01*
X144379949Y-105766960D01*
X144406960Y-105769620D01*
X144433971Y-105766960D01*
X145089064Y-105766960D01*
X144822379Y-105877425D01*
X144574244Y-106043223D01*
X144363223Y-106254244D01*
X144197425Y-106502379D01*
X144083221Y-106778091D01*
X144025000Y-107070786D01*
X144025000Y-107369214D01*
X144083221Y-107661909D01*
X144197425Y-107937621D01*
X144363223Y-108185756D01*
X144574244Y-108396777D01*
X144822379Y-108562575D01*
X145098091Y-108676779D01*
X145390786Y-108735000D01*
X145689214Y-108735000D01*
X145981909Y-108676779D01*
X146257621Y-108562575D01*
X146505756Y-108396777D01*
X146716777Y-108185756D01*
X146882575Y-107937621D01*
X146996779Y-107661909D01*
X147055000Y-107369214D01*
X147055000Y-107070786D01*
X146996779Y-106778091D01*
X146882575Y-106502379D01*
X146716777Y-106254244D01*
X146505756Y-106043223D01*
X146257621Y-105877425D01*
X145990936Y-105766960D01*
X146239143Y-105766960D01*
X149331987Y-108859804D01*
X149349210Y-108880790D01*
X149432958Y-108949521D01*
X149528506Y-109000592D01*
X149632181Y-109032042D01*
X149712982Y-109040000D01*
X149712989Y-109040000D01*
X149740000Y-109042660D01*
X149767011Y-109040000D01*
X164372992Y-109040000D01*
X164400000Y-109042660D01*
X164427008Y-109040000D01*
X164427018Y-109040000D01*
X164507819Y-109032042D01*
X164611494Y-109000592D01*
X164707042Y-108949521D01*
X164790790Y-108880790D01*
X164808013Y-108859804D01*
X167529810Y-106138008D01*
X167550790Y-106120790D01*
X167568008Y-106099810D01*
X167568013Y-106099805D01*
X167619520Y-106037043D01*
X167651529Y-105977158D01*
X167670592Y-105941494D01*
X167702042Y-105837819D01*
X167710000Y-105757018D01*
X167710000Y-105757009D01*
X167712660Y-105730001D01*
X167710000Y-105702993D01*
X167710000Y-103987007D01*
X167712660Y-103959999D01*
X167710000Y-103932991D01*
X167710000Y-103932982D01*
X167702042Y-103852181D01*
X167670592Y-103748506D01*
X167619521Y-103652958D01*
X167610607Y-103642097D01*
X167568013Y-103590195D01*
X167568008Y-103590190D01*
X167550790Y-103569210D01*
X167529810Y-103551992D01*
X166358012Y-102380195D01*
X166340790Y-102359210D01*
X166257042Y-102290479D01*
X166161494Y-102239408D01*
X166057819Y-102207958D01*
X165977018Y-102200000D01*
X165977008Y-102200000D01*
X165950000Y-102197340D01*
X165922992Y-102200000D01*
X164986559Y-102200000D01*
X165197621Y-102112575D01*
X165445756Y-101946777D01*
X165656777Y-101735756D01*
X165822575Y-101487621D01*
X165936779Y-101211909D01*
X165995000Y-100919214D01*
X165995000Y-100620786D01*
X165936779Y-100328091D01*
X165822575Y-100052379D01*
X165656777Y-99804244D01*
X165445756Y-99593223D01*
X165197621Y-99427425D01*
X164921909Y-99313221D01*
X164629214Y-99255000D01*
X164330786Y-99255000D01*
X164038091Y-99313221D01*
X163762379Y-99427425D01*
X163514244Y-99593223D01*
X163303223Y-99804244D01*
X163137425Y-100052379D01*
X163023221Y-100328091D01*
X162965000Y-100620786D01*
X162965000Y-100919214D01*
X163023221Y-101211909D01*
X163137425Y-101487621D01*
X163303223Y-101735756D01*
X163514244Y-101946777D01*
X163762379Y-102112575D01*
X163973441Y-102200000D01*
X162687818Y-102200000D01*
X161867348Y-101379530D01*
X161936779Y-101211909D01*
X161995000Y-100919214D01*
X161995000Y-100620786D01*
X161936779Y-100328091D01*
X161822575Y-100052379D01*
X161656777Y-99804244D01*
X161445756Y-99593223D01*
X161197621Y-99427425D01*
X160921909Y-99313221D01*
X160629214Y-99255000D01*
X160330786Y-99255000D01*
X160038091Y-99313221D01*
X159762379Y-99427425D01*
X159514244Y-99593223D01*
X159303223Y-99804244D01*
X159137425Y-100052379D01*
X159023221Y-100328091D01*
X158965000Y-100620786D01*
X158965000Y-100919214D01*
X159023221Y-101211909D01*
X159137425Y-101487621D01*
X159303223Y-101735756D01*
X159514244Y-101946777D01*
X159762379Y-102112575D01*
X160038091Y-102226779D01*
X160330786Y-102285000D01*
X160629214Y-102285000D01*
X160921909Y-102226779D01*
X161089530Y-102157348D01*
X162051992Y-103119810D01*
X162069210Y-103140790D01*
X162090190Y-103158008D01*
X162090195Y-103158013D01*
X162152958Y-103209521D01*
X162248505Y-103260592D01*
X162272635Y-103267912D01*
X162352181Y-103292042D01*
X162432982Y-103300000D01*
X162432992Y-103300000D01*
X162460000Y-103302660D01*
X162487008Y-103300000D01*
X164104557Y-103300000D01*
X164038091Y-103313221D01*
X163762379Y-103427425D01*
X163514244Y-103593223D01*
X163303223Y-103804244D01*
X163137425Y-104052379D01*
X163023221Y-104328091D01*
X162965000Y-104620786D01*
X162965000Y-104919214D01*
X163023221Y-105211909D01*
X163137425Y-105487621D01*
X163303223Y-105735756D01*
X163514244Y-105946777D01*
X163762379Y-106112575D01*
X164038091Y-106226779D01*
X164330786Y-106285000D01*
X164629214Y-106285000D01*
X164921909Y-106226779D01*
X165197621Y-106112575D01*
X165445756Y-105946777D01*
X165656777Y-105735756D01*
X165822575Y-105487621D01*
X165936779Y-105211909D01*
X165995000Y-104919214D01*
X165995000Y-104620786D01*
X165936779Y-104328091D01*
X165822575Y-104052379D01*
X165656777Y-103804244D01*
X165445756Y-103593223D01*
X165197621Y-103427425D01*
X164921909Y-103313221D01*
X164855443Y-103300000D01*
X165722183Y-103300000D01*
X166610000Y-104187818D01*
X166610001Y-105502181D01*
X164172183Y-107940000D01*
X149967817Y-107940000D01*
X146874973Y-104847156D01*
X146857750Y-104826170D01*
X146774002Y-104757439D01*
X146678454Y-104706368D01*
X146574779Y-104674918D01*
X146493978Y-104666960D01*
X146493968Y-104666960D01*
X146466960Y-104664300D01*
X146439952Y-104666960D01*
X146005614Y-104666960D01*
X146257621Y-104562575D01*
X146505756Y-104396777D01*
X146716777Y-104185756D01*
X146882575Y-103937621D01*
X146996779Y-103661909D01*
X147055000Y-103369214D01*
X147055000Y-103070786D01*
X146996779Y-102778091D01*
X146882575Y-102502379D01*
X146716777Y-102254244D01*
X146505756Y-102043223D01*
X146257621Y-101877425D01*
X145981909Y-101763221D01*
X145689214Y-101705000D01*
X145390786Y-101705000D01*
X145098091Y-101763221D01*
X144822379Y-101877425D01*
X144574244Y-102043223D01*
X144363223Y-102254244D01*
X144197425Y-102502379D01*
X144083221Y-102778091D01*
X144025000Y-103070786D01*
X144025000Y-103369214D01*
X144083221Y-103661909D01*
X144197425Y-103937621D01*
X144363223Y-104185756D01*
X144574244Y-104396777D01*
X144822379Y-104562575D01*
X145074386Y-104666960D01*
X144634777Y-104666960D01*
X143270000Y-103302183D01*
X143270000Y-96570786D01*
X144025000Y-96570786D01*
X144025000Y-96869214D01*
X144083221Y-97161909D01*
X144197425Y-97437621D01*
X144363223Y-97685756D01*
X144574244Y-97896777D01*
X144822379Y-98062575D01*
X145098091Y-98176779D01*
X145390786Y-98235000D01*
X145689214Y-98235000D01*
X145981909Y-98176779D01*
X146257621Y-98062575D01*
X146505756Y-97896777D01*
X146716777Y-97685756D01*
X146882575Y-97437621D01*
X146996779Y-97161909D01*
X147055000Y-96869214D01*
X147055000Y-96570786D01*
X146996779Y-96278091D01*
X146882575Y-96002379D01*
X146716777Y-95754244D01*
X146505756Y-95543223D01*
X146257621Y-95377425D01*
X145981909Y-95263221D01*
X145689214Y-95205000D01*
X145390786Y-95205000D01*
X145098091Y-95263221D01*
X144822379Y-95377425D01*
X144574244Y-95543223D01*
X144363223Y-95754244D01*
X144197425Y-96002379D01*
X144083221Y-96278091D01*
X144025000Y-96570786D01*
X143270000Y-96570786D01*
X143270000Y-94167817D01*
X144139658Y-93298159D01*
X144197425Y-93437621D01*
X144363223Y-93685756D01*
X144574244Y-93896777D01*
X144822379Y-94062575D01*
X145098091Y-94176779D01*
X145390786Y-94235000D01*
X145689214Y-94235000D01*
X145981909Y-94176779D01*
X146257621Y-94062575D01*
X146505756Y-93896777D01*
X146716777Y-93685756D01*
X146882575Y-93437621D01*
X146996779Y-93161909D01*
X147055000Y-92869214D01*
X147055000Y-92570786D01*
X146996779Y-92278091D01*
X146882575Y-92002379D01*
X146716777Y-91754244D01*
X146505756Y-91543223D01*
X146257621Y-91377425D01*
X145981909Y-91263221D01*
X145689214Y-91205000D01*
X145390786Y-91205000D01*
X145098091Y-91263221D01*
X144822379Y-91377425D01*
X144574244Y-91543223D01*
X144363223Y-91754244D01*
X144197425Y-92002379D01*
X144127994Y-92170000D01*
X143967011Y-92170000D01*
X143940000Y-92167340D01*
X143912989Y-92170000D01*
X143912982Y-92170000D01*
X143832181Y-92177958D01*
X143728506Y-92209408D01*
X143632958Y-92260479D01*
X143549210Y-92329210D01*
X143531987Y-92350196D01*
X142350191Y-93531992D01*
X142329211Y-93549210D01*
X142311993Y-93570190D01*
X142311987Y-93570196D01*
X142260479Y-93632958D01*
X142255917Y-93641494D01*
X142209409Y-93728506D01*
X142181415Y-93820790D01*
X142177959Y-93832182D01*
X142167340Y-93940000D01*
X138024553Y-93940000D01*
X138008790Y-88570786D01*
X144025000Y-88570786D01*
X144025000Y-88869214D01*
X144083221Y-89161909D01*
X144197425Y-89437621D01*
X144363223Y-89685756D01*
X144574244Y-89896777D01*
X144822379Y-90062575D01*
X145098091Y-90176779D01*
X145390786Y-90235000D01*
X145689214Y-90235000D01*
X145981909Y-90176779D01*
X146257621Y-90062575D01*
X146505756Y-89896777D01*
X146716777Y-89685756D01*
X146882575Y-89437621D01*
X146952006Y-89270000D01*
X148912183Y-89270000D01*
X153441992Y-93799810D01*
X153459210Y-93820790D01*
X153480190Y-93838008D01*
X153480195Y-93838013D01*
X153526963Y-93876394D01*
X153542958Y-93889521D01*
X153638506Y-93940592D01*
X153742181Y-93972042D01*
X153822982Y-93980000D01*
X153822992Y-93980000D01*
X153850000Y-93982660D01*
X153877008Y-93980000D01*
X156912183Y-93980000D01*
X159092652Y-96160470D01*
X159023221Y-96328091D01*
X158965000Y-96620786D01*
X158965000Y-96919214D01*
X158980309Y-96996176D01*
X158812667Y-96908648D01*
X158524371Y-96824237D01*
X158225147Y-96797692D01*
X157926494Y-96830033D01*
X157639889Y-96920016D01*
X157401045Y-97047681D01*
X157303706Y-97287640D01*
X157731549Y-97715483D01*
X157711596Y-97717939D01*
X157568956Y-97765022D01*
X157197640Y-97393706D01*
X156957681Y-97491045D01*
X156911878Y-97578771D01*
X156806870Y-97421615D01*
X156608385Y-97223130D01*
X156374991Y-97067181D01*
X156115657Y-96959762D01*
X155840350Y-96905000D01*
X155559650Y-96905000D01*
X155284343Y-96959762D01*
X155025009Y-97067181D01*
X154791615Y-97223130D01*
X154593130Y-97421615D01*
X154437181Y-97655009D01*
X154329762Y-97914343D01*
X154275000Y-98189650D01*
X154275000Y-98470350D01*
X154329762Y-98745657D01*
X154437181Y-99004991D01*
X154593130Y-99238385D01*
X154791615Y-99436870D01*
X155025009Y-99592819D01*
X155042346Y-99600000D01*
X155025009Y-99607181D01*
X154791615Y-99763130D01*
X154593130Y-99961615D01*
X154437181Y-100195009D01*
X154329762Y-100454343D01*
X154275000Y-100729650D01*
X154275000Y-101010350D01*
X154329762Y-101285657D01*
X154437181Y-101544991D01*
X154593130Y-101778385D01*
X154791615Y-101976870D01*
X155025009Y-102132819D01*
X155042346Y-102140000D01*
X155025009Y-102147181D01*
X154791615Y-102303130D01*
X154593130Y-102501615D01*
X154437181Y-102735009D01*
X154329762Y-102994343D01*
X154275000Y-103269650D01*
X154275000Y-103550350D01*
X154329762Y-103825657D01*
X154437181Y-104084991D01*
X154593130Y-104318385D01*
X154791615Y-104516870D01*
X155025009Y-104672819D01*
X155284343Y-104780238D01*
X155559650Y-104835000D01*
X155840350Y-104835000D01*
X156115657Y-104780238D01*
X156374991Y-104672819D01*
X156608385Y-104516870D01*
X156806870Y-104318385D01*
X156962819Y-104084991D01*
X156970000Y-104067654D01*
X156977181Y-104084991D01*
X157133130Y-104318385D01*
X157331615Y-104516870D01*
X157565009Y-104672819D01*
X157824343Y-104780238D01*
X158099650Y-104835000D01*
X158225691Y-104835000D01*
X158530495Y-105139804D01*
X158547718Y-105160790D01*
X158631466Y-105229521D01*
X158727014Y-105280592D01*
X158830689Y-105312042D01*
X158911490Y-105320000D01*
X158911499Y-105320000D01*
X158938507Y-105322660D01*
X158965515Y-105320000D01*
X159067994Y-105320000D01*
X159137425Y-105487621D01*
X159303223Y-105735756D01*
X159514244Y-105946777D01*
X159762379Y-106112575D01*
X160038091Y-106226779D01*
X160330786Y-106285000D01*
X160629214Y-106285000D01*
X160921909Y-106226779D01*
X161197621Y-106112575D01*
X161445756Y-105946777D01*
X161656777Y-105735756D01*
X161822575Y-105487621D01*
X161936779Y-105211909D01*
X161995000Y-104919214D01*
X161995000Y-104620786D01*
X161936779Y-104328091D01*
X161822575Y-104052379D01*
X161656777Y-103804244D01*
X161445756Y-103593223D01*
X161197621Y-103427425D01*
X160921909Y-103313221D01*
X160629214Y-103255000D01*
X160330786Y-103255000D01*
X160038091Y-103313221D01*
X159762379Y-103427425D01*
X159665000Y-103492491D01*
X159665000Y-103269650D01*
X159610238Y-102994343D01*
X159502819Y-102735009D01*
X159346870Y-102501615D01*
X159148385Y-102303130D01*
X158914991Y-102147181D01*
X158894523Y-102138703D01*
X158882682Y-102120981D01*
X158719019Y-101957318D01*
X158526571Y-101828729D01*
X158312735Y-101740155D01*
X158085727Y-101695000D01*
X157854273Y-101695000D01*
X157627265Y-101740155D01*
X157413429Y-101828729D01*
X157220981Y-101957318D01*
X157057318Y-102120981D01*
X156970000Y-102251662D01*
X156882682Y-102120981D01*
X156719019Y-101957318D01*
X156664419Y-101920836D01*
X156806870Y-101778385D01*
X156962819Y-101544991D01*
X157070238Y-101285657D01*
X157070791Y-101282878D01*
X157099845Y-101212735D01*
X157145000Y-100985727D01*
X157145000Y-100815830D01*
X157420000Y-100815830D01*
X157420000Y-100924170D01*
X157441136Y-101030429D01*
X157482597Y-101130523D01*
X157542787Y-101220604D01*
X157619396Y-101297213D01*
X157709477Y-101357403D01*
X157809571Y-101398864D01*
X157915830Y-101420000D01*
X158024170Y-101420000D01*
X158105000Y-101403922D01*
X158185830Y-101420000D01*
X158294170Y-101420000D01*
X158400429Y-101398864D01*
X158500523Y-101357403D01*
X158590604Y-101297213D01*
X158667213Y-101220604D01*
X158727403Y-101130523D01*
X158768864Y-101030429D01*
X158790000Y-100924170D01*
X158790000Y-100815830D01*
X158768864Y-100709571D01*
X158727403Y-100609477D01*
X158667213Y-100519396D01*
X158590604Y-100442787D01*
X158500523Y-100382597D01*
X158400429Y-100341136D01*
X158294170Y-100320000D01*
X158185830Y-100320000D01*
X158105000Y-100336078D01*
X158024170Y-100320000D01*
X157915830Y-100320000D01*
X157809571Y-100341136D01*
X157709477Y-100382597D01*
X157619396Y-100442787D01*
X157542787Y-100519396D01*
X157482597Y-100609477D01*
X157441136Y-100709571D01*
X157420000Y-100815830D01*
X157145000Y-100815830D01*
X157145000Y-100754273D01*
X157099845Y-100527265D01*
X157070791Y-100457122D01*
X157070238Y-100454343D01*
X156962819Y-100195009D01*
X156806870Y-99961615D01*
X156664419Y-99819164D01*
X156719019Y-99782682D01*
X156882682Y-99619019D01*
X156967441Y-99492167D01*
X156972650Y-99501912D01*
X157176802Y-99557132D01*
X157320406Y-99413528D01*
X157381624Y-99564442D01*
X157282868Y-99663198D01*
X157338088Y-99867350D01*
X157544804Y-99971466D01*
X157767859Y-100033253D01*
X157998683Y-100050337D01*
X158228404Y-100022061D01*
X158448194Y-99949512D01*
X158601912Y-99867350D01*
X158617454Y-99809890D01*
X158840111Y-99739984D01*
X159078955Y-99612319D01*
X159176294Y-99372360D01*
X159077467Y-99273533D01*
X159123482Y-99107416D01*
X159282360Y-99266294D01*
X159522319Y-99168955D01*
X159661352Y-98902667D01*
X159745763Y-98614371D01*
X159772308Y-98315147D01*
X159749435Y-98103926D01*
X159762379Y-98112575D01*
X160038091Y-98226779D01*
X160330786Y-98285000D01*
X160629214Y-98285000D01*
X160921909Y-98226779D01*
X161197621Y-98112575D01*
X161445756Y-97946777D01*
X161656777Y-97735756D01*
X161822575Y-97487621D01*
X161936779Y-97211909D01*
X161995000Y-96919214D01*
X161995000Y-96620786D01*
X162965000Y-96620786D01*
X162965000Y-96919214D01*
X163023221Y-97211909D01*
X163137425Y-97487621D01*
X163303223Y-97735756D01*
X163514244Y-97946777D01*
X163762379Y-98112575D01*
X164038091Y-98226779D01*
X164330786Y-98285000D01*
X164629214Y-98285000D01*
X164921909Y-98226779D01*
X165197621Y-98112575D01*
X165445756Y-97946777D01*
X165656777Y-97735756D01*
X165822575Y-97487621D01*
X165936779Y-97211909D01*
X165995000Y-96919214D01*
X165995000Y-96620786D01*
X165936779Y-96328091D01*
X165822575Y-96052379D01*
X165656777Y-95804244D01*
X165445756Y-95593223D01*
X165197621Y-95427425D01*
X164921909Y-95313221D01*
X164629214Y-95255000D01*
X164330786Y-95255000D01*
X164038091Y-95313221D01*
X163762379Y-95427425D01*
X163514244Y-95593223D01*
X163303223Y-95804244D01*
X163137425Y-96052379D01*
X163023221Y-96328091D01*
X162965000Y-96620786D01*
X161995000Y-96620786D01*
X161936779Y-96328091D01*
X161822575Y-96052379D01*
X161656777Y-95804244D01*
X161445756Y-95593223D01*
X161197621Y-95427425D01*
X160921909Y-95313221D01*
X160629214Y-95255000D01*
X160330786Y-95255000D01*
X160038091Y-95313221D01*
X159870470Y-95382652D01*
X158364212Y-93876394D01*
X159479672Y-93876394D01*
X159587829Y-94125565D01*
X159869430Y-94273571D01*
X160174494Y-94363797D01*
X160491298Y-94392773D01*
X160807669Y-94359388D01*
X161111447Y-94264923D01*
X161372171Y-94125565D01*
X161480328Y-93876394D01*
X160480000Y-92876066D01*
X159479672Y-93876394D01*
X158364212Y-93876394D01*
X157548012Y-93060195D01*
X157530790Y-93039210D01*
X157447042Y-92970479D01*
X157351494Y-92919408D01*
X157247819Y-92887958D01*
X157167018Y-92880000D01*
X157167008Y-92880000D01*
X157140000Y-92877340D01*
X157112992Y-92880000D01*
X154077818Y-92880000D01*
X153979116Y-92781298D01*
X158857227Y-92781298D01*
X158890612Y-93097669D01*
X158985077Y-93401447D01*
X159124435Y-93662171D01*
X159373606Y-93770328D01*
X160373934Y-92770000D01*
X160586066Y-92770000D01*
X161586394Y-93770328D01*
X161835565Y-93662171D01*
X161983571Y-93380570D01*
X162073797Y-93075506D01*
X162102773Y-92758702D01*
X162069388Y-92442331D01*
X161974923Y-92138553D01*
X161835565Y-91877829D01*
X161586394Y-91769672D01*
X160586066Y-92770000D01*
X160373934Y-92770000D01*
X159373606Y-91769672D01*
X159124435Y-91877829D01*
X158976429Y-92159430D01*
X158886203Y-92464494D01*
X158857227Y-92781298D01*
X153979116Y-92781298D01*
X152861424Y-91663606D01*
X159479672Y-91663606D01*
X160480000Y-92663934D01*
X161480328Y-91663606D01*
X161372171Y-91414435D01*
X161090570Y-91266429D01*
X160785506Y-91176203D01*
X160468702Y-91147227D01*
X160152331Y-91180612D01*
X159848553Y-91275077D01*
X159587829Y-91414435D01*
X159479672Y-91663606D01*
X152861424Y-91663606D01*
X149548013Y-88350196D01*
X149530790Y-88329210D01*
X149447042Y-88260479D01*
X149351494Y-88209408D01*
X149247819Y-88177958D01*
X149167018Y-88170000D01*
X149167008Y-88170000D01*
X149140000Y-88167340D01*
X149112992Y-88170000D01*
X146952006Y-88170000D01*
X146882575Y-88002379D01*
X146716777Y-87754244D01*
X146505756Y-87543223D01*
X146257621Y-87377425D01*
X145981909Y-87263221D01*
X145689214Y-87205000D01*
X145390786Y-87205000D01*
X145098091Y-87263221D01*
X144822379Y-87377425D01*
X144574244Y-87543223D01*
X144363223Y-87754244D01*
X144197425Y-88002379D01*
X144083221Y-88278091D01*
X144025000Y-88570786D01*
X138008790Y-88570786D01*
X137997046Y-84570786D01*
X144025000Y-84570786D01*
X144025000Y-84869214D01*
X144083221Y-85161909D01*
X144197425Y-85437621D01*
X144363223Y-85685756D01*
X144574244Y-85896777D01*
X144822379Y-86062575D01*
X145098091Y-86176779D01*
X145390786Y-86235000D01*
X145689214Y-86235000D01*
X145981909Y-86176779D01*
X146257621Y-86062575D01*
X146505756Y-85896777D01*
X146716777Y-85685756D01*
X146882575Y-85437621D01*
X146996779Y-85161909D01*
X147055000Y-84869214D01*
X147055000Y-84570786D01*
X146996779Y-84278091D01*
X146882575Y-84002379D01*
X146716777Y-83754244D01*
X146505756Y-83543223D01*
X146257621Y-83377425D01*
X145981909Y-83263221D01*
X145689214Y-83205000D01*
X145390786Y-83205000D01*
X145098091Y-83263221D01*
X144822379Y-83377425D01*
X144574244Y-83543223D01*
X144363223Y-83754244D01*
X144197425Y-84002379D01*
X144083221Y-84278091D01*
X144025000Y-84570786D01*
X137997046Y-84570786D01*
X137994543Y-83718574D01*
X139529911Y-79422041D01*
X140140010Y-77941304D01*
X142911938Y-77890316D01*
X153013542Y-77880541D01*
X153051849Y-80832395D01*
M02*
