G04 #@! TF.GenerationSoftware,KiCad,Pcbnew,(5.1.5-0-10_14)*
G04 #@! TF.CreationDate,2020-11-03T15:19:22-05:00*
G04 #@! TF.ProjectId,FC_Rear_Port_2P,46435f52-6561-4725-9f50-6f72745f3250,rev?*
G04 #@! TF.SameCoordinates,Original*
G04 #@! TF.FileFunction,Legend,Top*
G04 #@! TF.FilePolarity,Positive*
%FSLAX46Y46*%
G04 Gerber Fmt 4.6, Leading zero omitted, Abs format (unit mm)*
G04 Created by KiCad (PCBNEW (5.1.5-0-10_14)) date 2020-11-03 15:19:22*
%MOMM*%
%LPD*%
G04 APERTURE LIST*
%ADD10C,0.120000*%
%ADD11C,0.150000*%
G04 APERTURE END LIST*
D10*
X157300000Y-86110000D02*
X141900000Y-86110000D01*
X141900000Y-86110000D02*
X141900000Y-102950000D01*
X141900000Y-102950000D02*
X157300000Y-102950000D01*
X157300000Y-102950000D02*
X157300000Y-86110000D01*
X159960000Y-77270000D02*
X173960000Y-77270000D01*
X173960000Y-77270000D02*
X173960000Y-107890000D01*
X173960000Y-107890000D02*
X159960000Y-107890000D01*
X159960000Y-107890000D02*
X159960000Y-77270000D01*
D11*
X153959404Y-99540000D02*
X153864166Y-99492380D01*
X153721309Y-99492380D01*
X153578452Y-99540000D01*
X153483214Y-99635238D01*
X153435595Y-99730476D01*
X153387976Y-99920952D01*
X153387976Y-100063809D01*
X153435595Y-100254285D01*
X153483214Y-100349523D01*
X153578452Y-100444761D01*
X153721309Y-100492380D01*
X153816547Y-100492380D01*
X153959404Y-100444761D01*
X154007023Y-100397142D01*
X154007023Y-100063809D01*
X153816547Y-100063809D01*
X154435595Y-100492380D02*
X154435595Y-99492380D01*
X155007023Y-100492380D01*
X155007023Y-99492380D01*
X155483214Y-100492380D02*
X155483214Y-99492380D01*
X155721309Y-99492380D01*
X155864166Y-99540000D01*
X155959404Y-99635238D01*
X156007023Y-99730476D01*
X156054642Y-99920952D01*
X156054642Y-100063809D01*
X156007023Y-100254285D01*
X155959404Y-100349523D01*
X155864166Y-100444761D01*
X155721309Y-100492380D01*
X155483214Y-100492380D01*
X154007023Y-96397142D02*
X153959404Y-96444761D01*
X153816547Y-96492380D01*
X153721309Y-96492380D01*
X153578452Y-96444761D01*
X153483214Y-96349523D01*
X153435595Y-96254285D01*
X153387976Y-96063809D01*
X153387976Y-95920952D01*
X153435595Y-95730476D01*
X153483214Y-95635238D01*
X153578452Y-95540000D01*
X153721309Y-95492380D01*
X153816547Y-95492380D01*
X153959404Y-95540000D01*
X154007023Y-95587619D01*
X154578452Y-96492380D02*
X154483214Y-96444761D01*
X154435595Y-96349523D01*
X154435595Y-95492380D01*
X155102261Y-96492380D02*
X155007023Y-96444761D01*
X154959404Y-96397142D01*
X154911785Y-96301904D01*
X154911785Y-96016190D01*
X154959404Y-95920952D01*
X155007023Y-95873333D01*
X155102261Y-95825714D01*
X155245119Y-95825714D01*
X155340357Y-95873333D01*
X155387976Y-95920952D01*
X155435595Y-96016190D01*
X155435595Y-96301904D01*
X155387976Y-96397142D01*
X155340357Y-96444761D01*
X155245119Y-96492380D01*
X155102261Y-96492380D01*
X156292738Y-96444761D02*
X156197500Y-96492380D01*
X156007023Y-96492380D01*
X155911785Y-96444761D01*
X155864166Y-96397142D01*
X155816547Y-96301904D01*
X155816547Y-96016190D01*
X155864166Y-95920952D01*
X155911785Y-95873333D01*
X156007023Y-95825714D01*
X156197500Y-95825714D01*
X156292738Y-95873333D01*
X156721309Y-96492380D02*
X156721309Y-95492380D01*
X156816547Y-96111428D02*
X157102261Y-96492380D01*
X157102261Y-95825714D02*
X156721309Y-96206666D01*
X153911785Y-92492380D02*
X153435595Y-92492380D01*
X153435595Y-91492380D01*
X154673690Y-92492380D02*
X154673690Y-91968571D01*
X154626071Y-91873333D01*
X154530833Y-91825714D01*
X154340357Y-91825714D01*
X154245119Y-91873333D01*
X154673690Y-92444761D02*
X154578452Y-92492380D01*
X154340357Y-92492380D01*
X154245119Y-92444761D01*
X154197500Y-92349523D01*
X154197500Y-92254285D01*
X154245119Y-92159047D01*
X154340357Y-92111428D01*
X154578452Y-92111428D01*
X154673690Y-92063809D01*
X155007023Y-91825714D02*
X155387976Y-91825714D01*
X155149880Y-91492380D02*
X155149880Y-92349523D01*
X155197500Y-92444761D01*
X155292738Y-92492380D01*
X155387976Y-92492380D01*
X156149880Y-92444761D02*
X156054642Y-92492380D01*
X155864166Y-92492380D01*
X155768928Y-92444761D01*
X155721309Y-92397142D01*
X155673690Y-92301904D01*
X155673690Y-92016190D01*
X155721309Y-91920952D01*
X155768928Y-91873333D01*
X155864166Y-91825714D01*
X156054642Y-91825714D01*
X156149880Y-91873333D01*
X156578452Y-92492380D02*
X156578452Y-91492380D01*
X157007023Y-92492380D02*
X157007023Y-91968571D01*
X156959404Y-91873333D01*
X156864166Y-91825714D01*
X156721309Y-91825714D01*
X156626071Y-91873333D01*
X156578452Y-91920952D01*
X153435595Y-88492380D02*
X153435595Y-87492380D01*
X153673690Y-87492380D01*
X153816547Y-87540000D01*
X153911785Y-87635238D01*
X153959404Y-87730476D01*
X154007023Y-87920952D01*
X154007023Y-88063809D01*
X153959404Y-88254285D01*
X153911785Y-88349523D01*
X153816547Y-88444761D01*
X153673690Y-88492380D01*
X153435595Y-88492380D01*
X154864166Y-88492380D02*
X154864166Y-87968571D01*
X154816547Y-87873333D01*
X154721309Y-87825714D01*
X154530833Y-87825714D01*
X154435595Y-87873333D01*
X154864166Y-88444761D02*
X154768928Y-88492380D01*
X154530833Y-88492380D01*
X154435595Y-88444761D01*
X154387976Y-88349523D01*
X154387976Y-88254285D01*
X154435595Y-88159047D01*
X154530833Y-88111428D01*
X154768928Y-88111428D01*
X154864166Y-88063809D01*
X155197500Y-87825714D02*
X155578452Y-87825714D01*
X155340357Y-87492380D02*
X155340357Y-88349523D01*
X155387976Y-88444761D01*
X155483214Y-88492380D01*
X155578452Y-88492380D01*
X156340357Y-88492380D02*
X156340357Y-87968571D01*
X156292738Y-87873333D01*
X156197500Y-87825714D01*
X156007023Y-87825714D01*
X155911785Y-87873333D01*
X156340357Y-88444761D02*
X156245119Y-88492380D01*
X156007023Y-88492380D01*
X155911785Y-88444761D01*
X155864166Y-88349523D01*
X155864166Y-88254285D01*
X155911785Y-88159047D01*
X156007023Y-88111428D01*
X156245119Y-88111428D01*
X156340357Y-88063809D01*
X144367142Y-101342380D02*
X145033809Y-101342380D01*
X144605238Y-102342380D01*
X145414761Y-102342380D02*
X145414761Y-101342380D01*
X145795714Y-101342380D01*
X145890952Y-101390000D01*
X145938571Y-101437619D01*
X145986190Y-101532857D01*
X145986190Y-101675714D01*
X145938571Y-101770952D01*
X145890952Y-101818571D01*
X145795714Y-101866190D01*
X145414761Y-101866190D01*
X146414761Y-102342380D02*
X146414761Y-101675714D01*
X146414761Y-101342380D02*
X146367142Y-101390000D01*
X146414761Y-101437619D01*
X146462380Y-101390000D01*
X146414761Y-101342380D01*
X146414761Y-101437619D01*
X146890952Y-101675714D02*
X146890952Y-102342380D01*
X146890952Y-101770952D02*
X146938571Y-101723333D01*
X147033809Y-101675714D01*
X147176666Y-101675714D01*
X147271904Y-101723333D01*
X147319523Y-101818571D01*
X147319523Y-102342380D01*
X148557619Y-102342380D02*
X148557619Y-101342380D01*
X149129047Y-102342380D01*
X149129047Y-101342380D01*
X149605238Y-101818571D02*
X149938571Y-101818571D01*
X150081428Y-102342380D02*
X149605238Y-102342380D01*
X149605238Y-101342380D01*
X150081428Y-101342380D01*
X150462380Y-102294761D02*
X150605238Y-102342380D01*
X150843333Y-102342380D01*
X150938571Y-102294761D01*
X150986190Y-102247142D01*
X151033809Y-102151904D01*
X151033809Y-102056666D01*
X150986190Y-101961428D01*
X150938571Y-101913809D01*
X150843333Y-101866190D01*
X150652857Y-101818571D01*
X150557619Y-101770952D01*
X150510000Y-101723333D01*
X150462380Y-101628095D01*
X150462380Y-101532857D01*
X150510000Y-101437619D01*
X150557619Y-101390000D01*
X150652857Y-101342380D01*
X150890952Y-101342380D01*
X151033809Y-101390000D01*
X152224285Y-102342380D02*
X152224285Y-101342380D01*
X152605238Y-101342380D01*
X152700476Y-101390000D01*
X152748095Y-101437619D01*
X152795714Y-101532857D01*
X152795714Y-101675714D01*
X152748095Y-101770952D01*
X152700476Y-101818571D01*
X152605238Y-101866190D01*
X152224285Y-101866190D01*
X153414761Y-101342380D02*
X153605238Y-101342380D01*
X153700476Y-101390000D01*
X153795714Y-101485238D01*
X153843333Y-101675714D01*
X153843333Y-102009047D01*
X153795714Y-102199523D01*
X153700476Y-102294761D01*
X153605238Y-102342380D01*
X153414761Y-102342380D01*
X153319523Y-102294761D01*
X153224285Y-102199523D01*
X153176666Y-102009047D01*
X153176666Y-101675714D01*
X153224285Y-101485238D01*
X153319523Y-101390000D01*
X153414761Y-101342380D01*
X154843333Y-102342380D02*
X154510000Y-101866190D01*
X154271904Y-102342380D02*
X154271904Y-101342380D01*
X154652857Y-101342380D01*
X154748095Y-101390000D01*
X154795714Y-101437619D01*
X154843333Y-101532857D01*
X154843333Y-101675714D01*
X154795714Y-101770952D01*
X154748095Y-101818571D01*
X154652857Y-101866190D01*
X154271904Y-101866190D01*
X155129047Y-101342380D02*
X155700476Y-101342380D01*
X155414761Y-102342380D02*
X155414761Y-101342380D01*
X142182976Y-89242380D02*
X142182976Y-88242380D01*
X142754404Y-89242380D01*
X142754404Y-88242380D01*
X143802023Y-89147142D02*
X143754404Y-89194761D01*
X143611547Y-89242380D01*
X143516309Y-89242380D01*
X143373452Y-89194761D01*
X143278214Y-89099523D01*
X143230595Y-89004285D01*
X143182976Y-88813809D01*
X143182976Y-88670952D01*
X143230595Y-88480476D01*
X143278214Y-88385238D01*
X143373452Y-88290000D01*
X143516309Y-88242380D01*
X143611547Y-88242380D01*
X143754404Y-88290000D01*
X143802023Y-88337619D01*
X144944880Y-88194761D02*
X144087738Y-89480476D01*
X145278214Y-89242380D02*
X145278214Y-88242380D01*
X145516309Y-88242380D01*
X145659166Y-88290000D01*
X145754404Y-88385238D01*
X145802023Y-88480476D01*
X145849642Y-88670952D01*
X145849642Y-88813809D01*
X145802023Y-89004285D01*
X145754404Y-89099523D01*
X145659166Y-89194761D01*
X145516309Y-89242380D01*
X145278214Y-89242380D01*
X146706785Y-88575714D02*
X146706785Y-89242380D01*
X146468690Y-88194761D02*
X146230595Y-88909047D01*
X146849642Y-88909047D01*
X142192976Y-92492380D02*
X142192976Y-91492380D01*
X142764404Y-92492380D01*
X142764404Y-91492380D01*
X143812023Y-92397142D02*
X143764404Y-92444761D01*
X143621547Y-92492380D01*
X143526309Y-92492380D01*
X143383452Y-92444761D01*
X143288214Y-92349523D01*
X143240595Y-92254285D01*
X143192976Y-92063809D01*
X143192976Y-91920952D01*
X143240595Y-91730476D01*
X143288214Y-91635238D01*
X143383452Y-91540000D01*
X143526309Y-91492380D01*
X143621547Y-91492380D01*
X143764404Y-91540000D01*
X143812023Y-91587619D01*
X144954880Y-91444761D02*
X144097738Y-92730476D01*
X145288214Y-92492380D02*
X145288214Y-91492380D01*
X145526309Y-91492380D01*
X145669166Y-91540000D01*
X145764404Y-91635238D01*
X145812023Y-91730476D01*
X145859642Y-91920952D01*
X145859642Y-92063809D01*
X145812023Y-92254285D01*
X145764404Y-92349523D01*
X145669166Y-92444761D01*
X145526309Y-92492380D01*
X145288214Y-92492380D01*
X146192976Y-91492380D02*
X146812023Y-91492380D01*
X146478690Y-91873333D01*
X146621547Y-91873333D01*
X146716785Y-91920952D01*
X146764404Y-91968571D01*
X146812023Y-92063809D01*
X146812023Y-92301904D01*
X146764404Y-92397142D01*
X146716785Y-92444761D01*
X146621547Y-92492380D01*
X146335833Y-92492380D01*
X146240595Y-92444761D01*
X146192976Y-92397142D01*
X144526309Y-95492380D02*
X144859642Y-96492380D01*
X145192976Y-95492380D01*
X145954880Y-96444761D02*
X145859642Y-96492380D01*
X145669166Y-96492380D01*
X145573928Y-96444761D01*
X145526309Y-96397142D01*
X145478690Y-96301904D01*
X145478690Y-96016190D01*
X145526309Y-95920952D01*
X145573928Y-95873333D01*
X145669166Y-95825714D01*
X145859642Y-95825714D01*
X145954880Y-95873333D01*
X146812023Y-96444761D02*
X146716785Y-96492380D01*
X146526309Y-96492380D01*
X146431071Y-96444761D01*
X146383452Y-96397142D01*
X146335833Y-96301904D01*
X146335833Y-96016190D01*
X146383452Y-95920952D01*
X146431071Y-95873333D01*
X146526309Y-95825714D01*
X146716785Y-95825714D01*
X146812023Y-95873333D01*
X143453244Y-88113333D02*
X143411577Y-88065714D01*
X143334196Y-87922857D01*
X143298482Y-87827619D01*
X143268720Y-87684761D01*
X143250863Y-87446666D01*
X143274672Y-87256190D01*
X143352053Y-87018095D01*
X143417529Y-86875238D01*
X143477053Y-86780000D01*
X143590148Y-86637142D01*
X143643720Y-86589523D01*
X143881815Y-87732380D02*
X144006815Y-86732380D01*
X144250863Y-87446666D01*
X144673482Y-86732380D01*
X144548482Y-87732380D01*
X145024672Y-87732380D02*
X145108005Y-87065714D01*
X145149672Y-86732380D02*
X145096101Y-86780000D01*
X145137767Y-86827619D01*
X145191339Y-86780000D01*
X145149672Y-86732380D01*
X145137767Y-86827619D01*
X145935386Y-87684761D02*
X145834196Y-87732380D01*
X145643720Y-87732380D01*
X145554434Y-87684761D01*
X145512767Y-87637142D01*
X145477053Y-87541904D01*
X145512767Y-87256190D01*
X145572291Y-87160952D01*
X145625863Y-87113333D01*
X145727053Y-87065714D01*
X145917529Y-87065714D01*
X146006815Y-87113333D01*
X146215148Y-88113333D02*
X146268720Y-88065714D01*
X146381815Y-87922857D01*
X146441339Y-87827619D01*
X146506815Y-87684761D01*
X146584196Y-87446666D01*
X146608005Y-87256190D01*
X146590148Y-87018095D01*
X146560386Y-86875238D01*
X146524672Y-86780000D01*
X146447291Y-86637142D01*
X146405625Y-86589523D01*
X168652738Y-79472380D02*
X168986071Y-80472380D01*
X169319404Y-79472380D01*
X170081309Y-80424761D02*
X169986071Y-80472380D01*
X169795595Y-80472380D01*
X169700357Y-80424761D01*
X169652738Y-80377142D01*
X169605119Y-80281904D01*
X169605119Y-79996190D01*
X169652738Y-79900952D01*
X169700357Y-79853333D01*
X169795595Y-79805714D01*
X169986071Y-79805714D01*
X170081309Y-79853333D01*
X170938452Y-80424761D02*
X170843214Y-80472380D01*
X170652738Y-80472380D01*
X170557500Y-80424761D01*
X170509880Y-80377142D01*
X170462261Y-80281904D01*
X170462261Y-79996190D01*
X170509880Y-79900952D01*
X170557500Y-79853333D01*
X170652738Y-79805714D01*
X170843214Y-79805714D01*
X170938452Y-79853333D01*
X169367023Y-84377142D02*
X169319404Y-84424761D01*
X169176547Y-84472380D01*
X169081309Y-84472380D01*
X168938452Y-84424761D01*
X168843214Y-84329523D01*
X168795595Y-84234285D01*
X168747976Y-84043809D01*
X168747976Y-83900952D01*
X168795595Y-83710476D01*
X168843214Y-83615238D01*
X168938452Y-83520000D01*
X169081309Y-83472380D01*
X169176547Y-83472380D01*
X169319404Y-83520000D01*
X169367023Y-83567619D01*
X169938452Y-84472380D02*
X169843214Y-84424761D01*
X169795595Y-84329523D01*
X169795595Y-83472380D01*
X170462261Y-84472380D02*
X170367023Y-84424761D01*
X170319404Y-84377142D01*
X170271785Y-84281904D01*
X170271785Y-83996190D01*
X170319404Y-83900952D01*
X170367023Y-83853333D01*
X170462261Y-83805714D01*
X170605119Y-83805714D01*
X170700357Y-83853333D01*
X170747976Y-83900952D01*
X170795595Y-83996190D01*
X170795595Y-84281904D01*
X170747976Y-84377142D01*
X170700357Y-84424761D01*
X170605119Y-84472380D01*
X170462261Y-84472380D01*
X171652738Y-84424761D02*
X171557500Y-84472380D01*
X171367023Y-84472380D01*
X171271785Y-84424761D01*
X171224166Y-84377142D01*
X171176547Y-84281904D01*
X171176547Y-83996190D01*
X171224166Y-83900952D01*
X171271785Y-83853333D01*
X171367023Y-83805714D01*
X171557500Y-83805714D01*
X171652738Y-83853333D01*
X172081309Y-84472380D02*
X172081309Y-83472380D01*
X172176547Y-84091428D02*
X172462261Y-84472380D01*
X172462261Y-83805714D02*
X172081309Y-84186666D01*
X169271785Y-88472380D02*
X168795595Y-88472380D01*
X168795595Y-87472380D01*
X170033690Y-88472380D02*
X170033690Y-87948571D01*
X169986071Y-87853333D01*
X169890833Y-87805714D01*
X169700357Y-87805714D01*
X169605119Y-87853333D01*
X170033690Y-88424761D02*
X169938452Y-88472380D01*
X169700357Y-88472380D01*
X169605119Y-88424761D01*
X169557500Y-88329523D01*
X169557500Y-88234285D01*
X169605119Y-88139047D01*
X169700357Y-88091428D01*
X169938452Y-88091428D01*
X170033690Y-88043809D01*
X170367023Y-87805714D02*
X170747976Y-87805714D01*
X170509880Y-87472380D02*
X170509880Y-88329523D01*
X170557500Y-88424761D01*
X170652738Y-88472380D01*
X170747976Y-88472380D01*
X171509880Y-88424761D02*
X171414642Y-88472380D01*
X171224166Y-88472380D01*
X171128928Y-88424761D01*
X171081309Y-88377142D01*
X171033690Y-88281904D01*
X171033690Y-87996190D01*
X171081309Y-87900952D01*
X171128928Y-87853333D01*
X171224166Y-87805714D01*
X171414642Y-87805714D01*
X171509880Y-87853333D01*
X171938452Y-88472380D02*
X171938452Y-87472380D01*
X172367023Y-88472380D02*
X172367023Y-87948571D01*
X172319404Y-87853333D01*
X172224166Y-87805714D01*
X172081309Y-87805714D01*
X171986071Y-87853333D01*
X171938452Y-87900952D01*
X168795595Y-92472380D02*
X168795595Y-91472380D01*
X169033690Y-91472380D01*
X169176547Y-91520000D01*
X169271785Y-91615238D01*
X169319404Y-91710476D01*
X169367023Y-91900952D01*
X169367023Y-92043809D01*
X169319404Y-92234285D01*
X169271785Y-92329523D01*
X169176547Y-92424761D01*
X169033690Y-92472380D01*
X168795595Y-92472380D01*
X170224166Y-92472380D02*
X170224166Y-91948571D01*
X170176547Y-91853333D01*
X170081309Y-91805714D01*
X169890833Y-91805714D01*
X169795595Y-91853333D01*
X170224166Y-92424761D02*
X170128928Y-92472380D01*
X169890833Y-92472380D01*
X169795595Y-92424761D01*
X169747976Y-92329523D01*
X169747976Y-92234285D01*
X169795595Y-92139047D01*
X169890833Y-92091428D01*
X170128928Y-92091428D01*
X170224166Y-92043809D01*
X170557500Y-91805714D02*
X170938452Y-91805714D01*
X170700357Y-91472380D02*
X170700357Y-92329523D01*
X170747976Y-92424761D01*
X170843214Y-92472380D01*
X170938452Y-92472380D01*
X171700357Y-92472380D02*
X171700357Y-91948571D01*
X171652738Y-91853333D01*
X171557500Y-91805714D01*
X171367023Y-91805714D01*
X171271785Y-91853333D01*
X171700357Y-92424761D02*
X171605119Y-92472380D01*
X171367023Y-92472380D01*
X171271785Y-92424761D01*
X171224166Y-92329523D01*
X171224166Y-92234285D01*
X171271785Y-92139047D01*
X171367023Y-92091428D01*
X171605119Y-92091428D01*
X171700357Y-92043809D01*
X168795595Y-98972380D02*
X168795595Y-97972380D01*
X169367023Y-98972380D01*
X169367023Y-97972380D01*
X170414642Y-98877142D02*
X170367023Y-98924761D01*
X170224166Y-98972380D01*
X170128928Y-98972380D01*
X169986071Y-98924761D01*
X169890833Y-98829523D01*
X169843214Y-98734285D01*
X169795595Y-98543809D01*
X169795595Y-98400952D01*
X169843214Y-98210476D01*
X169890833Y-98115238D01*
X169986071Y-98020000D01*
X170128928Y-97972380D01*
X170224166Y-97972380D01*
X170367023Y-98020000D01*
X170414642Y-98067619D01*
X168795595Y-102972380D02*
X168795595Y-101972380D01*
X169367023Y-102972380D01*
X169367023Y-101972380D01*
X170414642Y-102877142D02*
X170367023Y-102924761D01*
X170224166Y-102972380D01*
X170128928Y-102972380D01*
X169986071Y-102924761D01*
X169890833Y-102829523D01*
X169843214Y-102734285D01*
X169795595Y-102543809D01*
X169795595Y-102400952D01*
X169843214Y-102210476D01*
X169890833Y-102115238D01*
X169986071Y-102020000D01*
X170128928Y-101972380D01*
X170224166Y-101972380D01*
X170367023Y-102020000D01*
X170414642Y-102067619D01*
X169319404Y-106020000D02*
X169224166Y-105972380D01*
X169081309Y-105972380D01*
X168938452Y-106020000D01*
X168843214Y-106115238D01*
X168795595Y-106210476D01*
X168747976Y-106400952D01*
X168747976Y-106543809D01*
X168795595Y-106734285D01*
X168843214Y-106829523D01*
X168938452Y-106924761D01*
X169081309Y-106972380D01*
X169176547Y-106972380D01*
X169319404Y-106924761D01*
X169367023Y-106877142D01*
X169367023Y-106543809D01*
X169176547Y-106543809D01*
X169795595Y-106972380D02*
X169795595Y-106305714D01*
X169795595Y-106496190D02*
X169843214Y-106400952D01*
X169890833Y-106353333D01*
X169986071Y-106305714D01*
X170081309Y-106305714D01*
X170557500Y-106972380D02*
X170462261Y-106924761D01*
X170414642Y-106877142D01*
X170367023Y-106781904D01*
X170367023Y-106496190D01*
X170414642Y-106400952D01*
X170462261Y-106353333D01*
X170557500Y-106305714D01*
X170700357Y-106305714D01*
X170795595Y-106353333D01*
X170843214Y-106400952D01*
X170890833Y-106496190D01*
X170890833Y-106781904D01*
X170843214Y-106877142D01*
X170795595Y-106924761D01*
X170700357Y-106972380D01*
X170557500Y-106972380D01*
X171747976Y-106305714D02*
X171747976Y-106972380D01*
X171319404Y-106305714D02*
X171319404Y-106829523D01*
X171367023Y-106924761D01*
X171462261Y-106972380D01*
X171605119Y-106972380D01*
X171700357Y-106924761D01*
X171747976Y-106877142D01*
X172224166Y-106305714D02*
X172224166Y-106972380D01*
X172224166Y-106400952D02*
X172271785Y-106353333D01*
X172367023Y-106305714D01*
X172509880Y-106305714D01*
X172605119Y-106353333D01*
X172652738Y-106448571D01*
X172652738Y-106972380D01*
X173557500Y-106972380D02*
X173557500Y-105972380D01*
X173557500Y-106924761D02*
X173462261Y-106972380D01*
X173271785Y-106972380D01*
X173176547Y-106924761D01*
X173128928Y-106877142D01*
X173081309Y-106781904D01*
X173081309Y-106496190D01*
X173128928Y-106400952D01*
X173176547Y-106353333D01*
X173271785Y-106305714D01*
X173462261Y-106305714D01*
X173557500Y-106353333D01*
X160490000Y-77682380D02*
X161156666Y-77682380D01*
X160728095Y-78682380D01*
X162299523Y-78682380D02*
X162299523Y-77682380D01*
X162680476Y-77682380D01*
X162775714Y-77730000D01*
X162823333Y-77777619D01*
X162870952Y-77872857D01*
X162870952Y-78015714D01*
X162823333Y-78110952D01*
X162775714Y-78158571D01*
X162680476Y-78206190D01*
X162299523Y-78206190D01*
X163299523Y-78682380D02*
X163299523Y-78015714D01*
X163299523Y-77682380D02*
X163251904Y-77730000D01*
X163299523Y-77777619D01*
X163347142Y-77730000D01*
X163299523Y-77682380D01*
X163299523Y-77777619D01*
X163775714Y-78015714D02*
X163775714Y-78682380D01*
X163775714Y-78110952D02*
X163823333Y-78063333D01*
X163918571Y-78015714D01*
X164061428Y-78015714D01*
X164156666Y-78063333D01*
X164204285Y-78158571D01*
X164204285Y-78682380D01*
X165394761Y-78634761D02*
X165537619Y-78682380D01*
X165775714Y-78682380D01*
X165870952Y-78634761D01*
X165918571Y-78587142D01*
X165966190Y-78491904D01*
X165966190Y-78396666D01*
X165918571Y-78301428D01*
X165870952Y-78253809D01*
X165775714Y-78206190D01*
X165585238Y-78158571D01*
X165490000Y-78110952D01*
X165442380Y-78063333D01*
X165394761Y-77968095D01*
X165394761Y-77872857D01*
X165442380Y-77777619D01*
X165490000Y-77730000D01*
X165585238Y-77682380D01*
X165823333Y-77682380D01*
X165966190Y-77730000D01*
X166394761Y-78682380D02*
X166394761Y-77682380D01*
X166966190Y-78682380D01*
X166966190Y-77682380D01*
X167442380Y-78158571D02*
X167775714Y-78158571D01*
X167918571Y-78682380D02*
X167442380Y-78682380D01*
X167442380Y-77682380D01*
X167918571Y-77682380D01*
X168299523Y-78634761D02*
X168442380Y-78682380D01*
X168680476Y-78682380D01*
X168775714Y-78634761D01*
X168823333Y-78587142D01*
X168870952Y-78491904D01*
X168870952Y-78396666D01*
X168823333Y-78301428D01*
X168775714Y-78253809D01*
X168680476Y-78206190D01*
X168490000Y-78158571D01*
X168394761Y-78110952D01*
X168347142Y-78063333D01*
X168299523Y-77968095D01*
X168299523Y-77872857D01*
X168347142Y-77777619D01*
X168394761Y-77730000D01*
X168490000Y-77682380D01*
X168728095Y-77682380D01*
X168870952Y-77730000D01*
X170061428Y-78682380D02*
X170061428Y-77682380D01*
X170442380Y-77682380D01*
X170537619Y-77730000D01*
X170585238Y-77777619D01*
X170632857Y-77872857D01*
X170632857Y-78015714D01*
X170585238Y-78110952D01*
X170537619Y-78158571D01*
X170442380Y-78206190D01*
X170061428Y-78206190D01*
X171251904Y-77682380D02*
X171442380Y-77682380D01*
X171537619Y-77730000D01*
X171632857Y-77825238D01*
X171680476Y-78015714D01*
X171680476Y-78349047D01*
X171632857Y-78539523D01*
X171537619Y-78634761D01*
X171442380Y-78682380D01*
X171251904Y-78682380D01*
X171156666Y-78634761D01*
X171061428Y-78539523D01*
X171013809Y-78349047D01*
X171013809Y-78015714D01*
X171061428Y-77825238D01*
X171156666Y-77730000D01*
X171251904Y-77682380D01*
X172680476Y-78682380D02*
X172347142Y-78206190D01*
X172109047Y-78682380D02*
X172109047Y-77682380D01*
X172490000Y-77682380D01*
X172585238Y-77730000D01*
X172632857Y-77777619D01*
X172680476Y-77872857D01*
X172680476Y-78015714D01*
X172632857Y-78110952D01*
X172585238Y-78158571D01*
X172490000Y-78206190D01*
X172109047Y-78206190D01*
X172966190Y-77682380D02*
X173537619Y-77682380D01*
X173251904Y-78682380D02*
X173251904Y-77682380D01*
M02*
