G04 #@! TF.GenerationSoftware,KiCad,Pcbnew,(5.1.5-0-10_14)*
G04 #@! TF.CreationDate,2020-11-03T15:19:22-05:00*
G04 #@! TF.ProjectId,FC_Rear_Port_2P,46435f52-6561-4725-9f50-6f72745f3250,rev?*
G04 #@! TF.SameCoordinates,Original*
G04 #@! TF.FileFunction,Profile,NP*
%FSLAX46Y46*%
G04 Gerber Fmt 4.6, Leading zero omitted, Abs format (unit mm)*
G04 Created by KiCad (PCBNEW (5.1.5-0-10_14)) date 2020-11-03 15:19:22*
%MOMM*%
%LPD*%
G04 APERTURE LIST*
%ADD10C,0.050000*%
G04 APERTURE END LIST*
D10*
X170760000Y-72770000D02*
X172150000Y-72790000D01*
X172150000Y-72790000D02*
X172720000Y-72900000D01*
X154890000Y-113870000D02*
X154420000Y-113830000D01*
X141130000Y-86550000D02*
X141090000Y-87280000D01*
X158979799Y-76080000D02*
G75*
G02X155720000Y-76090000I-1629915J0D01*
G01*
X155710000Y-72770000D02*
X145420000Y-72770000D01*
X158980000Y-72770000D02*
X158979799Y-76080000D01*
X155710000Y-72770000D02*
X155720000Y-76090000D01*
X158980000Y-72770000D02*
X170760000Y-72770000D01*
X174760000Y-78630000D02*
X172720000Y-72900000D01*
X174779844Y-109059999D02*
G75*
G02X169940000Y-113850000I-4829844J39999D01*
G01*
X174760000Y-78630000D02*
X174779845Y-109059999D01*
X140930000Y-104680000D02*
X141000000Y-104930000D01*
X140820000Y-102730000D02*
X140930000Y-104680000D01*
X158980000Y-113870000D02*
X169940000Y-113850000D01*
X155740130Y-110548585D02*
G75*
G02X158960000Y-110540000I1609870J28585D01*
G01*
X158980000Y-113870000D02*
X158960000Y-110540000D01*
X155710000Y-113870000D02*
X155740130Y-110548585D01*
X154890000Y-113870000D02*
X155710000Y-113870000D01*
X141000000Y-104930000D02*
X154420000Y-113830000D01*
X140790000Y-101590000D02*
X140820000Y-102730000D01*
X141090000Y-87280000D02*
X140790000Y-101590000D01*
X145240000Y-73020000D02*
X141130000Y-86550000D01*
X145420000Y-72770000D02*
X145240000Y-73020000D01*
M02*
