G04 #@! TF.GenerationSoftware,KiCad,Pcbnew,(5.1.5-0-10_14)*
G04 #@! TF.CreationDate,2020-11-03T15:19:22-05:00*
G04 #@! TF.ProjectId,FC_Rear_Port_2P,46435f52-6561-4725-9f50-6f72745f3250,rev?*
G04 #@! TF.SameCoordinates,Original*
G04 #@! TF.FileFunction,Soldermask,Bot*
G04 #@! TF.FilePolarity,Negative*
%FSLAX46Y46*%
G04 Gerber Fmt 4.6, Leading zero omitted, Abs format (unit mm)*
G04 Created by KiCad (PCBNEW (5.1.5-0-10_14)) date 2020-11-03 15:19:22*
%MOMM*%
%LPD*%
G04 APERTURE LIST*
%ADD10C,0.150000*%
%ADD11C,0.100000*%
G04 APERTURE END LIST*
D10*
X167635085Y-75163371D02*
X167492228Y-75210990D01*
X167444609Y-75258609D01*
X167396990Y-75353847D01*
X167396990Y-75496704D01*
X167444609Y-75591942D01*
X167492228Y-75639561D01*
X167587466Y-75687180D01*
X167968419Y-75687180D01*
X167968419Y-74687180D01*
X167635085Y-74687180D01*
X167539847Y-74734800D01*
X167492228Y-74782419D01*
X167444609Y-74877657D01*
X167444609Y-74972895D01*
X167492228Y-75068133D01*
X167539847Y-75115752D01*
X167635085Y-75163371D01*
X167968419Y-75163371D01*
X166539847Y-75687180D02*
X166539847Y-75163371D01*
X166587466Y-75068133D01*
X166682704Y-75020514D01*
X166873180Y-75020514D01*
X166968419Y-75068133D01*
X166539847Y-75639561D02*
X166635085Y-75687180D01*
X166873180Y-75687180D01*
X166968419Y-75639561D01*
X167016038Y-75544323D01*
X167016038Y-75449085D01*
X166968419Y-75353847D01*
X166873180Y-75306228D01*
X166635085Y-75306228D01*
X166539847Y-75258609D01*
X165635085Y-75639561D02*
X165730323Y-75687180D01*
X165920800Y-75687180D01*
X166016038Y-75639561D01*
X166063657Y-75591942D01*
X166111276Y-75496704D01*
X166111276Y-75210990D01*
X166063657Y-75115752D01*
X166016038Y-75068133D01*
X165920800Y-75020514D01*
X165730323Y-75020514D01*
X165635085Y-75068133D01*
X165206514Y-75687180D02*
X165206514Y-74687180D01*
X165111276Y-75306228D02*
X164825561Y-75687180D01*
X164825561Y-75020514D02*
X165206514Y-75401466D01*
D11*
G36*
X167278318Y-105470648D02*
G01*
X167403555Y-105522523D01*
X167476920Y-105552912D01*
X167655657Y-105672340D01*
X167807660Y-105824343D01*
X167927088Y-106003080D01*
X168009352Y-106201683D01*
X168051290Y-106412517D01*
X168051290Y-106627483D01*
X168009352Y-106838317D01*
X167927088Y-107036920D01*
X167807660Y-107215657D01*
X167655657Y-107367660D01*
X167476920Y-107487088D01*
X167403555Y-107517477D01*
X167278318Y-107569352D01*
X167067485Y-107611290D01*
X166852515Y-107611290D01*
X166641682Y-107569352D01*
X166516445Y-107517477D01*
X166443080Y-107487088D01*
X166264343Y-107367660D01*
X166112340Y-107215657D01*
X165992912Y-107036920D01*
X165910648Y-106838317D01*
X165868710Y-106627483D01*
X165868710Y-106412517D01*
X165910648Y-106201683D01*
X165992912Y-106003080D01*
X166112340Y-105824343D01*
X166264343Y-105672340D01*
X166443080Y-105552912D01*
X166516445Y-105522523D01*
X166641682Y-105470648D01*
X166852515Y-105428710D01*
X167067485Y-105428710D01*
X167278318Y-105470648D01*
G37*
G36*
X167278318Y-101470648D02*
G01*
X167403555Y-101522523D01*
X167476920Y-101552912D01*
X167655657Y-101672340D01*
X167807660Y-101824343D01*
X167927088Y-102003080D01*
X168009352Y-102201683D01*
X168051290Y-102412517D01*
X168051290Y-102627483D01*
X168009352Y-102838317D01*
X167927088Y-103036920D01*
X167807660Y-103215657D01*
X167655657Y-103367660D01*
X167476920Y-103487088D01*
X167403555Y-103517477D01*
X167278318Y-103569352D01*
X167067485Y-103611290D01*
X166852515Y-103611290D01*
X166641682Y-103569352D01*
X166516445Y-103517477D01*
X166443080Y-103487088D01*
X166264343Y-103367660D01*
X166112340Y-103215657D01*
X165992912Y-103036920D01*
X165910648Y-102838317D01*
X165868710Y-102627483D01*
X165868710Y-102412517D01*
X165910648Y-102201683D01*
X165992912Y-102003080D01*
X166112340Y-101824343D01*
X166264343Y-101672340D01*
X166443080Y-101552912D01*
X166516445Y-101522523D01*
X166641682Y-101470648D01*
X166852515Y-101428710D01*
X167067485Y-101428710D01*
X167278318Y-101470648D01*
G37*
G36*
X152418318Y-98990648D02*
G01*
X152530020Y-99036917D01*
X152616920Y-99072912D01*
X152795657Y-99192340D01*
X152947660Y-99344343D01*
X153067088Y-99523080D01*
X153149352Y-99721683D01*
X153191290Y-99932517D01*
X153191290Y-100147483D01*
X153149352Y-100358317D01*
X153067088Y-100556920D01*
X152947660Y-100735657D01*
X152795657Y-100887660D01*
X152616920Y-101007088D01*
X152543555Y-101037477D01*
X152418318Y-101089352D01*
X152207485Y-101131290D01*
X151992515Y-101131290D01*
X151781682Y-101089352D01*
X151656445Y-101037477D01*
X151583080Y-101007088D01*
X151404343Y-100887660D01*
X151252340Y-100735657D01*
X151132912Y-100556920D01*
X151050648Y-100358317D01*
X151008710Y-100147483D01*
X151008710Y-99932517D01*
X151050648Y-99721683D01*
X151132912Y-99523080D01*
X151252340Y-99344343D01*
X151404343Y-99192340D01*
X151583080Y-99072912D01*
X151669980Y-99036917D01*
X151781682Y-98990648D01*
X151992515Y-98948710D01*
X152207485Y-98948710D01*
X152418318Y-98990648D01*
G37*
G36*
X156669144Y-97377582D02*
G01*
X156805867Y-97434215D01*
X156805869Y-97434216D01*
X156928919Y-97516435D01*
X157033565Y-97621081D01*
X157093413Y-97710651D01*
X157093572Y-97710845D01*
X157093766Y-97711004D01*
X157093989Y-97711122D01*
X157194289Y-97752668D01*
X157358285Y-97862247D01*
X157497753Y-98001715D01*
X157607332Y-98165711D01*
X157622232Y-98201683D01*
X157682811Y-98347934D01*
X157721290Y-98541379D01*
X157721290Y-98738621D01*
X157682811Y-98932066D01*
X157607332Y-99114289D01*
X157497753Y-99278285D01*
X157358285Y-99417753D01*
X157194289Y-99527332D01*
X157092843Y-99569352D01*
X157012066Y-99602811D01*
X156818621Y-99641290D01*
X156621379Y-99641290D01*
X156427934Y-99602811D01*
X156347157Y-99569352D01*
X156245711Y-99527332D01*
X156081715Y-99417753D01*
X155942247Y-99278285D01*
X155832668Y-99114289D01*
X155757189Y-98932066D01*
X155718710Y-98738621D01*
X155718710Y-98541379D01*
X155751376Y-98377153D01*
X155751401Y-98376903D01*
X155751376Y-98376653D01*
X155751303Y-98376413D01*
X155727582Y-98319144D01*
X155698710Y-98173998D01*
X155698710Y-98026002D01*
X155727582Y-97880856D01*
X155784215Y-97744133D01*
X155866435Y-97621081D01*
X155971081Y-97516435D01*
X156094131Y-97434216D01*
X156094133Y-97434215D01*
X156230856Y-97377582D01*
X156376002Y-97348710D01*
X156523998Y-97348710D01*
X156669144Y-97377582D01*
G37*
G36*
X154669144Y-97377582D02*
G01*
X154805867Y-97434215D01*
X154805869Y-97434216D01*
X154928919Y-97516435D01*
X155033565Y-97621081D01*
X155115785Y-97744133D01*
X155172418Y-97880856D01*
X155201290Y-98026002D01*
X155201290Y-98173998D01*
X155172418Y-98319144D01*
X155148697Y-98376413D01*
X155148624Y-98376653D01*
X155148599Y-98376903D01*
X155148624Y-98377153D01*
X155181290Y-98541379D01*
X155181290Y-98738621D01*
X155142811Y-98932066D01*
X155067332Y-99114289D01*
X154957753Y-99278285D01*
X154818285Y-99417753D01*
X154654289Y-99527332D01*
X154552843Y-99569352D01*
X154472066Y-99602811D01*
X154278621Y-99641290D01*
X154081379Y-99641290D01*
X153887934Y-99602811D01*
X153807157Y-99569352D01*
X153705711Y-99527332D01*
X153541715Y-99417753D01*
X153402247Y-99278285D01*
X153292668Y-99114289D01*
X153217189Y-98932066D01*
X153178710Y-98738621D01*
X153178710Y-98541379D01*
X153217189Y-98347934D01*
X153277768Y-98201683D01*
X153292668Y-98165711D01*
X153402247Y-98001715D01*
X153541715Y-97862247D01*
X153705711Y-97752668D01*
X153806011Y-97711122D01*
X153806234Y-97711004D01*
X153806428Y-97710845D01*
X153806587Y-97710651D01*
X153866435Y-97621081D01*
X153971081Y-97516435D01*
X154094131Y-97434216D01*
X154094133Y-97434215D01*
X154230856Y-97377582D01*
X154376002Y-97348710D01*
X154523998Y-97348710D01*
X154669144Y-97377582D01*
G37*
G36*
X167278318Y-97470648D02*
G01*
X167388857Y-97516435D01*
X167476920Y-97552912D01*
X167655657Y-97672340D01*
X167807660Y-97824343D01*
X167927088Y-98003080D01*
X167936583Y-98026004D01*
X168009352Y-98201682D01*
X168051290Y-98412515D01*
X168051290Y-98627485D01*
X168009352Y-98838318D01*
X167970520Y-98932066D01*
X167927088Y-99036920D01*
X167807660Y-99215657D01*
X167655657Y-99367660D01*
X167476920Y-99487088D01*
X167403555Y-99517477D01*
X167278318Y-99569352D01*
X167067485Y-99611290D01*
X166852515Y-99611290D01*
X166641682Y-99569352D01*
X166516445Y-99517477D01*
X166443080Y-99487088D01*
X166264343Y-99367660D01*
X166112340Y-99215657D01*
X165992912Y-99036920D01*
X165949480Y-98932066D01*
X165910648Y-98838318D01*
X165868710Y-98627485D01*
X165868710Y-98412515D01*
X165910648Y-98201682D01*
X165983417Y-98026004D01*
X165992912Y-98003080D01*
X166112340Y-97824343D01*
X166264343Y-97672340D01*
X166443080Y-97552912D01*
X166531143Y-97516435D01*
X166641682Y-97470648D01*
X166852515Y-97428710D01*
X167067485Y-97428710D01*
X167278318Y-97470648D01*
G37*
G36*
X148418318Y-94990648D02*
G01*
X148543555Y-95042523D01*
X148616920Y-95072912D01*
X148795657Y-95192340D01*
X148947660Y-95344343D01*
X149067088Y-95523080D01*
X149067089Y-95523083D01*
X149149352Y-95721682D01*
X149191290Y-95932515D01*
X149191290Y-96147485D01*
X149149352Y-96358318D01*
X149108945Y-96455869D01*
X149067088Y-96556920D01*
X148947660Y-96735657D01*
X148795657Y-96887660D01*
X148616920Y-97007088D01*
X148543555Y-97037477D01*
X148418318Y-97089352D01*
X148207485Y-97131290D01*
X147992515Y-97131290D01*
X147781682Y-97089352D01*
X147656445Y-97037477D01*
X147583080Y-97007088D01*
X147404343Y-96887660D01*
X147252340Y-96735657D01*
X147132912Y-96556920D01*
X147091055Y-96455869D01*
X147050648Y-96358318D01*
X147008710Y-96147485D01*
X147008710Y-95932515D01*
X147050648Y-95721682D01*
X147132911Y-95523083D01*
X147132912Y-95523080D01*
X147252340Y-95344343D01*
X147404343Y-95192340D01*
X147583080Y-95072912D01*
X147656445Y-95042523D01*
X147781682Y-94990648D01*
X147992515Y-94948710D01*
X148207485Y-94948710D01*
X148418318Y-94990648D01*
G37*
G36*
X157012066Y-95137189D02*
G01*
X157194289Y-95212668D01*
X157358285Y-95322247D01*
X157497753Y-95461715D01*
X157607332Y-95625711D01*
X157682811Y-95807934D01*
X157721290Y-96001379D01*
X157721290Y-96198621D01*
X157706019Y-96275391D01*
X157682811Y-96392066D01*
X157607332Y-96574289D01*
X157497753Y-96738285D01*
X157358285Y-96877753D01*
X157194289Y-96987332D01*
X157146591Y-97007089D01*
X157012066Y-97062811D01*
X156818621Y-97101290D01*
X156621379Y-97101290D01*
X156427934Y-97062811D01*
X156293409Y-97007089D01*
X156245711Y-96987332D01*
X156081715Y-96877753D01*
X155942247Y-96738285D01*
X155832668Y-96574289D01*
X155757189Y-96392066D01*
X155756660Y-96389408D01*
X155756587Y-96389168D01*
X155727582Y-96319144D01*
X155698710Y-96173998D01*
X155698710Y-96026002D01*
X155727582Y-95880856D01*
X155756587Y-95810832D01*
X155756660Y-95810592D01*
X155757189Y-95807934D01*
X155832668Y-95625711D01*
X155942247Y-95461715D01*
X156081715Y-95322247D01*
X156245711Y-95212668D01*
X156427934Y-95137189D01*
X156621379Y-95098710D01*
X156818621Y-95098710D01*
X157012066Y-95137189D01*
G37*
G36*
X152243968Y-95098710D02*
G01*
X152377481Y-95125267D01*
X152550605Y-95196978D01*
X152706412Y-95301085D01*
X152838915Y-95433588D01*
X152943022Y-95589395D01*
X153014733Y-95762519D01*
X153038271Y-95880856D01*
X153051290Y-95946304D01*
X153051290Y-96133696D01*
X153048547Y-96147485D01*
X153014733Y-96317481D01*
X152943022Y-96490605D01*
X152838915Y-96646412D01*
X152706412Y-96778915D01*
X152550605Y-96883022D01*
X152377481Y-96954733D01*
X152254679Y-96979159D01*
X152193696Y-96991290D01*
X152006304Y-96991290D01*
X151945321Y-96979159D01*
X151822519Y-96954733D01*
X151649395Y-96883022D01*
X151493588Y-96778915D01*
X151361085Y-96646412D01*
X151256978Y-96490605D01*
X151185267Y-96317481D01*
X151151453Y-96147485D01*
X151148710Y-96133696D01*
X151148710Y-95946304D01*
X151161729Y-95880856D01*
X151185267Y-95762519D01*
X151256978Y-95589395D01*
X151361085Y-95433588D01*
X151493588Y-95301085D01*
X151649395Y-95196978D01*
X151822519Y-95125267D01*
X151956032Y-95098710D01*
X152006304Y-95088710D01*
X152193696Y-95088710D01*
X152243968Y-95098710D01*
G37*
G36*
X154669144Y-95377582D02*
G01*
X154804353Y-95433588D01*
X154805869Y-95434216D01*
X154928919Y-95516435D01*
X155033565Y-95621081D01*
X155115785Y-95744133D01*
X155172418Y-95880856D01*
X155201290Y-96026002D01*
X155201290Y-96173998D01*
X155172418Y-96319144D01*
X155145215Y-96384817D01*
X155115784Y-96455869D01*
X155033565Y-96578919D01*
X154928919Y-96683565D01*
X154805869Y-96765784D01*
X154805868Y-96765785D01*
X154805867Y-96765785D01*
X154669144Y-96822418D01*
X154523998Y-96851290D01*
X154376002Y-96851290D01*
X154230856Y-96822418D01*
X154094133Y-96765785D01*
X154094132Y-96765785D01*
X154094131Y-96765784D01*
X153971081Y-96683565D01*
X153938365Y-96650849D01*
X153938171Y-96650690D01*
X153937949Y-96650572D01*
X153895184Y-96632858D01*
X153796700Y-96567053D01*
X153712947Y-96483300D01*
X153647142Y-96384816D01*
X153601817Y-96275391D01*
X153578710Y-96159224D01*
X153578710Y-96040776D01*
X153601817Y-95924609D01*
X153647142Y-95815184D01*
X153712947Y-95716700D01*
X153796700Y-95632947D01*
X153895184Y-95567142D01*
X153937949Y-95549428D01*
X153938171Y-95549310D01*
X153938365Y-95549151D01*
X153971081Y-95516435D01*
X154094131Y-95434216D01*
X154095647Y-95433588D01*
X154230856Y-95377582D01*
X154376002Y-95348710D01*
X154523998Y-95348710D01*
X154669144Y-95377582D01*
G37*
G36*
X154472066Y-92597189D02*
G01*
X154654289Y-92672668D01*
X154818285Y-92782247D01*
X154957753Y-92921715D01*
X155067332Y-93085711D01*
X155067333Y-93085714D01*
X155142811Y-93267934D01*
X155181290Y-93461379D01*
X155181290Y-93658621D01*
X155148624Y-93822847D01*
X155148599Y-93823097D01*
X155148624Y-93823347D01*
X155148697Y-93823587D01*
X155172418Y-93880856D01*
X155201290Y-94026002D01*
X155201290Y-94173998D01*
X155172418Y-94319144D01*
X155119320Y-94447332D01*
X155115784Y-94455869D01*
X155033565Y-94578919D01*
X154928919Y-94683565D01*
X154805869Y-94765784D01*
X154805868Y-94765785D01*
X154805867Y-94765785D01*
X154669144Y-94822418D01*
X154523998Y-94851290D01*
X154376002Y-94851290D01*
X154230856Y-94822418D01*
X154094133Y-94765785D01*
X154094132Y-94765785D01*
X154094131Y-94765784D01*
X153971081Y-94683565D01*
X153866435Y-94578919D01*
X153806584Y-94489346D01*
X153806428Y-94489155D01*
X153806234Y-94488996D01*
X153806012Y-94488878D01*
X153777479Y-94477059D01*
X153705711Y-94447332D01*
X153541715Y-94337753D01*
X153402247Y-94198285D01*
X153292668Y-94034289D01*
X153217189Y-93852066D01*
X153211377Y-93822847D01*
X153178710Y-93658621D01*
X153178710Y-93461379D01*
X153217189Y-93267934D01*
X153292667Y-93085714D01*
X153292668Y-93085711D01*
X153402247Y-92921715D01*
X153541715Y-92782247D01*
X153705711Y-92672668D01*
X153887934Y-92597189D01*
X154081379Y-92558710D01*
X154278621Y-92558710D01*
X154472066Y-92597189D01*
G37*
G36*
X157012066Y-92597189D02*
G01*
X157194289Y-92672668D01*
X157358285Y-92782247D01*
X157497753Y-92921715D01*
X157607332Y-93085711D01*
X157607333Y-93085714D01*
X157682811Y-93267934D01*
X157721290Y-93461379D01*
X157721290Y-93658621D01*
X157688623Y-93822847D01*
X157682811Y-93852066D01*
X157607332Y-94034289D01*
X157497753Y-94198285D01*
X157358285Y-94337753D01*
X157194289Y-94447332D01*
X157122521Y-94477059D01*
X157093988Y-94488878D01*
X157093766Y-94488996D01*
X157093572Y-94489155D01*
X157093416Y-94489346D01*
X157033565Y-94578919D01*
X156928919Y-94683565D01*
X156805869Y-94765784D01*
X156805868Y-94765785D01*
X156805867Y-94765785D01*
X156669144Y-94822418D01*
X156523998Y-94851290D01*
X156376002Y-94851290D01*
X156230856Y-94822418D01*
X156094133Y-94765785D01*
X156094132Y-94765785D01*
X156094131Y-94765784D01*
X155971081Y-94683565D01*
X155866435Y-94578919D01*
X155784216Y-94455869D01*
X155780680Y-94447332D01*
X155727582Y-94319144D01*
X155698710Y-94173998D01*
X155698710Y-94026002D01*
X155727582Y-93880856D01*
X155751303Y-93823587D01*
X155751376Y-93823347D01*
X155751401Y-93823097D01*
X155751376Y-93822847D01*
X155718710Y-93658621D01*
X155718710Y-93461379D01*
X155757189Y-93267934D01*
X155832667Y-93085714D01*
X155832668Y-93085711D01*
X155942247Y-92921715D01*
X156081715Y-92782247D01*
X156245711Y-92672668D01*
X156427934Y-92597189D01*
X156621379Y-92558710D01*
X156818621Y-92558710D01*
X157012066Y-92597189D01*
G37*
G36*
X148418318Y-90990648D02*
G01*
X148543555Y-91042523D01*
X148616920Y-91072912D01*
X148795657Y-91192340D01*
X148947660Y-91344343D01*
X149067088Y-91523080D01*
X149067089Y-91523083D01*
X149149352Y-91721682D01*
X149191290Y-91932515D01*
X149191290Y-92147485D01*
X149153330Y-92338318D01*
X149149352Y-92358317D01*
X149067088Y-92556920D01*
X148947660Y-92735657D01*
X148795657Y-92887660D01*
X148616920Y-93007088D01*
X148543555Y-93037477D01*
X148418318Y-93089352D01*
X148207485Y-93131290D01*
X147992515Y-93131290D01*
X147781682Y-93089352D01*
X147656445Y-93037477D01*
X147583080Y-93007088D01*
X147404343Y-92887660D01*
X147252340Y-92735657D01*
X147132912Y-92556920D01*
X147050648Y-92358317D01*
X147046670Y-92338318D01*
X147008710Y-92147485D01*
X147008710Y-91932515D01*
X147050648Y-91721682D01*
X147132911Y-91523083D01*
X147132912Y-91523080D01*
X147252340Y-91344343D01*
X147404343Y-91192340D01*
X147583080Y-91072912D01*
X147656445Y-91042523D01*
X147781682Y-90990648D01*
X147992515Y-90948710D01*
X148207485Y-90948710D01*
X148418318Y-90990648D01*
G37*
G36*
X152418318Y-90990648D02*
G01*
X152543555Y-91042523D01*
X152616920Y-91072912D01*
X152795657Y-91192340D01*
X152947660Y-91344343D01*
X153067088Y-91523080D01*
X153067089Y-91523083D01*
X153149352Y-91721682D01*
X153191290Y-91932515D01*
X153191290Y-92147485D01*
X153153330Y-92338318D01*
X153149352Y-92358317D01*
X153067088Y-92556920D01*
X152947660Y-92735657D01*
X152795657Y-92887660D01*
X152616920Y-93007088D01*
X152543555Y-93037477D01*
X152418318Y-93089352D01*
X152207485Y-93131290D01*
X151992515Y-93131290D01*
X151781682Y-93089352D01*
X151656445Y-93037477D01*
X151583080Y-93007088D01*
X151404343Y-92887660D01*
X151252340Y-92735657D01*
X151132912Y-92556920D01*
X151050648Y-92358317D01*
X151046670Y-92338318D01*
X151008710Y-92147485D01*
X151008710Y-91932515D01*
X151050648Y-91721682D01*
X151132911Y-91523083D01*
X151132912Y-91523080D01*
X151252340Y-91344343D01*
X151404343Y-91192340D01*
X151583080Y-91072912D01*
X151656445Y-91042523D01*
X151781682Y-90990648D01*
X151992515Y-90948710D01*
X152207485Y-90948710D01*
X152418318Y-90990648D01*
G37*
G36*
X167278318Y-90970648D02*
G01*
X167403555Y-91022523D01*
X167476920Y-91052912D01*
X167655657Y-91172340D01*
X167807660Y-91324343D01*
X167927088Y-91503080D01*
X167957477Y-91576445D01*
X168009352Y-91701682D01*
X168051290Y-91912515D01*
X168051290Y-92127485D01*
X168009352Y-92338318D01*
X167957477Y-92463555D01*
X167927088Y-92536920D01*
X167807660Y-92715657D01*
X167655657Y-92867660D01*
X167476920Y-92987088D01*
X167428633Y-93007089D01*
X167278318Y-93069352D01*
X167067485Y-93111290D01*
X166852515Y-93111290D01*
X166641682Y-93069352D01*
X166491367Y-93007089D01*
X166443080Y-92987088D01*
X166264343Y-92867660D01*
X166112340Y-92715657D01*
X165992912Y-92536920D01*
X165962523Y-92463555D01*
X165910648Y-92338318D01*
X165868710Y-92127485D01*
X165868710Y-91912515D01*
X165910648Y-91701682D01*
X165962523Y-91576445D01*
X165992912Y-91503080D01*
X166112340Y-91324343D01*
X166264343Y-91172340D01*
X166443080Y-91052912D01*
X166516445Y-91022523D01*
X166641682Y-90970648D01*
X166852515Y-90928710D01*
X167067485Y-90928710D01*
X167278318Y-90970648D01*
G37*
G36*
X148418318Y-86990648D02*
G01*
X148543555Y-87042523D01*
X148616920Y-87072912D01*
X148795657Y-87192340D01*
X148947660Y-87344343D01*
X149067088Y-87523080D01*
X149067089Y-87523083D01*
X149149352Y-87721682D01*
X149191290Y-87932515D01*
X149191290Y-88147485D01*
X149153330Y-88338318D01*
X149149352Y-88358317D01*
X149067088Y-88556920D01*
X148947660Y-88735657D01*
X148795657Y-88887660D01*
X148616920Y-89007088D01*
X148543555Y-89037477D01*
X148418318Y-89089352D01*
X148207485Y-89131290D01*
X147992515Y-89131290D01*
X147781682Y-89089352D01*
X147656445Y-89037477D01*
X147583080Y-89007088D01*
X147404343Y-88887660D01*
X147252340Y-88735657D01*
X147132912Y-88556920D01*
X147050648Y-88358317D01*
X147046670Y-88338318D01*
X147008710Y-88147485D01*
X147008710Y-87932515D01*
X147050648Y-87721682D01*
X147132911Y-87523083D01*
X147132912Y-87523080D01*
X147252340Y-87344343D01*
X147404343Y-87192340D01*
X147583080Y-87072912D01*
X147656445Y-87042523D01*
X147781682Y-86990648D01*
X147992515Y-86948710D01*
X148207485Y-86948710D01*
X148418318Y-86990648D01*
G37*
G36*
X152418318Y-86990648D02*
G01*
X152543555Y-87042523D01*
X152616920Y-87072912D01*
X152795657Y-87192340D01*
X152947660Y-87344343D01*
X153067088Y-87523080D01*
X153067089Y-87523083D01*
X153149352Y-87721682D01*
X153191290Y-87932515D01*
X153191290Y-88147485D01*
X153153330Y-88338318D01*
X153149352Y-88358317D01*
X153067088Y-88556920D01*
X152947660Y-88735657D01*
X152795657Y-88887660D01*
X152616920Y-89007088D01*
X152543555Y-89037477D01*
X152418318Y-89089352D01*
X152207485Y-89131290D01*
X151992515Y-89131290D01*
X151781682Y-89089352D01*
X151656445Y-89037477D01*
X151583080Y-89007088D01*
X151404343Y-88887660D01*
X151252340Y-88735657D01*
X151132912Y-88556920D01*
X151050648Y-88358317D01*
X151046670Y-88338318D01*
X151008710Y-88147485D01*
X151008710Y-87932515D01*
X151050648Y-87721682D01*
X151132911Y-87523083D01*
X151132912Y-87523080D01*
X151252340Y-87344343D01*
X151404343Y-87192340D01*
X151583080Y-87072912D01*
X151656445Y-87042523D01*
X151781682Y-86990648D01*
X151992515Y-86948710D01*
X152207485Y-86948710D01*
X152418318Y-86990648D01*
G37*
G36*
X167278318Y-86970648D02*
G01*
X167403555Y-87022523D01*
X167476920Y-87052912D01*
X167655657Y-87172340D01*
X167807660Y-87324343D01*
X167927088Y-87503080D01*
X167957477Y-87576445D01*
X168009352Y-87701682D01*
X168051290Y-87912515D01*
X168051290Y-88127485D01*
X168009352Y-88338318D01*
X167957477Y-88463555D01*
X167927088Y-88536920D01*
X167807660Y-88715657D01*
X167655657Y-88867660D01*
X167476920Y-88987088D01*
X167428633Y-89007089D01*
X167278318Y-89069352D01*
X167067485Y-89111290D01*
X166852515Y-89111290D01*
X166641682Y-89069352D01*
X166491367Y-89007089D01*
X166443080Y-88987088D01*
X166264343Y-88867660D01*
X166112340Y-88715657D01*
X165992912Y-88536920D01*
X165962523Y-88463555D01*
X165910648Y-88338318D01*
X165868710Y-88127485D01*
X165868710Y-87912515D01*
X165910648Y-87701682D01*
X165962523Y-87576445D01*
X165992912Y-87503080D01*
X166112340Y-87324343D01*
X166264343Y-87172340D01*
X166443080Y-87052912D01*
X166516445Y-87022523D01*
X166641682Y-86970648D01*
X166852515Y-86928710D01*
X167067485Y-86928710D01*
X167278318Y-86970648D01*
G37*
G36*
X167278318Y-82970648D02*
G01*
X167403555Y-83022523D01*
X167476920Y-83052912D01*
X167655657Y-83172340D01*
X167807660Y-83324343D01*
X167927088Y-83503080D01*
X168009352Y-83701683D01*
X168051290Y-83912517D01*
X168051290Y-84127483D01*
X168009352Y-84338317D01*
X167927088Y-84536920D01*
X167807660Y-84715657D01*
X167655657Y-84867660D01*
X167476920Y-84987088D01*
X167403555Y-85017477D01*
X167278318Y-85069352D01*
X167067485Y-85111290D01*
X166852515Y-85111290D01*
X166641682Y-85069352D01*
X166516445Y-85017477D01*
X166443080Y-84987088D01*
X166264343Y-84867660D01*
X166112340Y-84715657D01*
X165992912Y-84536920D01*
X165910648Y-84338317D01*
X165868710Y-84127483D01*
X165868710Y-83912517D01*
X165910648Y-83701683D01*
X165992912Y-83503080D01*
X166112340Y-83324343D01*
X166264343Y-83172340D01*
X166443080Y-83052912D01*
X166516445Y-83022523D01*
X166641682Y-82970648D01*
X166852515Y-82928710D01*
X167067485Y-82928710D01*
X167278318Y-82970648D01*
G37*
G36*
X167278318Y-78970648D02*
G01*
X167403555Y-79022523D01*
X167476920Y-79052912D01*
X167655657Y-79172340D01*
X167807660Y-79324343D01*
X167927088Y-79503080D01*
X168009352Y-79701683D01*
X168051290Y-79912517D01*
X168051290Y-80127483D01*
X168009352Y-80338317D01*
X167927088Y-80536920D01*
X167807660Y-80715657D01*
X167655657Y-80867660D01*
X167476920Y-80987088D01*
X167403555Y-81017477D01*
X167278318Y-81069352D01*
X167067485Y-81111290D01*
X166852515Y-81111290D01*
X166641682Y-81069352D01*
X166516445Y-81017477D01*
X166443080Y-80987088D01*
X166264343Y-80867660D01*
X166112340Y-80715657D01*
X165992912Y-80536920D01*
X165910648Y-80338317D01*
X165868710Y-80127483D01*
X165868710Y-79912517D01*
X165910648Y-79701683D01*
X165992912Y-79503080D01*
X166112340Y-79324343D01*
X166264343Y-79172340D01*
X166443080Y-79052912D01*
X166516445Y-79022523D01*
X166641682Y-78970648D01*
X166852515Y-78928710D01*
X167067485Y-78928710D01*
X167278318Y-78970648D01*
G37*
M02*
