G04 #@! TF.GenerationSoftware,KiCad,Pcbnew,(5.1.5-0-10_14)*
G04 #@! TF.CreationDate,2020-11-03T15:19:47-05:00*
G04 #@! TF.ProjectId,FC_Rear_Port_1P,46435f52-6561-4725-9f50-6f72745f3150,rev?*
G04 #@! TF.SameCoordinates,Original*
G04 #@! TF.FileFunction,Soldermask,Top*
G04 #@! TF.FilePolarity,Negative*
%FSLAX46Y46*%
G04 Gerber Fmt 4.6, Leading zero omitted, Abs format (unit mm)*
G04 Created by KiCad (PCBNEW (5.1.5-0-10_14)) date 2020-11-03 15:19:47*
%MOMM*%
%LPD*%
G04 APERTURE LIST*
%ADD10C,0.150000*%
%ADD11C,0.100000*%
G04 APERTURE END LIST*
D10*
X143448471Y-114354860D02*
X143448471Y-115069146D01*
X143400852Y-115212003D01*
X143305614Y-115307241D01*
X143162757Y-115354860D01*
X143067519Y-115354860D01*
X144305614Y-115307241D02*
X144210376Y-115354860D01*
X144019900Y-115354860D01*
X143924661Y-115307241D01*
X143877042Y-115212003D01*
X143877042Y-114831051D01*
X143924661Y-114735813D01*
X144019900Y-114688194D01*
X144210376Y-114688194D01*
X144305614Y-114735813D01*
X144353233Y-114831051D01*
X144353233Y-114926289D01*
X143877042Y-115021527D01*
X144638947Y-114688194D02*
X145019900Y-114688194D01*
X144781804Y-115354860D02*
X144781804Y-114497718D01*
X144829423Y-114402480D01*
X144924661Y-114354860D01*
X145019900Y-114354860D01*
X145210376Y-114688194D02*
X145591328Y-114688194D01*
X145353233Y-115354860D02*
X145353233Y-114497718D01*
X145400852Y-114402480D01*
X145496090Y-114354860D01*
X145591328Y-114354860D01*
X147257995Y-115259622D02*
X147210376Y-115307241D01*
X147067519Y-115354860D01*
X146972280Y-115354860D01*
X146829423Y-115307241D01*
X146734185Y-115212003D01*
X146686566Y-115116765D01*
X146638947Y-114926289D01*
X146638947Y-114783432D01*
X146686566Y-114592956D01*
X146734185Y-114497718D01*
X146829423Y-114402480D01*
X146972280Y-114354860D01*
X147067519Y-114354860D01*
X147210376Y-114402480D01*
X147257995Y-114450099D01*
X147686566Y-115354860D02*
X147686566Y-114354860D01*
X148115138Y-115354860D02*
X148115138Y-114831051D01*
X148067519Y-114735813D01*
X147972280Y-114688194D01*
X147829423Y-114688194D01*
X147734185Y-114735813D01*
X147686566Y-114783432D01*
X148972280Y-115307241D02*
X148877042Y-115354860D01*
X148686566Y-115354860D01*
X148591328Y-115307241D01*
X148543709Y-115212003D01*
X148543709Y-114831051D01*
X148591328Y-114735813D01*
X148686566Y-114688194D01*
X148877042Y-114688194D01*
X148972280Y-114735813D01*
X149019900Y-114831051D01*
X149019900Y-114926289D01*
X148543709Y-115021527D01*
X149448471Y-114688194D02*
X149448471Y-115354860D01*
X149448471Y-114783432D02*
X149496090Y-114735813D01*
X149591328Y-114688194D01*
X149734185Y-114688194D01*
X149829423Y-114735813D01*
X149877042Y-114831051D01*
X149877042Y-115354860D01*
X144805614Y-116100099D02*
X144853233Y-116052480D01*
X144948471Y-116004860D01*
X145186566Y-116004860D01*
X145281804Y-116052480D01*
X145329423Y-116100099D01*
X145377042Y-116195337D01*
X145377042Y-116290575D01*
X145329423Y-116433432D01*
X144757995Y-117004860D01*
X145377042Y-117004860D01*
X145996090Y-116004860D02*
X146091328Y-116004860D01*
X146186566Y-116052480D01*
X146234185Y-116100099D01*
X146281804Y-116195337D01*
X146329423Y-116385813D01*
X146329423Y-116623908D01*
X146281804Y-116814384D01*
X146234185Y-116909622D01*
X146186566Y-116957241D01*
X146091328Y-117004860D01*
X145996090Y-117004860D01*
X145900852Y-116957241D01*
X145853233Y-116909622D01*
X145805614Y-116814384D01*
X145757995Y-116623908D01*
X145757995Y-116385813D01*
X145805614Y-116195337D01*
X145853233Y-116100099D01*
X145900852Y-116052480D01*
X145996090Y-116004860D01*
X146710376Y-116100099D02*
X146757995Y-116052480D01*
X146853233Y-116004860D01*
X147091328Y-116004860D01*
X147186566Y-116052480D01*
X147234185Y-116100099D01*
X147281804Y-116195337D01*
X147281804Y-116290575D01*
X147234185Y-116433432D01*
X146662757Y-117004860D01*
X147281804Y-117004860D01*
X147900852Y-116004860D02*
X147996090Y-116004860D01*
X148091328Y-116052480D01*
X148138947Y-116100099D01*
X148186566Y-116195337D01*
X148234185Y-116385813D01*
X148234185Y-116623908D01*
X148186566Y-116814384D01*
X148138947Y-116909622D01*
X148091328Y-116957241D01*
X147996090Y-117004860D01*
X147900852Y-117004860D01*
X147805614Y-116957241D01*
X147757995Y-116909622D01*
X147710376Y-116814384D01*
X147662757Y-116623908D01*
X147662757Y-116385813D01*
X147710376Y-116195337D01*
X147757995Y-116100099D01*
X147805614Y-116052480D01*
X147900852Y-116004860D01*
X159259615Y-79759231D02*
X158926281Y-79759231D01*
X158926281Y-80283040D02*
X158926281Y-79283040D01*
X159402472Y-79283040D01*
X160211996Y-80283040D02*
X160211996Y-79759231D01*
X160164377Y-79663993D01*
X160069139Y-79616374D01*
X159878662Y-79616374D01*
X159783424Y-79663993D01*
X160211996Y-80235421D02*
X160116758Y-80283040D01*
X159878662Y-80283040D01*
X159783424Y-80235421D01*
X159735805Y-80140183D01*
X159735805Y-80044945D01*
X159783424Y-79949707D01*
X159878662Y-79902088D01*
X160116758Y-79902088D01*
X160211996Y-79854469D01*
X160688186Y-80283040D02*
X160688186Y-79616374D01*
X160688186Y-79711612D02*
X160735805Y-79663993D01*
X160831043Y-79616374D01*
X160973900Y-79616374D01*
X161069139Y-79663993D01*
X161116758Y-79759231D01*
X161116758Y-80283040D01*
X161116758Y-79759231D02*
X161164377Y-79663993D01*
X161259615Y-79616374D01*
X161402472Y-79616374D01*
X161497710Y-79663993D01*
X161545329Y-79759231D01*
X161545329Y-80283040D01*
X162021520Y-80283040D02*
X162021520Y-79616374D01*
X162021520Y-79283040D02*
X161973900Y-79330660D01*
X162021520Y-79378279D01*
X162069139Y-79330660D01*
X162021520Y-79283040D01*
X162021520Y-79378279D01*
X162926281Y-80235421D02*
X162831043Y-80283040D01*
X162640567Y-80283040D01*
X162545329Y-80235421D01*
X162497710Y-80187802D01*
X162450091Y-80092564D01*
X162450091Y-79806850D01*
X162497710Y-79711612D01*
X162545329Y-79663993D01*
X162640567Y-79616374D01*
X162831043Y-79616374D01*
X162926281Y-79663993D01*
X163497710Y-80283040D02*
X163402472Y-80235421D01*
X163354853Y-80187802D01*
X163307234Y-80092564D01*
X163307234Y-79806850D01*
X163354853Y-79711612D01*
X163402472Y-79663993D01*
X163497710Y-79616374D01*
X163640567Y-79616374D01*
X163735805Y-79663993D01*
X163783424Y-79711612D01*
X163831043Y-79806850D01*
X163831043Y-80092564D01*
X163783424Y-80187802D01*
X163735805Y-80235421D01*
X163640567Y-80283040D01*
X163497710Y-80283040D01*
X164259615Y-80283040D02*
X164259615Y-79616374D01*
X164259615Y-79711612D02*
X164307234Y-79663993D01*
X164402472Y-79616374D01*
X164545329Y-79616374D01*
X164640567Y-79663993D01*
X164688186Y-79759231D01*
X164688186Y-80283040D01*
X164688186Y-79759231D02*
X164735805Y-79663993D01*
X164831043Y-79616374D01*
X164973900Y-79616374D01*
X165069139Y-79663993D01*
X165116758Y-79759231D01*
X165116758Y-80283040D01*
X159211996Y-81933040D02*
X158878662Y-81456850D01*
X158640567Y-81933040D02*
X158640567Y-80933040D01*
X159021520Y-80933040D01*
X159116758Y-80980660D01*
X159164377Y-81028279D01*
X159211996Y-81123517D01*
X159211996Y-81266374D01*
X159164377Y-81361612D01*
X159116758Y-81409231D01*
X159021520Y-81456850D01*
X158640567Y-81456850D01*
X160021520Y-81885421D02*
X159926281Y-81933040D01*
X159735805Y-81933040D01*
X159640567Y-81885421D01*
X159592948Y-81790183D01*
X159592948Y-81409231D01*
X159640567Y-81313993D01*
X159735805Y-81266374D01*
X159926281Y-81266374D01*
X160021520Y-81313993D01*
X160069139Y-81409231D01*
X160069139Y-81504469D01*
X159592948Y-81599707D01*
X160926281Y-81933040D02*
X160926281Y-81409231D01*
X160878662Y-81313993D01*
X160783424Y-81266374D01*
X160592948Y-81266374D01*
X160497710Y-81313993D01*
X160926281Y-81885421D02*
X160831043Y-81933040D01*
X160592948Y-81933040D01*
X160497710Y-81885421D01*
X160450091Y-81790183D01*
X160450091Y-81694945D01*
X160497710Y-81599707D01*
X160592948Y-81552088D01*
X160831043Y-81552088D01*
X160926281Y-81504469D01*
X161402472Y-81933040D02*
X161402472Y-81266374D01*
X161402472Y-81456850D02*
X161450091Y-81361612D01*
X161497710Y-81313993D01*
X161592948Y-81266374D01*
X161688186Y-81266374D01*
X162783424Y-81933040D02*
X162783424Y-80933040D01*
X163164377Y-80933040D01*
X163259615Y-80980660D01*
X163307234Y-81028279D01*
X163354853Y-81123517D01*
X163354853Y-81266374D01*
X163307234Y-81361612D01*
X163259615Y-81409231D01*
X163164377Y-81456850D01*
X162783424Y-81456850D01*
X163926281Y-81933040D02*
X163831043Y-81885421D01*
X163783424Y-81837802D01*
X163735805Y-81742564D01*
X163735805Y-81456850D01*
X163783424Y-81361612D01*
X163831043Y-81313993D01*
X163926281Y-81266374D01*
X164069139Y-81266374D01*
X164164377Y-81313993D01*
X164211996Y-81361612D01*
X164259615Y-81456850D01*
X164259615Y-81742564D01*
X164211996Y-81837802D01*
X164164377Y-81885421D01*
X164069139Y-81933040D01*
X163926281Y-81933040D01*
X164688186Y-81933040D02*
X164688186Y-81266374D01*
X164688186Y-81456850D02*
X164735805Y-81361612D01*
X164783424Y-81313993D01*
X164878662Y-81266374D01*
X164973900Y-81266374D01*
X165164377Y-81266374D02*
X165545329Y-81266374D01*
X165307234Y-80933040D02*
X165307234Y-81790183D01*
X165354853Y-81885421D01*
X165450091Y-81933040D01*
X165545329Y-81933040D01*
X161807234Y-83583040D02*
X161235805Y-83583040D01*
X161521520Y-83583040D02*
X161521520Y-82583040D01*
X161426281Y-82725898D01*
X161331043Y-82821136D01*
X161235805Y-82868755D01*
X162235805Y-83583040D02*
X162235805Y-82583040D01*
X162616758Y-82583040D01*
X162711996Y-82630660D01*
X162759615Y-82678279D01*
X162807234Y-82773517D01*
X162807234Y-82916374D01*
X162759615Y-83011612D01*
X162711996Y-83059231D01*
X162616758Y-83106850D01*
X162235805Y-83106850D01*
D11*
G36*
X145872817Y-110122847D02*
G01*
X146080465Y-110208858D01*
X146267345Y-110333727D01*
X146426273Y-110492655D01*
X146551142Y-110679535D01*
X146637153Y-110887183D01*
X146681000Y-111107620D01*
X146681000Y-111332380D01*
X146637153Y-111552817D01*
X146551142Y-111760465D01*
X146426273Y-111947345D01*
X146267345Y-112106273D01*
X146080465Y-112231142D01*
X145872817Y-112317153D01*
X145652380Y-112361000D01*
X145427620Y-112361000D01*
X145207183Y-112317153D01*
X144999535Y-112231142D01*
X144812655Y-112106273D01*
X144653727Y-111947345D01*
X144528858Y-111760465D01*
X144442847Y-111552817D01*
X144399000Y-111332380D01*
X144399000Y-111107620D01*
X144442847Y-110887183D01*
X144528858Y-110679535D01*
X144653727Y-110492655D01*
X144812655Y-110333727D01*
X144999535Y-110208858D01*
X145207183Y-110122847D01*
X145427620Y-110079000D01*
X145652380Y-110079000D01*
X145872817Y-110122847D01*
G37*
G36*
X145872817Y-106122847D02*
G01*
X146080465Y-106208858D01*
X146267345Y-106333727D01*
X146426273Y-106492655D01*
X146551142Y-106679535D01*
X146637153Y-106887183D01*
X146681000Y-107107620D01*
X146681000Y-107332380D01*
X146637153Y-107552817D01*
X146551142Y-107760465D01*
X146426273Y-107947345D01*
X146267345Y-108106273D01*
X146080465Y-108231142D01*
X145872817Y-108317153D01*
X145652380Y-108361000D01*
X145427620Y-108361000D01*
X145207183Y-108317153D01*
X144999535Y-108231142D01*
X144812655Y-108106273D01*
X144653727Y-107947345D01*
X144528858Y-107760465D01*
X144442847Y-107552817D01*
X144399000Y-107332380D01*
X144399000Y-107107620D01*
X144442847Y-106887183D01*
X144528858Y-106679535D01*
X144653727Y-106492655D01*
X144812655Y-106333727D01*
X144999535Y-106208858D01*
X145207183Y-106122847D01*
X145427620Y-106079000D01*
X145652380Y-106079000D01*
X145872817Y-106122847D01*
G37*
G36*
X164812817Y-103672847D02*
G01*
X165020465Y-103758858D01*
X165207345Y-103883727D01*
X165366273Y-104042655D01*
X165491142Y-104229535D01*
X165577153Y-104437183D01*
X165621000Y-104657620D01*
X165621000Y-104882380D01*
X165577153Y-105102817D01*
X165491142Y-105310465D01*
X165366273Y-105497345D01*
X165207345Y-105656273D01*
X165020465Y-105781142D01*
X164812817Y-105867153D01*
X164592380Y-105911000D01*
X164367620Y-105911000D01*
X164147183Y-105867153D01*
X163939535Y-105781142D01*
X163752655Y-105656273D01*
X163593727Y-105497345D01*
X163468858Y-105310465D01*
X163382847Y-105102817D01*
X163339000Y-104882380D01*
X163339000Y-104657620D01*
X163382847Y-104437183D01*
X163468858Y-104229535D01*
X163593727Y-104042655D01*
X163752655Y-103883727D01*
X163939535Y-103758858D01*
X164147183Y-103672847D01*
X164367620Y-103629000D01*
X164592380Y-103629000D01*
X164812817Y-103672847D01*
G37*
G36*
X160812817Y-103672847D02*
G01*
X161020465Y-103758858D01*
X161207345Y-103883727D01*
X161366273Y-104042655D01*
X161491142Y-104229535D01*
X161577153Y-104437183D01*
X161621000Y-104657620D01*
X161621000Y-104882380D01*
X161577153Y-105102817D01*
X161491142Y-105310465D01*
X161366273Y-105497345D01*
X161207345Y-105656273D01*
X161020465Y-105781142D01*
X160812817Y-105867153D01*
X160592380Y-105911000D01*
X160367620Y-105911000D01*
X160147183Y-105867153D01*
X159939535Y-105781142D01*
X159752655Y-105656273D01*
X159593727Y-105497345D01*
X159468858Y-105310465D01*
X159382847Y-105102817D01*
X159339000Y-104882380D01*
X159339000Y-104657620D01*
X159382847Y-104437183D01*
X159468858Y-104229535D01*
X159593727Y-104042655D01*
X159752655Y-103883727D01*
X159939535Y-103758858D01*
X160147183Y-103672847D01*
X160367620Y-103629000D01*
X160592380Y-103629000D01*
X160812817Y-103672847D01*
G37*
G36*
X158203642Y-102099781D02*
G01*
X158338130Y-102155488D01*
X158349416Y-102160163D01*
X158480608Y-102247822D01*
X158592178Y-102359392D01*
X158618904Y-102399390D01*
X158625519Y-102409291D01*
X158641064Y-102428233D01*
X158660006Y-102443778D01*
X158681618Y-102455330D01*
X158737832Y-102478614D01*
X158737835Y-102478616D01*
X158909973Y-102593635D01*
X159056365Y-102740027D01*
X159154692Y-102887183D01*
X159171385Y-102912167D01*
X159250611Y-103103436D01*
X159291000Y-103306484D01*
X159291000Y-103513516D01*
X159250611Y-103716564D01*
X159232426Y-103760466D01*
X159171384Y-103907835D01*
X159056365Y-104079973D01*
X158909973Y-104226365D01*
X158737835Y-104341384D01*
X158737834Y-104341385D01*
X158737833Y-104341385D01*
X158546564Y-104420611D01*
X158343516Y-104461000D01*
X158136484Y-104461000D01*
X157933436Y-104420611D01*
X157742167Y-104341385D01*
X157742166Y-104341385D01*
X157742165Y-104341384D01*
X157570027Y-104226365D01*
X157423635Y-104079973D01*
X157308616Y-103907835D01*
X157247574Y-103760466D01*
X157229389Y-103716564D01*
X157189000Y-103513516D01*
X157189000Y-103306484D01*
X157212358Y-103189055D01*
X157214760Y-103164669D01*
X157212358Y-103140283D01*
X157205245Y-103116835D01*
X157199782Y-103103645D01*
X157169000Y-102948893D01*
X157169000Y-102791107D01*
X157199781Y-102636358D01*
X157260162Y-102490586D01*
X157301824Y-102428234D01*
X157347822Y-102359392D01*
X157459392Y-102247822D01*
X157590584Y-102160163D01*
X157601870Y-102155488D01*
X157736358Y-102099781D01*
X157891107Y-102069000D01*
X158048893Y-102069000D01*
X158203642Y-102099781D01*
G37*
G36*
X156006564Y-97319389D02*
G01*
X156197833Y-97398615D01*
X156197835Y-97398616D01*
X156369973Y-97513635D01*
X156516365Y-97660027D01*
X156621353Y-97817152D01*
X156631385Y-97832167D01*
X156710611Y-98023436D01*
X156751000Y-98226484D01*
X156751000Y-98433516D01*
X156727642Y-98550945D01*
X156725240Y-98575331D01*
X156727642Y-98599717D01*
X156734755Y-98623165D01*
X156740218Y-98636355D01*
X156771000Y-98791107D01*
X156771000Y-98948893D01*
X156740219Y-99103642D01*
X156699457Y-99202049D01*
X156679837Y-99249416D01*
X156592178Y-99380608D01*
X156480608Y-99492178D01*
X156349416Y-99579837D01*
X156349415Y-99579838D01*
X156349414Y-99579838D01*
X156203642Y-99640219D01*
X156117186Y-99657416D01*
X156093737Y-99664529D01*
X156072127Y-99676080D01*
X156053185Y-99691625D01*
X156037639Y-99710567D01*
X156026088Y-99732178D01*
X156018975Y-99755627D01*
X156016573Y-99780013D01*
X156018975Y-99804399D01*
X156026088Y-99827848D01*
X156037639Y-99849458D01*
X156053184Y-99868400D01*
X156072126Y-99883946D01*
X156093737Y-99895497D01*
X156197833Y-99938615D01*
X156197835Y-99938616D01*
X156353540Y-100042655D01*
X156369973Y-100053635D01*
X156516365Y-100200027D01*
X156631385Y-100372167D01*
X156714239Y-100572195D01*
X156715874Y-100577584D01*
X156740219Y-100636358D01*
X156771000Y-100791107D01*
X156771000Y-100948893D01*
X156740219Y-101103642D01*
X156715874Y-101162416D01*
X156714239Y-101167805D01*
X156655147Y-101310466D01*
X156631384Y-101367835D01*
X156516365Y-101539973D01*
X156369973Y-101686365D01*
X156197835Y-101801384D01*
X156197834Y-101801385D01*
X156197833Y-101801385D01*
X156093737Y-101844503D01*
X156072126Y-101856054D01*
X156053184Y-101871599D01*
X156037639Y-101890541D01*
X156026088Y-101912152D01*
X156018975Y-101935601D01*
X156016573Y-101959987D01*
X156018975Y-101984373D01*
X156026088Y-102007822D01*
X156037639Y-102029433D01*
X156053184Y-102048375D01*
X156072126Y-102063920D01*
X156093737Y-102075471D01*
X156117186Y-102082584D01*
X156203642Y-102099781D01*
X156338130Y-102155488D01*
X156349416Y-102160163D01*
X156480608Y-102247822D01*
X156592178Y-102359392D01*
X156638176Y-102428234D01*
X156679838Y-102490586D01*
X156740219Y-102636358D01*
X156771000Y-102791107D01*
X156771000Y-102948893D01*
X156740218Y-103103645D01*
X156734755Y-103116835D01*
X156727642Y-103140284D01*
X156725240Y-103164670D01*
X156727642Y-103189055D01*
X156751000Y-103306484D01*
X156751000Y-103513516D01*
X156710611Y-103716564D01*
X156692426Y-103760466D01*
X156631384Y-103907835D01*
X156516365Y-104079973D01*
X156369973Y-104226365D01*
X156197835Y-104341384D01*
X156197834Y-104341385D01*
X156197833Y-104341385D01*
X156006564Y-104420611D01*
X155803516Y-104461000D01*
X155596484Y-104461000D01*
X155393436Y-104420611D01*
X155202167Y-104341385D01*
X155202166Y-104341385D01*
X155202165Y-104341384D01*
X155030027Y-104226365D01*
X154883635Y-104079973D01*
X154768616Y-103907835D01*
X154707574Y-103760466D01*
X154689389Y-103716564D01*
X154649000Y-103513516D01*
X154649000Y-103306484D01*
X154689389Y-103103436D01*
X154768615Y-102912167D01*
X154785309Y-102887183D01*
X154883635Y-102740027D01*
X155030027Y-102593635D01*
X155202165Y-102478616D01*
X155202168Y-102478614D01*
X155258382Y-102455330D01*
X155279993Y-102443779D01*
X155298935Y-102428234D01*
X155314481Y-102409291D01*
X155321097Y-102399390D01*
X155347822Y-102359392D01*
X155459392Y-102247822D01*
X155590584Y-102160163D01*
X155590585Y-102160162D01*
X155601870Y-102155488D01*
X155623480Y-102143937D01*
X155642422Y-102128392D01*
X155657968Y-102109450D01*
X155669519Y-102087839D01*
X155676632Y-102064390D01*
X155679034Y-102040004D01*
X155676632Y-102015618D01*
X155669519Y-101992169D01*
X155657968Y-101970559D01*
X155642423Y-101951617D01*
X155623481Y-101936071D01*
X155601870Y-101924520D01*
X155578421Y-101917407D01*
X155393436Y-101880611D01*
X155202167Y-101801385D01*
X155202166Y-101801385D01*
X155202165Y-101801384D01*
X155030027Y-101686365D01*
X154883635Y-101539973D01*
X154768616Y-101367835D01*
X154744853Y-101310466D01*
X154689389Y-101176564D01*
X154649000Y-100973516D01*
X154649000Y-100766484D01*
X154689389Y-100563436D01*
X154768615Y-100372167D01*
X154883635Y-100200027D01*
X155030027Y-100053635D01*
X155046460Y-100042655D01*
X155202165Y-99938616D01*
X155202167Y-99938615D01*
X155393436Y-99859389D01*
X155578421Y-99822593D01*
X155601870Y-99815480D01*
X155623481Y-99803929D01*
X155642423Y-99788384D01*
X155657968Y-99769442D01*
X155669519Y-99747831D01*
X155676632Y-99724382D01*
X155679034Y-99699996D01*
X155676632Y-99675610D01*
X155669519Y-99652161D01*
X155657968Y-99630550D01*
X155642423Y-99611608D01*
X155623481Y-99596063D01*
X155601870Y-99584512D01*
X155590585Y-99579838D01*
X155537041Y-99544061D01*
X155459392Y-99492178D01*
X155347822Y-99380608D01*
X155314480Y-99330708D01*
X155298936Y-99311767D01*
X155279994Y-99296222D01*
X155258382Y-99284670D01*
X155202168Y-99261386D01*
X155030027Y-99146365D01*
X154883635Y-98999973D01*
X154768616Y-98827835D01*
X154757483Y-98800958D01*
X154689389Y-98636564D01*
X154649000Y-98433516D01*
X154649000Y-98226484D01*
X154689389Y-98023436D01*
X154768615Y-97832167D01*
X154778648Y-97817152D01*
X154883635Y-97660027D01*
X155030027Y-97513635D01*
X155202165Y-97398616D01*
X155202167Y-97398615D01*
X155393436Y-97319389D01*
X155596484Y-97279000D01*
X155803516Y-97279000D01*
X156006564Y-97319389D01*
G37*
G36*
X145872817Y-102122847D02*
G01*
X146080465Y-102208858D01*
X146267345Y-102333727D01*
X146426273Y-102492655D01*
X146551142Y-102679535D01*
X146637153Y-102887183D01*
X146681000Y-103107620D01*
X146681000Y-103332380D01*
X146637153Y-103552817D01*
X146551142Y-103760465D01*
X146426273Y-103947345D01*
X146267345Y-104106273D01*
X146080465Y-104231142D01*
X145872817Y-104317153D01*
X145652380Y-104361000D01*
X145427620Y-104361000D01*
X145207183Y-104317153D01*
X144999535Y-104231142D01*
X144812655Y-104106273D01*
X144653727Y-103947345D01*
X144528858Y-103760465D01*
X144442847Y-103552817D01*
X144399000Y-103332380D01*
X144399000Y-103107620D01*
X144442847Y-102887183D01*
X144528858Y-102679535D01*
X144653727Y-102492655D01*
X144812655Y-102333727D01*
X144999535Y-102208858D01*
X145207183Y-102122847D01*
X145427620Y-102079000D01*
X145652380Y-102079000D01*
X145872817Y-102122847D01*
G37*
G36*
X164812817Y-99672847D02*
G01*
X165020465Y-99758858D01*
X165207345Y-99883727D01*
X165366273Y-100042655D01*
X165491142Y-100229535D01*
X165577153Y-100437183D01*
X165621000Y-100657620D01*
X165621000Y-100882380D01*
X165577153Y-101102817D01*
X165491142Y-101310465D01*
X165366273Y-101497345D01*
X165207345Y-101656273D01*
X165020465Y-101781142D01*
X164812817Y-101867153D01*
X164592380Y-101911000D01*
X164367620Y-101911000D01*
X164147183Y-101867153D01*
X163939535Y-101781142D01*
X163752655Y-101656273D01*
X163593727Y-101497345D01*
X163468858Y-101310465D01*
X163382847Y-101102817D01*
X163339000Y-100882380D01*
X163339000Y-100657620D01*
X163382847Y-100437183D01*
X163468858Y-100229535D01*
X163593727Y-100042655D01*
X163752655Y-99883727D01*
X163939535Y-99758858D01*
X164147183Y-99672847D01*
X164367620Y-99629000D01*
X164592380Y-99629000D01*
X164812817Y-99672847D01*
G37*
G36*
X160812817Y-99672847D02*
G01*
X161020465Y-99758858D01*
X161207345Y-99883727D01*
X161366273Y-100042655D01*
X161491142Y-100229535D01*
X161577153Y-100437183D01*
X161621000Y-100657620D01*
X161621000Y-100882380D01*
X161577153Y-101102817D01*
X161491142Y-101310465D01*
X161366273Y-101497345D01*
X161207345Y-101656273D01*
X161020465Y-101781142D01*
X160812817Y-101867153D01*
X160592380Y-101911000D01*
X160367620Y-101911000D01*
X160147183Y-101867153D01*
X159939535Y-101781142D01*
X159752655Y-101656273D01*
X159593727Y-101497345D01*
X159468858Y-101310465D01*
X159382847Y-101102817D01*
X159339000Y-100882380D01*
X159339000Y-100657620D01*
X159382847Y-100437183D01*
X159468858Y-100229535D01*
X159593727Y-100042655D01*
X159752655Y-99883727D01*
X159939535Y-99758858D01*
X160147183Y-99672847D01*
X160367620Y-99629000D01*
X160592380Y-99629000D01*
X160812817Y-99672847D01*
G37*
G36*
X158021337Y-100700763D02*
G01*
X158053367Y-100714030D01*
X158053376Y-100714036D01*
X158057164Y-100715605D01*
X158080613Y-100722718D01*
X158104999Y-100725120D01*
X158129385Y-100722718D01*
X158152836Y-100715605D01*
X158156624Y-100714036D01*
X158156633Y-100714030D01*
X158188663Y-100700763D01*
X158222665Y-100694000D01*
X158257335Y-100694000D01*
X158291337Y-100700763D01*
X158323367Y-100714030D01*
X158352194Y-100733292D01*
X158376708Y-100757806D01*
X158395970Y-100786633D01*
X158409237Y-100818663D01*
X158416000Y-100852665D01*
X158416000Y-100887335D01*
X158409237Y-100921337D01*
X158395970Y-100953367D01*
X158376708Y-100982194D01*
X158352194Y-101006708D01*
X158323367Y-101025970D01*
X158291337Y-101039237D01*
X158257335Y-101046000D01*
X158222665Y-101046000D01*
X158188663Y-101039237D01*
X158156633Y-101025970D01*
X158156624Y-101025964D01*
X158152836Y-101024395D01*
X158129387Y-101017282D01*
X158105001Y-101014880D01*
X158080615Y-101017282D01*
X158057164Y-101024395D01*
X158053376Y-101025964D01*
X158053367Y-101025970D01*
X158021337Y-101039237D01*
X157987335Y-101046000D01*
X157952665Y-101046000D01*
X157918663Y-101039237D01*
X157886633Y-101025970D01*
X157857806Y-101006708D01*
X157833292Y-100982194D01*
X157814030Y-100953367D01*
X157800763Y-100921337D01*
X157794000Y-100887335D01*
X157794000Y-100852665D01*
X157800763Y-100818663D01*
X157814030Y-100786633D01*
X157833292Y-100757806D01*
X157857806Y-100733292D01*
X157886633Y-100714030D01*
X157918663Y-100700763D01*
X157952665Y-100694000D01*
X157987335Y-100694000D01*
X158021337Y-100700763D01*
G37*
G36*
X158546564Y-97319389D02*
G01*
X158737833Y-97398615D01*
X158737835Y-97398616D01*
X158909973Y-97513635D01*
X159056365Y-97660027D01*
X159161353Y-97817152D01*
X159171385Y-97832167D01*
X159250611Y-98023436D01*
X159291000Y-98226484D01*
X159291000Y-98433516D01*
X159250611Y-98636564D01*
X159182517Y-98800958D01*
X159171384Y-98827835D01*
X159056365Y-98999973D01*
X158909973Y-99146365D01*
X158737835Y-99261384D01*
X158737834Y-99261385D01*
X158737833Y-99261385D01*
X158546564Y-99340611D01*
X158514087Y-99347071D01*
X158490638Y-99354184D01*
X158469027Y-99365735D01*
X158450084Y-99381280D01*
X158416859Y-99414505D01*
X158302049Y-99491218D01*
X158174473Y-99544062D01*
X158039044Y-99571000D01*
X157900956Y-99571000D01*
X157765527Y-99544062D01*
X157637951Y-99491218D01*
X157523141Y-99414505D01*
X157425495Y-99316859D01*
X157348782Y-99202049D01*
X157295938Y-99074473D01*
X157269000Y-98939044D01*
X157269000Y-98800958D01*
X157270843Y-98791693D01*
X157273245Y-98767307D01*
X157270843Y-98742921D01*
X157263730Y-98719471D01*
X157229389Y-98636564D01*
X157189000Y-98433516D01*
X157189000Y-98226484D01*
X157229389Y-98023436D01*
X157308615Y-97832167D01*
X157318648Y-97817152D01*
X157423635Y-97660027D01*
X157570027Y-97513635D01*
X157742165Y-97398616D01*
X157742167Y-97398615D01*
X157933436Y-97319389D01*
X158136484Y-97279000D01*
X158343516Y-97279000D01*
X158546564Y-97319389D01*
G37*
G36*
X164812817Y-95672847D02*
G01*
X165020465Y-95758858D01*
X165207345Y-95883727D01*
X165366273Y-96042655D01*
X165491142Y-96229535D01*
X165577153Y-96437183D01*
X165621000Y-96657620D01*
X165621000Y-96882380D01*
X165577153Y-97102817D01*
X165491142Y-97310465D01*
X165366273Y-97497345D01*
X165207345Y-97656273D01*
X165020465Y-97781142D01*
X164812817Y-97867153D01*
X164592380Y-97911000D01*
X164367620Y-97911000D01*
X164147183Y-97867153D01*
X163939535Y-97781142D01*
X163752655Y-97656273D01*
X163593727Y-97497345D01*
X163468858Y-97310465D01*
X163382847Y-97102817D01*
X163339000Y-96882380D01*
X163339000Y-96657620D01*
X163382847Y-96437183D01*
X163468858Y-96229535D01*
X163593727Y-96042655D01*
X163752655Y-95883727D01*
X163939535Y-95758858D01*
X164147183Y-95672847D01*
X164367620Y-95629000D01*
X164592380Y-95629000D01*
X164812817Y-95672847D01*
G37*
G36*
X160812817Y-95672847D02*
G01*
X161020465Y-95758858D01*
X161207345Y-95883727D01*
X161366273Y-96042655D01*
X161491142Y-96229535D01*
X161577153Y-96437183D01*
X161621000Y-96657620D01*
X161621000Y-96882380D01*
X161577153Y-97102817D01*
X161491142Y-97310465D01*
X161366273Y-97497345D01*
X161207345Y-97656273D01*
X161020465Y-97781142D01*
X160812817Y-97867153D01*
X160592380Y-97911000D01*
X160367620Y-97911000D01*
X160147183Y-97867153D01*
X159939535Y-97781142D01*
X159752655Y-97656273D01*
X159593727Y-97497345D01*
X159468858Y-97310465D01*
X159382847Y-97102817D01*
X159339000Y-96882380D01*
X159339000Y-96657620D01*
X159382847Y-96437183D01*
X159468858Y-96229535D01*
X159593727Y-96042655D01*
X159752655Y-95883727D01*
X159939535Y-95758858D01*
X160147183Y-95672847D01*
X160367620Y-95629000D01*
X160592380Y-95629000D01*
X160812817Y-95672847D01*
G37*
G36*
X145872817Y-95622847D02*
G01*
X146080465Y-95708858D01*
X146267345Y-95833727D01*
X146426273Y-95992655D01*
X146551142Y-96179535D01*
X146637153Y-96387183D01*
X146681000Y-96607620D01*
X146681000Y-96832380D01*
X146637153Y-97052817D01*
X146551142Y-97260465D01*
X146426273Y-97447345D01*
X146267345Y-97606273D01*
X146080465Y-97731142D01*
X145872817Y-97817153D01*
X145652380Y-97861000D01*
X145427620Y-97861000D01*
X145207183Y-97817153D01*
X144999535Y-97731142D01*
X144812655Y-97606273D01*
X144653727Y-97447345D01*
X144528858Y-97260465D01*
X144442847Y-97052817D01*
X144399000Y-96832380D01*
X144399000Y-96607620D01*
X144442847Y-96387183D01*
X144528858Y-96179535D01*
X144653727Y-95992655D01*
X144812655Y-95833727D01*
X144999535Y-95708858D01*
X145207183Y-95622847D01*
X145427620Y-95579000D01*
X145652380Y-95579000D01*
X145872817Y-95622847D01*
G37*
G36*
X160812817Y-91672847D02*
G01*
X161020465Y-91758858D01*
X161207345Y-91883727D01*
X161366273Y-92042655D01*
X161491142Y-92229535D01*
X161577153Y-92437183D01*
X161621000Y-92657620D01*
X161621000Y-92882380D01*
X161577153Y-93102817D01*
X161491142Y-93310465D01*
X161366273Y-93497345D01*
X161207345Y-93656273D01*
X161020465Y-93781142D01*
X160812817Y-93867153D01*
X160592380Y-93911000D01*
X160367620Y-93911000D01*
X160147183Y-93867153D01*
X159939535Y-93781142D01*
X159752655Y-93656273D01*
X159593727Y-93497345D01*
X159468858Y-93310465D01*
X159382847Y-93102817D01*
X159339000Y-92882380D01*
X159339000Y-92657620D01*
X159382847Y-92437183D01*
X159468858Y-92229535D01*
X159593727Y-92042655D01*
X159752655Y-91883727D01*
X159939535Y-91758858D01*
X160147183Y-91672847D01*
X160367620Y-91629000D01*
X160592380Y-91629000D01*
X160812817Y-91672847D01*
G37*
G36*
X145872817Y-91622847D02*
G01*
X146080465Y-91708858D01*
X146267345Y-91833727D01*
X146426273Y-91992655D01*
X146551142Y-92179535D01*
X146637153Y-92387183D01*
X146681000Y-92607620D01*
X146681000Y-92832380D01*
X146637153Y-93052817D01*
X146551142Y-93260465D01*
X146426273Y-93447345D01*
X146267345Y-93606273D01*
X146080465Y-93731142D01*
X145872817Y-93817153D01*
X145652380Y-93861000D01*
X145427620Y-93861000D01*
X145207183Y-93817153D01*
X144999535Y-93731142D01*
X144812655Y-93606273D01*
X144653727Y-93447345D01*
X144528858Y-93260465D01*
X144442847Y-93052817D01*
X144399000Y-92832380D01*
X144399000Y-92607620D01*
X144442847Y-92387183D01*
X144528858Y-92179535D01*
X144653727Y-91992655D01*
X144812655Y-91833727D01*
X144999535Y-91708858D01*
X145207183Y-91622847D01*
X145427620Y-91579000D01*
X145652380Y-91579000D01*
X145872817Y-91622847D01*
G37*
G36*
X145872817Y-87622847D02*
G01*
X146080465Y-87708858D01*
X146267345Y-87833727D01*
X146426273Y-87992655D01*
X146551142Y-88179535D01*
X146637153Y-88387183D01*
X146681000Y-88607620D01*
X146681000Y-88832380D01*
X146637153Y-89052817D01*
X146551142Y-89260465D01*
X146426273Y-89447345D01*
X146267345Y-89606273D01*
X146080465Y-89731142D01*
X145872817Y-89817153D01*
X145652380Y-89861000D01*
X145427620Y-89861000D01*
X145207183Y-89817153D01*
X144999535Y-89731142D01*
X144812655Y-89606273D01*
X144653727Y-89447345D01*
X144528858Y-89260465D01*
X144442847Y-89052817D01*
X144399000Y-88832380D01*
X144399000Y-88607620D01*
X144442847Y-88387183D01*
X144528858Y-88179535D01*
X144653727Y-87992655D01*
X144812655Y-87833727D01*
X144999535Y-87708858D01*
X145207183Y-87622847D01*
X145427620Y-87579000D01*
X145652380Y-87579000D01*
X145872817Y-87622847D01*
G37*
G36*
X145872817Y-83622847D02*
G01*
X146080465Y-83708858D01*
X146267345Y-83833727D01*
X146426273Y-83992655D01*
X146551142Y-84179535D01*
X146637153Y-84387183D01*
X146681000Y-84607620D01*
X146681000Y-84832380D01*
X146637153Y-85052817D01*
X146551142Y-85260465D01*
X146426273Y-85447345D01*
X146267345Y-85606273D01*
X146080465Y-85731142D01*
X145872817Y-85817153D01*
X145652380Y-85861000D01*
X145427620Y-85861000D01*
X145207183Y-85817153D01*
X144999535Y-85731142D01*
X144812655Y-85606273D01*
X144653727Y-85447345D01*
X144528858Y-85260465D01*
X144442847Y-85052817D01*
X144399000Y-84832380D01*
X144399000Y-84607620D01*
X144442847Y-84387183D01*
X144528858Y-84179535D01*
X144653727Y-83992655D01*
X144812655Y-83833727D01*
X144999535Y-83708858D01*
X145207183Y-83622847D01*
X145427620Y-83579000D01*
X145652380Y-83579000D01*
X145872817Y-83622847D01*
G37*
M02*
